<?xml version="1.0" standalone="no"?>
<!DOCTYPE svg PUBLIC "-//W3C//DTD SVG 1.1//EN" "http://www.w3.org/Graphics/SVG/1.1/DTD/svg11.dtd" >
<svg xmlns="http://www.w3.org/2000/svg">
<metadata></metadata>
<defs>
<font id="nevisbold" horiz-adv-x="900" >
<font-face units-per-em="2048" ascent="1638" descent="-410" />
<missing-glyph horiz-adv-x="700" />
<glyph horiz-adv-x="2048" />
<glyph horiz-adv-x="2048" />
<glyph unicode="&#xd;" horiz-adv-x="2048" />
<glyph unicode=" "  horiz-adv-x="700" />
<glyph unicode="&#x09;" horiz-adv-x="700" />
<glyph unicode="&#xa0;" horiz-adv-x="700" />
<glyph unicode="!" horiz-adv-x="600" d="M100 140q0 -61 41 -100.5t109 -39.5t109 39.5t41 100.5q0 62 -41 101.5t-111 39.5q-67 0 -107.5 -40t-40.5 -101zM130 1334q-4 72 25.5 102t105.5 30q77 0 107 -30t24 -102l-81 -935h-132z" />
<glyph unicode="&#x22;" horiz-adv-x="800" d="M101 1500q0 30 24 58q24 29 86 29q60 0 86 -29t26 -57q0 -11 -2 -23l-54 -380h-110l-53 376q-3 20 -3 26zM413 1500q0 30 24 58q26 29 87 29q59 0 85 -29t26 -57q0 -11 -2 -23l-53 -380h-111l-52 377q-4 16 -4 25z" />
<glyph unicode="#" horiz-adv-x="1492" d="M37 430l52 184h271l84 267h-295l51 183h295l130 435h237l-131 -435h218l132 435h236l-131 -435h289l-51 -183h-289l-81 -267h309l-52 -184h-310l-130 -430h-236l129 430h-216l-132 -430h-236l130 430h-273zM597 609h218l84 267h-219z" />
<glyph unicode="$" horiz-adv-x="1413" d="M87 220l200 200q96 -115 320 -138v360q-167 22 -310 108q-150 90 -150 310q0 198 171 320q141 99 289 117v103h140v-102q154 -8 245 -48q114 -49 215 -150l-200 -200q-95 113 -260 120v-322q178 -24 325 -123q155 -105 155 -335q0 -180 -165 -310q-140 -110 -315 -126 v-104h-140v102q-162 7 -280 58q-140 60 -240 160zM497 990q31 -37 110 -62v279q-78 -19 -110 -72q-49 -85 0 -145zM747 290q97 19 130 75q49 85 0 170q-33 56 -130 83v-328z" />
<glyph unicode="%" horiz-adv-x="1900" d="M59 1135q0 160 108 268t268 108t268 -108t108 -268t-108 -268t-268 -108t-268 108t-108 268zM242 1136q0 -84 53 -142q52 -57 137 -57q84 0 137 57q53 58 53 142q0 85 -53 141q-53 57 -138 57q-83 0 -136 -57q-53 -56 -53 -141zM352 0l850 1500h244l-848 -1500h-246z M990 365q0 159 107 266t266 107t266 -107t107 -266t-107 -266t-266 -107t-266 107t-107 266zM1172 366q0 -84 52 -139t134 -55t134 55t52 139q0 82 -52 137q-53 56 -135 56q-80 0 -133 -56q-52 -55 -52 -137z" />
<glyph unicode="&#x26;" horiz-adv-x="1642" d="M90 422q0 282 335 449q-141 168 -141 322q0 134 106 225q106 93 304 93q191 0 292 -97q102 -98 102 -237q0 -89 -53 -169t-214 -181l204 -269q36 65 72 187l244 -78q-37 -135 -66 -198t-70 -114l295 -355h-341l-123 150q-90 -81 -189 -118q-102 -38 -238 -38 q-274 0 -412 154q-107 119 -107 274zM378 432q0 -92 59 -149q58 -57 160 -57q66 0 127 26t133 86l-286 353q-94 -47 -143.5 -116t-49.5 -143zM558 1192q0 -55 54 -116l69 -80l76 58q74 56 74 119q0 55 -36 87.5t-104 32.5q-65 0 -99 -27.5t-34 -73.5z" />
<glyph unicode="'" horiz-adv-x="500" d="M101 1500q0 30 24 58q24 29 86 29q60 0 86 -29t26 -57q0 -11 -2 -23l-54 -380h-110l-53 376q-3 20 -3 26z" />
<glyph unicode="(" horiz-adv-x="944" d="M96 601q0 201 56 397q56 198 169 375q73 116 125 172l35 38h279q-7 -14 -27 -37q-35 -38 -44 -52q-110 -165 -180 -370q-69 -201 -69 -444q0 -14 0.5 -40t0.5 -39q0 -12 -0.5 -38.5t-0.5 -40.5q0 -244 69 -443q70 -203 180 -367q12 -18 44 -53q19 -23 27 -39h-279l-35 39 q-50 55 -125 171q-115 180 -170 375q-55 196 -55 396z" />
<glyph unicode=")" horiz-adv-x="965" d="M100 -380q8 16 27 39q32 35 44 53q110 164 180 367q69 200 69 443q0 14 -0.5 40.5t-0.5 38.5q0 13 0.5 39t0.5 40q0 243 -69 444q-70 205 -180 370q-9 14 -44 52q-20 23 -27 37h279l35 -38q52 -56 125 -172q113 -177 169 -375q56 -196 56 -397q0 -200 -55 -396 q-55 -195 -170 -375q-75 -116 -125 -171l-35 -39h-279z" />
<glyph unicode="*" d="M99 1344l32 98l228 -83v241h100v-241l227 86l38 -96l-235 -89l145 -195l-75 -65l-152 200l-148 -200l-80 44l149 221z" />
<glyph unicode="+" horiz-adv-x="1200" d="M80 597v240h352v330h244v-330h352v-240h-352v-330h-244v330h-352z" />
<glyph unicode="," horiz-adv-x="594" d="M101 140q0 61 40.5 101t107.5 40q70 0 111 -39.5t41 -101.5v-7q0 -242 -200 -343l-50 90q81 32 111 120h-11q-68 0 -109 39.5t-41 100.5z" />
<glyph unicode="-" d="M80 401v199h620v-199h-620z" />
<glyph unicode="." horiz-adv-x="581" d="M91 140q0 61 40.5 101t107.5 40q70 0 111 -39.5t41 -101.5q0 -61 -41 -100.5t-109 -39.5t-109 39.5t-41 100.5z" />
<glyph unicode="/" horiz-adv-x="823" d="M-14 -60l548 1504h195l-548 -1504h-195z" />
<glyph unicode="0" horiz-adv-x="1382" d="M92 750q0 320 150 535t400 215q251 0 400 -215q150 -215 150 -535t-150 -535q-149 -215 -400 -215q-250 0 -400 215q-150 216 -150 535zM392 750q0 -200 75 -335t176 -135q99 0 174 135t75 335t-75 335t-176 135q-99 0 -174 -135t-75 -335z" />
<glyph unicode="1" horiz-adv-x="947" d="M47 1100l400 400v1h299v-1501h-299v1100l-200 -200z" />
<glyph unicode="2" horiz-adv-x="1300" d="M80 1300q100 100 195 150t324 50q219 0 360 -111t141 -329q0 -259 -200 -476q-201 -218 -329 -284h540v-300h-1011v300q100 0 380 250t325 355q45 104 -5 210q-50 105 -240 105q-180 0 -280 -120z" />
<glyph unicode="3" horiz-adv-x="1400" d="M96 220l200 200q109 -130 340 -140q195 -9 249 85q49 85 0 170q-49 84 -348 95v270q299 -20 348 65t0 170t-249 85q-190 0 -290 -120l-200 200q101 101 215 150q117 50 324 50q220 0 365 -130q146 -131 146 -310q0 -210 -135 -285q-18 -10 -29 -15q37 -14 49 -20 q155 -71 155 -300q0 -180 -166 -310q-164 -130 -385 -130q-209 0 -349 60t-240 160z" />
<glyph unicode="4" horiz-adv-x="1411" d="M80 330v299h10l-9 10l680 860v2h299v-872h202v-299h-202v-330h-299v330h-681zM396 629h365v478z" />
<glyph unicode="5" horiz-adv-x="1302" d="M54 220l200 200q105 -126 320 -130q269 -6 295 198q-6 127 -92 186q-53 56 -322 56h-320v770h920v-280h-620v-210h120q310 0 454 -135q155 -146 155 -405q0 -191 -151 -330q-151 -140 -370 -140q-210 0 -349 60q-140 60 -240 160z" />
<glyph unicode="6" horiz-adv-x="1388" d="M98 729q0 360 155 563q159 208 415 207q252 0 420 -149l-150 -200q-110 60 -257 60q-132 0 -208 -86t-85 -254q151 130 300 130q260 0 385 -135q125 -136 125 -365q0 -209 -140 -355q-143 -149 -400 -145q-297 6 -430 203q-130 193 -130 526zM428 499q5 -105 66 -161.5 t174 -56.5t174 51.5t66 147.5q-5 126 -68 189.5t-182 60.5q-104 -2 -162 -61t-68 -170z" />
<glyph unicode="7" horiz-adv-x="1262" d="M76 1500h1024v-110l-559 -1390h-292l1 100l469 1120h-642z" />
<glyph unicode="8" horiz-adv-x="1292" d="M70 440q0 229 155 300q12 6 49 20q-11 5 -29 15q-135 75 -135 285t130 325t351 115q218 0 348 -115q131 -116 131 -325q0 -210 -135 -285q-18 -10 -29 -15q37 -14 49 -20q155 -71 155 -300q0 -230 -146 -335t-375 -105t-374 105t-145 335zM421 365q45 -78 169 -84 q123 6 170 84q49 85 0 170q-38 65 -170 86q-131 -21 -169 -86q-49 -85 0 -170zM421 965q40 -69 169 -69q130 0 170 69q49 85 0 170q-47 78 -170 84q-124 -6 -169 -84q-49 -85 0 -170z" />
<glyph unicode="9" horiz-adv-x="1328" d="M100 1052q21 208 174 339q167 141 413 105q228 -33 340.5 -196t114.5 -465q3 -470 -181 -665q-178 -191 -433 -164q-253 27 -403 190l169 184q105 -72 250 -85q131 -13 215 65t110 244q-163 -114 -311 -100q-258 25 -370 172q-111 146 -88 376zM362 1019 q5 -126 68 -189.5t182 -60.5q104 2 162 61t68 170q-5 105 -66 161.5t-174 56.5t-174 -51.5t-66 -147.5z" />
<glyph unicode=":" horiz-adv-x="586" d="M96 140q0 61 40.5 101t107.5 40q70 0 111 -39.5t41 -101.5q0 -61 -41 -100.5t-109 -39.5t-109 39.5t-41 100.5zM96 856q0 61 40.5 101t107.5 40q70 0 111 -39.5t41 -101.5q0 -61 -41 -100.5t-109 -39.5t-109 39.5t-41 100.5z" />
<glyph unicode=";" horiz-adv-x="602" d="M97 140q0 61 40.5 101t107.5 40q70 0 111 -39.5t41 -101.5v-7q0 -242 -200 -343l-50 90q81 32 111 120h-11q-68 0 -109 39.5t-41 100.5zM102 860q0 61 40.5 101t107.5 40q70 0 111 -39.5t41 -101.5q0 -61 -41 -100.5t-109 -39.5t-109 39.5t-41 100.5z" />
<glyph unicode="&#x3c;" horiz-adv-x="1148" d="M48 721v65l948 514v-230l-580 -320l580 -320v-230z" />
<glyph unicode="=" horiz-adv-x="1200" d="M100 400v199h900v-199h-900zM100 801v199h900v-199h-900z" />
<glyph unicode="&#x3e;" horiz-adv-x="1154" d="M100 200v230l580 320l-580 320v230l948 -514v-65z" />
<glyph unicode="?" horiz-adv-x="1249" d="M50 1300q101 101 215 150q117 50 324 50q180 0 340 -121q167 -125 161 -319q-4 -130 -75 -245q-64 -104 -210 -145q-145 -40 -154 -270h-280q0 190 65 315q67 128 228 161q138 27 142 202q-35 139 -276 142q-178 1 -280 -120zM371 140q0 -61 41 -100.5t109 -39.5 t109 39.5t41 100.5q0 62 -41 101.5t-111 39.5q-67 0 -107.5 -40t-40.5 -101z" />
<glyph unicode="@" horiz-adv-x="2189" d="M92 546q-4 329 235 619q235 285 716 285q479 0 708 -261q228 -258 242 -651q-41 -549 -350 -618q-274 -10 -422 184q-122 -80 -220 -80q-197 0 -298.5 83.5t-101.5 236.5q0 141 94 250q95 110 306 110q97 0 220 -60v30q0 55 -41 86.5t-119 33.5q-170 6 -280 -60l-130 150 q196 134 460 140q176 4 285 -100q105 -100 105 -300v-392q111 -112 176 28q61 129 58 281q-8 312 -168 507q-163 200 -524 202q-343 0 -517 -205q-181 -216 -181 -502q0 -404 255 -591q248 -182 842 -152v-200q-780 -30 -1060 232q-284 264 -290 714zM841 374 q11 -123 190 -129q148 -4 190 79v113q-41 77 -190 77q-179 -19 -190 -140z" />
<glyph unicode="A" horiz-adv-x="1644" d="M44 0l600 1500h300l599 -1499l-319 -1l-90 230h-680l-90 -230h-320zM574 530h450l-222 570z" />
<glyph unicode="B" horiz-adv-x="1573" d="M100 0v1499h796q187 0 288 -114.5t112 -326.5q-8 -200 -108 -267q197 -132 209 -343q-10 -215 -124.5 -332t-328.5 -117zM401 234h490q106 0 161 55t55 162q0 72 -54.5 111t-158.5 39h-493v-367zM401 898h420q91 0 138.5 47.5t47.5 139.5q0 55 -47 85.5t-136 30.5h-423 v-303z" />
<glyph unicode="C" horiz-adv-x="1549" d="M265 1284q215 216 533 216q321 0 551 -200l-200 -219q-153 120 -351 120q-201 -1 -326 -126q-123 -124 -123 -320q2 -210 125 -332q124 -123 326 -123q201 0 349 119l200 -219q-231 -200 -548 -200h-3q-317 0 -534 215q-215 215 -215 535q0 318 216 534z" />
<glyph unicode="D" horiz-adv-x="1600" d="M123 0v1501h578q700 0 700 -751q0 -750 -700 -750h-578zM423 299h278q400 0 400 451q0 450 -400 450h-278v-901z" />
<glyph unicode="E" horiz-adv-x="1400" d="M119 0v1499l1102 1v-280h-802v-320h601v-279h-601v-341h800v-280h-1100z" />
<glyph unicode="F" horiz-adv-x="1272" d="M122 0v1500h1055v-280h-755v-320h557v-279h-557v-621h-300z" />
<glyph unicode="G" horiz-adv-x="1521" d="M258 1284q214 216 533 216q321 0 551 -200l-200 -219q-153 120 -351 120q-201 -1 -326 -126q-123 -124 -123 -320q2 -210 125 -332q125 -123 326 -123q163 0 249 64v257l-200 -1v280h500v-700q-231 -200 -548 -200h-3q-317 0 -534 215q-215 215 -215 535q0 318 216 534z " />
<glyph unicode="H" horiz-adv-x="1623" d="M123 0v1500h300v-600h699v601h300v-1500l-300 -1v620h-699v-620h-300z" />
<glyph unicode="I" horiz-adv-x="600" d="M123 0v1501h299v-1501h-299z" />
<glyph unicode="J" horiz-adv-x="849" d="M49 0v280h99q99 0 150 56.5t51 162.5v1001h301l-1 -1101q0 -179 -110 -289t-288 -110h-202z" />
<glyph unicode="K" horiz-adv-x="1444" d="M126 0v1500h300v-600l500 600h337l-587 -700l710 -800h-390l-570 648v-648h-300z" />
<glyph unicode="L" horiz-adv-x="1350" d="M126 0v1500h300v-1220h800v-280h-1100z" />
<glyph unicode="M" horiz-adv-x="1800" d="M123 0v1500h100l650 -740l651 740h100v-1500h-300l-1 870l-450 -500l-450 500v-870h-300z" />
<glyph unicode="N" horiz-adv-x="1651" d="M123 0v1500h100l940 -940v940h300v-1500h-110l-930 930v-930h-300z" />
<glyph unicode="O" horiz-adv-x="1647" d="M47 750q0 320 215 535t535 215t535 -215t215 -535t-215 -535t-535 -215t-535 215q-215 217 -215 535zM347 750q0 -199 125 -335q124 -135 326 -135q200 0 324 135q125 136 125 335t-125 335q-125 135 -326 135q-200 0 -324 -135q-125 -136 -125 -335z" />
<glyph unicode="P" horiz-adv-x="1400" d="M123 0v1500h654q525 0 525 -432q0 -448 -524 -448h-355v-620h-300zM423 900h420q91 0 138.5 42t47.5 123q0 74 -47 114t-136 40h-423v-319z" />
<glyph unicode="Q" horiz-adv-x="1652" d="M52 750q0 320 215 535t535 215t535 -215t215 -535q0 -291 -179 -496l128 -166l-238 -183l-128 166q-150 -71 -333 -71q-320 0 -535 215q-215 217 -215 535zM352 750q0 -199 125 -335q125 -135 326 -135q81 0 153 23l-113 147l238 183l106 -138q65 112 65 255 q0 199 -125 335q-124 135 -326 135q-199 0 -324 -135q-125 -136 -125 -335z" />
<glyph unicode="R" horiz-adv-x="1433" d="M123 0v1500h654q525 0 525 -432q0 -326 -276 -414l374 -654h-344l-359 620h-274v-620h-300zM423 900h420q91 0 138.5 42t47.5 123q0 74 -47 114t-136 40h-423v-319z" />
<glyph unicode="S" horiz-adv-x="1315" d="M30 220l200 200q109 -130 340 -140q17 -1 33 -1q167 0 216 86q24 42 24.5 84.5t-24.5 85.5q-49 84 -249 105q-176 18 -330 110q-150 90 -150 310q0 199 170 319q170 121 351 121q207 0 324 -50q114 -49 215 -150l-200 -200q-100 120 -280 120q-181 0 -230 -85 q-24 -42 -24 -78.5t24 -66.5q55 -67 230 -90q201 -27 345 -125q155 -105 155 -335q0 -180 -166 -310q-164 -130 -385 -130q-209 0 -349 60t-240 160z" />
<glyph unicode="T" horiz-adv-x="1447" d="M47 1220v280h1300v-280h-500v-1220h-300v1220h-500z" />
<glyph unicode="U" horiz-adv-x="1601" d="M100 550v950h300v-870q0 -171 100 -250q101 -80 250 -80t250 80q100 79 100 250v870h300v-950q0 -229 -185 -390q-184 -160 -465 -160t-465 160q-185 161 -185 390z" />
<glyph unicode="V" horiz-adv-x="1657" d="M31 1500h320l426 -1099l434 1099h320l-599 -1500h-300z" />
<glyph unicode="W" horiz-adv-x="2134" d="M34 1500h320l261 -1020l270 1020h310l260 -1020l260 1020h320l-400 -1500h-300l-300 1100l-300 -1100h-300z" />
<glyph unicode="X" horiz-adv-x="1616" d="M44 0l573 781l-525 719h352l350 -477l350 477h352l-525 -719l573 -781h-356l-394 539l-394 -539h-356z" />
<glyph unicode="Y" horiz-adv-x="1534" d="M35 1500h352l348 -490l356 490h344l-550 -750v-750h-300v750z" />
<glyph unicode="Z" horiz-adv-x="1475" d="M98 0l1 100l699 1120h-699l-1 280h1201v-110l-702 -1110h702v-280h-1201z" />
<glyph unicode="[" horiz-adv-x="758" d="M99 -400v2299h280l221 1l1 -270h-222v-1760h221v-270h-501z" />
<glyph unicode="\" horiz-adv-x="823" d="M36 1444h195l548 -1504h-195z" />
<glyph unicode="]" horiz-adv-x="800" d="M99 1630l1 270l221 -1h280v-2299h-501v270h221v1760h-222z" />
<glyph unicode="^" horiz-adv-x="1000" d="M100 1252l353 500l349 -500h-101l-250 251l-249 -251h-102z" />
<glyph unicode="_" horiz-adv-x="1300" d="M100 -100h1024v-100h-1024v100z" />
<glyph unicode="a" horiz-adv-x="1099" d="M49 320q0 141 94 250q95 110 306 110q97 0 220 -60v30q0 55 -41 86.5t-119 33.5h-28q-151 0 -252 -60l-110 170q191 120 440 120q181 0 285 -100q105 -100 105 -300v-600h-280v80q-122 -80 -220 -80q-197 0 -298.5 83.5t-101.5 236.5zM289 350q11 -123 190 -129h13 q137 0 177 79v113q-41 77 -190 77q-179 -19 -190 -140z" />
<glyph unicode="b" horiz-adv-x="1191" d="M91 0v1499l280 1v-581q77 77 220 81h17q214 0 348 -150q135 -150 135 -350t-135 -350t-365 -150q-107 0 -220 80v-80h-280zM371 410q19 -150 210 -180q260 11 270 290q-30 230 -270 249q-190 -28 -210 -197v-162z" />
<glyph unicode="c" horiz-adv-x="1049" d="M49 450v100q0 200 150 325q151 125 351 125q240 0 399 -170l-200 -150q-90 90 -200 90q-100 0 -175 -80t-75 -190q0 -111 70 -190q71 -80 180 -80q110 0 200 90l200 -150q-161 -170 -400 -170q-199 0 -350 125q-150 125 -150 325z" />
<glyph unicode="d" horiz-adv-x="1195" d="M49 500q0 200 135 350t348 150h17q143 -4 220 -81v581l280 -1v-1499h-280v80q-113 -80 -220 -80q-230 0 -365 150t-135 350zM289 520q10 -279 270 -290q191 30 210 180v162q-20 169 -210 197q-240 -19 -270 -249z" />
<glyph unicode="e" horiz-adv-x="1147" d="M47 500q0 220 140 360t360 140q219 0 350 -140q130 -139 130 -360v-100h-690q11 -80 70 -125q60 -45 140 -45q140 0 250 80l160 -160q-109 -150 -410 -150q-220 0 -360 140t-140 360zM347 600h400q0 80 -60 125t-140 45t-140 -45t-60 -125z" />
<glyph unicode="f" horiz-adv-x="772" d="M-3 800v226h150v134q0 151 100 245q101 95 270 95q180 0 280 -100l-149 -166q-28 31 -100 31q-120 0 -120 -145v-94h150v-226h-150v-800h-281v800h-150z" />
<glyph unicode="g" horiz-adv-x="1144" d="M44 500q0 220 125 360t337 140h18q165 -4 240 -91v91l280 -30v-890q0 -209 -125 -351q-113 -128 -315 -149l-60 -6q-290 6 -450 166l130 150q118 -86 267 -90h21q139 0 195 75q57 75 57 165v50q-112 -90 -260 -90q-230 0 -345 135q-115 134 -115 365zM284 520 q10 -279 270 -290q190 30 210 180v162q-20 169 -210 197q-250 -9 -270 -249z" />
<glyph unicode="h" horiz-adv-x="1100" d="M100 0v1500h280v-590q100 90 240 90q190 0 290 -115t100 -265v-620h-280v550q0 101 -50.5 155.5t-150.5 57.5q-88 -6 -149 -87v-676h-280z" />
<glyph unicode="i" horiz-adv-x="524" d="M90 1240q0 61 40.5 101t107.5 40q70 0 111 -39.5t41 -101.5q0 -61 -41 -100.5t-109 -39.5t-109 39.5t-41 100.5zM100 0h280v1001h-280v-1001z" />
<glyph unicode="j" horiz-adv-x="595" d="M-140 -200v-230h202q177 0 278 110q100 109 100 289l1 1031h-281v-981q0 -106 -51 -162.5t-150 -56.5h-99zM149 1240q0 61 40.5 101t107.5 40q70 0 111 -39.5t41 -101.5q0 -61 -41 -100.5t-109 -39.5t-109 39.5t-41 100.5z" />
<glyph unicode="k" horiz-adv-x="1200" d="M126 0v1500h300v-849l287 349h337l-374 -449l474 -551h-390l-334 399v-399h-300z" />
<glyph unicode="l" horiz-adv-x="573" d="M100 0v1500h280v-1500h-280z" />
<glyph unicode="m" horiz-adv-x="1773" d="M96 0v971l280 30v-89q94 88 240 88q190 0 290 -115q109 115 330 115q190 0 290 -115t100 -265v-620h-280v550q0 102 -46 156t-145 57q-82 -6 -144 -110q-5 -35 -5 -63v-590h-280v550q0 102 -46 156t-145 57q-91 -6 -159 -123v-640h-280z" />
<glyph unicode="n" horiz-adv-x="1145" d="M100 0v971l280 30v-91q100 90 240 90q190 0 290 -115t100 -265v-620h-280v550q0 101 -50.5 155.5t-150.5 57.5q-88 -6 -149 -127v-636h-280z" />
<glyph unicode="o" horiz-adv-x="1152" d="M42 500q0 218 146 364t364 146t364 -146t146 -364t-146 -364t-364 -146t-364 146q-146 148 -146 364zM295 499q0 -114 71 -191q70 -76 185 -76t185 76q71 77 71 191t-71 191t-186 77q-113 0 -184 -77t-71 -191z" />
<glyph unicode="p" horiz-adv-x="1196" d="M96 -420v1391l280 30v-80q113 80 220 80q230 0 365 -150t135 -350t-135 -350t-348 -150h-17q-143 4 -220 81v-503zM376 429q20 -169 210 -197q240 20 270 249q-10 279 -270 290q-190 -30 -210 -180v-162z" />
<glyph unicode="q" horiz-adv-x="1172" d="M44 501q0 200 135 350t365 150q107 0 220 -80v80l280 -30v-1391l-280 -1v503q-77 -77 -220 -81h-17q-213 0 -348 150t-135 350zM284 481q30 -229 270 -249q190 28 210 197v162q-20 150 -210 180q-260 -11 -270 -290z" />
<glyph unicode="r" horiz-adv-x="796" d="M78 0v971l280 30v-111q107 110 261 110q47 0 93 -8l-44 -276q-50 44 -140 47q-103 -8 -170 -148v-615h-280z" />
<glyph unicode="s" horiz-adv-x="928" d="M52 139l155 175q67 -80 211 -94q115 0 148 37q20 22 20 44q0 16 -10 31q-22 37 -158 51q-122 14 -224 75q-101 62 -101 230q0 155 115 236q115 82 238 82q142 0 219 -34q81 -36 146 -101l-156 -176q-67 81 -170 81q-100 0 -135 -38q-18 -19 -18 -36q0 -38 87 -66 q29 -9 66 -16q148 -13 244 -85q95 -71 95 -247q0 -142 -112 -220t-261 -78q-250 0 -399 149z" />
<glyph unicode="t" horiz-adv-x="787" d="M32 773v226h150v271l281 30v-301h150v-226h-150v-393q0 -145 120 -145q19 0 75 13l59 -201q-73 -47 -165 -47q-169 0 -270 95q-100 94 -100 245v433h-150z" />
<glyph unicode="u" horiz-adv-x="1125" d="M73 381v620h280v-550q0 -101 50.5 -155.5t150.5 -57.5q88 6 149 117v646h280v-1001h-280v91q-101 -90 -240 -90q-190 0 -290 115t-100 265z" />
<glyph unicode="v" horiz-adv-x="1142" d="M17 1000h284l235 -625l240 625h284l-401 -1000h-240z" />
<glyph unicode="w" horiz-adv-x="1460" d="M25 1001h263l155 -591l150 591h207l143 -601l154 601h263l-267 -1001h-250l-150 501l-150 -501h-250z" />
<glyph unicode="x" horiz-adv-x="1096" d="M13 0l356 521l-324 477h284l183 -268l183 268h284l-324 -477l356 -521h-287l-212 312l-212 -312h-287z" />
<glyph unicode="y" horiz-adv-x="1128" d="M85 380v620h280v-550q0 -101 50.5 -155.5t150.5 -57.5q88 6 154 109v654h280v-920q0 -211 -130 -351q-120 -130 -310 -149l-60 -6q-211 6 -380 166l130 150q119 -89 227 -100q127 0 185 63.5t58 186.5v51q-106 -91 -245 -91q-190 0 -290 115t-100 265z" />
<glyph unicode="z" horiz-adv-x="1013" d="M85 0v67l416 695h-416v236h799v-73l-417 -689h417v-236h-799z" />
<glyph unicode="|" horiz-adv-x="774" d="M195 -400v2299h280v-2299h-280z" />
<glyph unicode="&#xa3;" horiz-adv-x="1365" d="M91 631v168h98q-19 130 4 281q30 200 160 309q131 111 321 111q179 0 284 -45t205 -145l-170 -230q-100 120 -280 130q-141 -11 -200 -80q-61 -71 -65 -210q-2 -66 8 -121h436v-168h-384q50 -136 -16 -401h700v-230h-1030v230q160 169 76 385q-2 3 -7 16h-140z" />
<glyph unicode="&#xa9;" horiz-adv-x="1674" d="M94 718q0 144 53 276.5t153 237.5q104 109 244.5 169.5t295.5 60.5q151 0 290 -60.5t244 -169.5q98 -101 152 -238q54 -139 54 -276q0 -142 -54 -275.5t-156 -239.5q-106 -110 -244 -168.5t-293 -58.5q-152 0 -287.5 59t-243.5 170q-208 216 -208 513zM166 718 q0 -141 54 -265t155 -220q197 -185 459 -185q269 0 463 183q101 97 156 222.5t55 264.5q0 137 -56 266q-58 132 -151 220q-95 91 -214.5 138.5t-247.5 47.5q-274 0 -478 -197q-83 -79 -141 -209q-54 -124 -54 -266zM352 714q0 204 140 344t345 140q208 0 356 -130l-129 -141 q-100 77 -227 77q-131 0 -211 -81q-80 -82 -80 -207q2 -136 81 -216q79 -79 211 -79q131 0 226 77l129 -142q-150 -130 -356 -129q-205 0 -346 139q-140 140 -139 348z" />
<glyph unicode="&#xab;" horiz-adv-x="987" d="M100 479l501 353v-102l-251 -249l251 -250v-101zM450 479l501 353v-102l-251 -249l251 -250v-101z" />
<glyph unicode="&#xad;" d="M80 401v199h620v-199h-620z" />
<glyph unicode="&#xae;" horiz-adv-x="1674" d="M94 718q0 144 53 276.5t153 237.5q104 109 244.5 169.5t295.5 60.5q151 0 290 -60.5t244 -169.5q98 -101 152 -238q54 -139 54 -276q0 -142 -54 -275.5t-156 -239.5q-106 -110 -244 -168.5t-293 -58.5q-152 0 -287.5 59t-243.5 170q-208 216 -208 513zM166 718 q0 -141 54 -265t155 -220q197 -185 459 -185q269 0 463 183q101 97 156 222.5t55 264.5q0 137 -56 266q-58 132 -151 220q-95 91 -214.5 138.5t-247.5 47.5q-274 0 -478 -197q-83 -79 -141 -209q-54 -124 -54 -266zM479 272v894h390q313 0 313 -257q0 -195 -165 -247 l223 -390h-205l-215 370h-162v-370h-179zM658 809h250q111 0 111 98q0 44 -28 68t-81 24h-252v-190z" />
<glyph unicode="&#xb0;" horiz-adv-x="772" d="M60 1197q0 119 84 210q84 93 218 93t218 -94q84 -93 84 -209q0 -114 -85 -208q-85 -93 -219 -93t-217 92t-83 209zM187 1198q0 -80 57 -128q58 -47 119 -47q62 0 118 47t56 128t-56 128t-118 47q-61 0 -119 -47q-57 -46 -57 -128z" />
<glyph unicode="&#xbb;" horiz-adv-x="987" d="M100 130v101l251 250l-251 249v102l501 -353zM450 130v101l251 250l-251 249v102l501 -353z" />
<glyph unicode="&#xf7;" horiz-adv-x="1108" d="M80 637h948v160h-948v-160zM400 359q0 61 40.5 101t107.5 40q70 0 111 -39.5t41 -101.5q0 -61 -41 -100.5t-109 -39.5t-109 39.5t-41 100.5zM400 1059q0 61 40.5 101t107.5 40q70 0 111 -39.5t41 -101.5q0 -61 -41 -100.5t-109 -39.5t-109 39.5t-41 100.5z" />
<glyph unicode="&#x2000;" horiz-adv-x="950" />
<glyph unicode="&#x2001;" horiz-adv-x="1900" />
<glyph unicode="&#x2002;" horiz-adv-x="950" />
<glyph unicode="&#x2003;" horiz-adv-x="1900" />
<glyph unicode="&#x2004;" horiz-adv-x="633" />
<glyph unicode="&#x2005;" horiz-adv-x="475" />
<glyph unicode="&#x2006;" horiz-adv-x="316" />
<glyph unicode="&#x2007;" horiz-adv-x="316" />
<glyph unicode="&#x2008;" horiz-adv-x="237" />
<glyph unicode="&#x2009;" horiz-adv-x="380" />
<glyph unicode="&#x200a;" horiz-adv-x="105" />
<glyph unicode="&#x2010;" d="M80 401v199h620v-199h-620z" />
<glyph unicode="&#x2011;" d="M80 401v199h620v-199h-620z" />
<glyph unicode="&#x2012;" d="M80 401v199h620v-199h-620z" />
<glyph unicode="&#x2013;" horiz-adv-x="1108" d="M56 399v160h996v-160h-996z" />
<glyph unicode="&#x2014;" horiz-adv-x="2048" d="M0 399v160h2048v-160h-2048z" />
<glyph unicode="&#x2018;" horiz-adv-x="625" d="M229 1241v7q0 242 200 343l50 -90q-81 -31 -111 -120h11q68 0 109 -39.5t41 -100.5t-40.5 -101t-107.5 -40q-70 0 -111 39.5t-41 101.5z" />
<glyph unicode="&#x2019;" horiz-adv-x="625" d="M92 1450q0 61 40.5 101t107.5 40q70 0 111 -39.5t41 -101.5v-7q0 -242 -200 -343l-50 90q81 32 111 120h-11q-68 0 -109 39.5t-41 100.5z" />
<glyph unicode="&#x201a;" horiz-adv-x="625" d="M212 140q0 61 40.5 101t107.5 40q70 0 111 -39.5t41 -101.5v-7q0 -242 -200 -343l-50 90q81 32 111 120h-11q-68 0 -109 39.5t-41 100.5z" />
<glyph unicode="&#x201c;" horiz-adv-x="985" d="M229 1241v7q0 242 200 343l50 -90q-81 -31 -111 -120h11q68 0 109 -39.5t41 -100.5t-40.5 -101t-107.5 -40q-70 0 -111 39.5t-41 101.5zM600 1241v7q0 242 200 343l50 -90q-81 -31 -111 -120h11q68 0 109 -39.5t41 -100.5t-40.5 -101t-107.5 -40q-70 0 -111 39.5 t-41 101.5z" />
<glyph unicode="&#x201d;" horiz-adv-x="985" d="M89 1450q0 61 40.5 101t107.5 40q70 0 111 -39.5t41 -101.5v-7q0 -242 -200 -343l-50 90q81 32 111 120h-11q-68 0 -109 39.5t-41 100.5zM460 1450q0 61 40.5 101t107.5 40q70 0 111 -39.5t41 -101.5v-7q0 -242 -200 -343l-50 90q81 32 111 120h-11q-68 0 -109 39.5 t-41 100.5z" />
<glyph unicode="&#x201e;" horiz-adv-x="985" d="M200 119q0 61 40.5 101t107.5 40q70 0 111 -39.5t41 -101.5v-7q0 -242 -200 -343l-50 90q81 31 111 120h-11q-68 0 -109 39.5t-41 100.5zM571 119q0 61 40.5 101t107.5 40q70 0 111 -39.5t41 -101.5v-7q0 -242 -200 -343l-50 90q81 31 111 120h-11q-68 0 -109 39.5 t-41 100.5z" />
<glyph unicode="&#x2026;" horiz-adv-x="2048" d="M200 140q0 61 40.5 101t107.5 40q70 0 111 -39.5t41 -101.5q0 -61 -41 -100.5t-109 -39.5t-109 39.5t-41 100.5zM899 140q0 61 40.5 101t107.5 40q70 0 111 -39.5t41 -101.5q0 -61 -41 -100.5t-109 -39.5t-109 39.5t-41 100.5zM1601 140q0 61 40.5 101t107.5 40 q70 0 111 -39.5t41 -101.5q0 -61 -41 -100.5t-109 -39.5t-109 39.5t-41 100.5z" />
<glyph unicode="&#x202f;" horiz-adv-x="380" />
<glyph unicode="&#x2039;" horiz-adv-x="676" d="M174 479l353 313h48v-47l-205 -266l205 -266v-47h-48z" />
<glyph unicode="&#x203a;" horiz-adv-x="676" d="M101 166v47l205 266l-205 266v47h48l353 -313l-353 -313h-48z" />
<glyph unicode="&#x205f;" horiz-adv-x="475" />
<glyph unicode="&#x20ac;" horiz-adv-x="1500" d="M-1 561v140h102q-1 17 -1 52q0 32 1 47h-102v140h122q47 196 195 345q215 215 533 215q321 0 551 -200l-200 -219q-153 120 -351 120q-202 -1 -325 -126q-58 -60 -90 -135h566v-140h-598q-2 -30 -2 -45q0 -20 2 -54h598v-140h-566q32 -80 91 -138q125 -123 326 -123 t349 119l200 -219q-232 -201 -551 -200q-317 0 -533 216q-148 147 -195 345h-122z" />
<glyph unicode="&#xe000;" horiz-adv-x="1000" d="M0 0v1000h1000v-1000h-1000z" />
</font>
</defs>
</svg>
