<?xml version="1.0" standalone="no"?>
<!DOCTYPE svg PUBLIC "-//W3C//DTD SVG 1.1//EN" "http://www.w3.org/Graphics/SVG/1.1/DTD/svg11.dtd" >
<svg xmlns="http://www.w3.org/2000/svg">
<metadata>
Created by FontPrep 20130207 at Sun May 11 23:24:57 2014
 By Anton Strilchuk
</metadata>
<defs>
<font id="141f7f91d4181be1b15853f8f4967c5e" horiz-adv-x='1024' >
  <font-face 
    font-family="KozMinPro-Medium-AlphaNum"
    font-weight="500"
    font-stretch="normal"
    units-per-em="2048"
    panose-1="2 0 6 3 0 0 0 0 0 0"
    ascent="1638"
    descent="-410"
    bbox="47 -188 1999 1739"
    underline-thickness="102"
    underline-position="-205"
    unicode-range="U+2150-1F189"
  />
<missing-glyph horiz-adv-x="745" 
d="M135 68h408v1228h-408v-1228zM68 0v1364h542v-1364h-542z" />
    <glyph glyph-name=".notdef" horiz-adv-x="745" 
d="M135 68h408v1228h-408v-1228zM68 0v1364h542v-1364h-542z" />
    <glyph glyph-name=".null" horiz-adv-x="0" vert-adv-y="0" 
 />
    <glyph glyph-name="nonmarkingreturn" horiz-adv-x="681" 
 />
    <glyph glyph-name="Japan1.9790" unicode="&#x2150;" 
d="M1386 649q-63 0 -83 -16t-37 -80h-68l41 192h590l16 -26q-315 -360 -319 -742h-162q19 357 334 672h-312zM1552 1511l-977 -1536h-108l979 1536h106zM647 891q1 -57 17 -71t92 -15v-64h-369v64q80 0 97 14t18 72v422q0 68 -31 67q-12 0 -78 -18l-12 61q139 39 248 93
l18 -9v-616z" />
    <glyph glyph-name="Japan1.9800" unicode="&#x2151;" 
d="M1556 1511l-976 -1536h-109l979 1536h106zM498 891v422q0 68 -31 67q-12 0 -78 -18l-10 61q141 41 246 93l18 -9v-616q0 -57 16 -71t93 -15v-64h-369v64q79 1 97 15t18 71zM1671 471q0 91 -48 157t-128 66t-130 -52t-50 -146q0 -52 22 -94q43 -81 134 -82q92 -2 146 46
t54 105zM1454 258q-145 0 -217 71t-72 181t86 178q86 70 241 70t244 -98t89 -273q0 -174 -82 -293t-264 -119q-111 0 -191 45q-80 44 -80 104t49 60q29 0 47 -14t37 -49q47 -82 139 -82t145 87q52 87 52 239l-4 2q-74 -109 -219 -109z" />
    <glyph glyph-name="Japan1.9806" unicode="&#x2152;" 
d="M1212 137q0 -57 16 -72t77 -16v-61h-330v61q68 0 82 14t14 74v422q0 39 -5 52q-4 13 -26 13t-59 -12l-12 62q115 31 227 88l16 -8v-617zM1380 1511l-979 -1536h-108l979 1536h108zM512 891q0 -57 16 -71t93 -15v-64h-369v64q80 0 97 14t18 72v422q0 68 -31 67
q-15 0 -78 -18l-12 61q139 39 248 93l18 -9v-616zM1632 694q-86 0 -110 -108q-21 -93 -21 -221q0 -326 131 -326q131 -1 131 327t-131 328zM1641 -25q-124 0 -195 76q-92 98 -92 298q0 407 278 409q137 0 208 -102t71 -287q0 -184 -73 -289t-197 -105z" />
    <glyph glyph-name="Japan1.9785" unicode="&#x2156;" 
d="M1667 232q-1 190 -193 190q-98 0 -171 -78l-52 16l58 385h358q61 0 70 19h63l-33 -115h-403l-41 -219l2 -2q84 57 211 57q127 -1 204 -71t77 -186q1 -116 -89 -184q-90 -69 -225 -69q-135 1 -219 49t-84 113q0 57 64 57q34 0 64 -48q30 -49 67 -78t105 -29t118 50
q49 51 49 143zM1573 1511l-979 -1536h-109l979 1536h109zM688 1328q0 56 -41 88t-110 32q-121 0 -172 -121q-23 -55 -72 -55q-23 0 -37 18t-14 45q0 63 82 119t230 57q148 0 216 -60t68 -132q0 -113 -140 -193q-42 -26 -116 -60t-103 -50q-123 -66 -162 -178h349q61 0 82 19
q20 19 40 89l62 -6l-39 -199h-578l-20 23q29 110 78 184t99 112t135 83t124 87t39 98z" />
    <glyph glyph-name="Japan1.9786" unicode="&#x2157;" 
d="M1673 745q59 0 68 19h63l-30 -115h-408l-39 -219l2 -2q82 55 207 55q125 -1 205 -67t80 -186t-91 -188q-92 -67 -228 -67q-136 1 -217 51t-81 111q0 55 66 57q33 0 55 -40q29 -42 46 -62q46 -52 125 -53q80 0 128 46t47 159q0 113 -73 149q-58 29 -107 29
q-111 0 -184 -78l-54 16l62 385h358zM1567 1511l-977 -1536h-111l979 1536h109zM442 1116v62q115 0 180 40q64 40 64 108t-49 96q-49 26 -107 26q-109 0 -153 -92q-22 -40 -42 -51q-19 -13 -42 -13t-36 16t-13 40q0 59 81 111t212 52t213 -46t81 -138q0 -66 -58 -115
t-165 -57v-4q115 -6 188 -60q72 -53 72 -143t-89 -154t-235 -65q-146 0 -233 52q-86 53 -86 113t54 60q35 0 59 -32q57 -74 97 -102t104 -28q63 0 121 36t59 124q-1 164 -277 164z" />
    <glyph glyph-name="Japan1.9787" unicode="&#x2158;" 
d="M1683 745q61 0 68 19h66l-33 -115h-406l-41 -219l4 -2q82 57 206 57q124 1 205 -67t81 -184t-86 -187q-87 -72 -227 -72q-140 -1 -223 49t-83 113q0 55 65 57q33 0 59 -39q26 -41 43 -61t51 -38t92 -17q57 0 108 48q51 47 51 145t-51 144t-129 46q-113 0 -184 -78l-53 16
l59 385h358zM1610 1511l-977 -1536h-111l979 1536h109zM618 1004v274q0 53 5 143h-11q-26 -42 -64 -94q-38 -51 -48 -67l-187 -256h305zM618 938h-403v43l397 530h148v-507h127l-10 -66h-117q0 -98 11 -116t77 -17v-64h-332v64q72 0 87 14t15 72v47z" />
    <glyph glyph-name="Japan1.9788" unicode="&#x2159;" 
d="M1556 1511l-976 -1536h-109l979 1536h106zM502 891v422q0 68 -31 67q-12 0 -78 -18l-12 61q139 39 248 93l18 -9v-616q1 -57 17 -71t92 -15v-64h-369v64q79 1 97 15t18 71zM1675 222q0 80 -38 136t-124 56t-138 -47t-52 -105q0 -94 47 -159t125 -65t129 52t51 132z
M1825 228q0 -108 -83 -181q-83 -72 -237 -72q-154 1 -247 95t-93 292q0 128 66 251q35 65 109 105t178 40q106 0 186 -44t80 -104t-51 -61q-45 1 -88 73t-129 72t-143 -76q-58 -76 -58 -249l4 -2q72 109 215 109t217 -70t74 -178z" />
    <glyph glyph-name="Japan1.9789" unicode="&#x215a;" 
d="M1563 1511l-977 -1536h-109l979 1536h107zM688 1499q61 0 70 19h65l-32 -115h-406l-41 -219h4q82 55 207 55t205 -71q80 -70 80 -184t-88 -184t-228 -71q-140 0 -221 49q-82 49 -82 113q1 27 17 42t36 15q46 0 68 -37t36 -56t52 -41q37 -22 84 -21q86 0 131 56t45 136
t-44 135q-44 56 -146 56t-176 -78l-52 18l58 383h358zM1323 262q0 -94 47 -158t126 -65q79 0 129 52q50 51 50 131t-38 136t-123 56t-138 -46t-53 -106zM1825 230q0 -110 -83 -183q-83 -72 -237 -72q-154 1 -247 95t-93 292q0 128 66 251q35 65 109 105t178 40
q106 0 186 -44t80 -104t-49 -61q-29 0 -46 14t-38 49q-49 82 -135 82t-143 -76q-58 -76 -58 -249l4 -2q72 109 215 109t217 -68t74 -178z" />
    <glyph glyph-name="Japan1.7575" unicode="&#x2160;" 
d="M930 233v1055q0 110 -28 136t-154 26v70h559v-70q-127 0 -154 -25t-27 -137v-1055q0 -113 27 -137t154 -24v-72h-559v72q126 0 154 24t28 137z" />
    <glyph glyph-name="Japan1.7576" unicode="&#x2161;" 
d="M989 72h72q115 0 141 26t25 135v1055q0 110 -26 136t-140 26h-74q-115 0 -139 -26t-25 -136v-1055q1 -111 25 -136t141 -25zM1602 0h-1156v72q129 0 156 24t27 137v1055q0 114 -27 138t-153 24v70h1153v-70q-127 0 -154 -25t-27 -137v-1055q0 -113 27 -137t154 -24v-72z
" />
    <glyph glyph-name="Japan1.7577" unicode="&#x2162;" 
d="M1413 236v1052q1 110 -21 136t-123 26t-124 -26t-23 -136v-1052q0 -111 22 -138q22 -26 123 -26t124 25q22 26 22 139zM928 236v1052q0 106 -23 134t-123 28t-124 -26t-23 -136v-1052q-1 -111 21 -138q22 -26 123 -26t125 26t24 138zM268 0v72q119 0 146 24t26 140v1052
q0 110 -26 136t-146 26v70h1512v-70q-119 0 -145 -25t-25 -137v-1052q0 -115 26 -140t144 -24v-72h-1512z" />
    <glyph glyph-name="Japan1.7578" unicode="&#x2163;" 
d="M141 1520h899v-70q-68 0 -94 -13t-26 -45t22 -96l371 -1063h6l348 1061q23 68 23 101t-26 44t-89 11v70h346v-70q-61 0 -86 -22t-49 -95l-457 -1364h-119l-473 1336q-33 89 -57 117t-80 28t-76 -30t-20 -132v-1052q0 -115 26 -140t146 -24v-72h-535v72q121 0 147 24
t25 140v1052q1 114 -25 138t-147 24v70z" />
    <glyph glyph-name="Japan1.7579" unicode="&#x2164;" 
d="M1534 1392q0 34 -29 46t-94 12v70h367v-70q-66 0 -92 -22t-56 -97l-528 -1362h-123l-545 1334q-40 99 -66 123t-98 24v70h484v-70q-74 0 -105 -13t-31 -43t25 -100l440 -1093h7l419 1091q25 66 25 100z" />
    <glyph glyph-name="Japan1.7580" unicode="&#x2165;" 
d="M1903 72v-72h-553v72q126 0 154 24t28 137v1055q0 98 -20 129t-61 31q-42 0 -61 -25t-42 -90l-457 -1364h-119l-473 1336q-37 97 -61 121t-93 24v70h457v-70q-68 0 -94 -13t-27 -45q0 -32 23 -96l370 -1063h7l348 1061q23 68 23 101t-26 44t-89 11v70h764v-70
q-125 0 -152 -25t-27 -137v-1055q0 -113 27 -137t154 -24z" />
    <glyph glyph-name="Japan1.7581" unicode="&#x2166;" 
d="M1624 231v1059q0 98 -20 128t-85 30t-84 -29t-20 -129v-1059q-1 -100 19 -130q20 -29 84 -29t85 30q21 31 21 129zM1958 72v-72h-891v72q119 0 145 24t27 137v1057q0 98 -16 126q-15 28 -59 30t-61 -21t-36 -92l-360 -1364h-113l-381 1336q-29 97 -51 121t-88 24v70h424
v-70q-57 0 -80 -13t-23 -41t19 -106l278 -1016h6l258 1020q16 70 16 101t-22 43q-23 12 -78 12v70h1086v-70q-106 0 -132 -26t-26 -136v-1055q0 -111 26 -136t132 -25z" />
    <glyph glyph-name="Japan1.7582" unicode="&#x2167;" 
d="M1542 1292v-1063q0 -88 16 -123q16 -34 61 -34q46 0 60 34t15 123v1063q0 88 -16 123t-60 35t-60 -35t-16 -123zM1223 1292v-1063q0 -88 15 -123q15 -34 63 -34t64 33q15 34 15 124v1063q0 88 -16 123t-64 35t-62 -35q-15 -35 -15 -123zM465 1450q-94 0 -94 -52
q0 -26 18 -112l229 -975h7l215 983q14 56 14 94t-20 50t-76 12v70h1227v-70q-84 0 -106 -27t-21 -135v-1055q0 -111 22 -137t105 -24v-72h-1082v72q111 0 135 24t23 135v1061q0 90 -10 122t-50 34q-37 -8 -63 -113l-311 -1366h-99l-329 1338q-27 99 -47 121t-84 22v70h397
v-70z" />
    <glyph glyph-name="Japan1.7583" unicode="&#x2168;" 
d="M662 1450q-76 0 -101 -27t-24 -135v-1055q0 -102 20 -132q19 -29 69 -29t78 22t76 92l391 559l-311 553q-61 100 -91 126q-31 26 -107 26zM993 0h-819v72q120 0 146 24t26 140v1052q0 110 -27 136t-145 26v70h959v-70q-100 0 -101 -43q0 -33 53 -121l218 -373h6l272 390
q51 72 51 106q0 41 -104 41v70h362v-70q-46 0 -72 -19t-81 -96l-375 -532l332 -563q68 -115 104 -142t107 -26v-72h-480v72q102 0 103 41q0 31 -58 129l-237 393h-6l-291 -422q-51 -72 -51 -102q0 -39 108 -39v-72z" />
    <glyph glyph-name="Japan1.7584" unicode="&#x2169;" 
d="M539 109q0 -37 135 -37v-72h-438v72q55 0 89 20t97 92l502 570l-387 532q-86 116 -124 140t-126 24v70h549v-70q-127 0 -127 -41q0 -33 71 -127l285 -389h6l359 405q66 72 65 109q0 43 -133 43v70h428v-70q-51 0 -83 -19t-99 -94l-478 -536l422 -557q90 -115 136 -144
t122 -28v-72h-553v72q125 0 125 43q0 33 -73 129l-318 413h-8l-381 -446q-63 -72 -63 -102z" />
    <glyph glyph-name="Japan1.8225" unicode="&#x216a;" 
d="M1520 233v1055q0 106 -25 134t-99 28t-99 -22q-26 -22 -74 -93l-361 -532l320 -565q63 -106 97 -136q35 -30 113 -30t103 28t25 133zM1890 72v-72h-972v72q96 0 96 41q0 35 -53 129l-226 391h-6l-278 -420q-47 -68 -48 -100q0 -41 105 -41v-72h-367v72q49 0 77 20t79 96
l379 557l-303 553q-61 106 -91 129t-104 23v70h463v-70q-94 0 -94 -41q0 -31 51 -123l207 -371h4l260 388q51 78 51 106q0 41 -102 41v70h872v-70q-128 0 -154 -25t-26 -137v-1055q0 -113 26 -137t154 -24z" />
    <glyph glyph-name="Japan1.8226" unicode="&#x216b;" 
d="M1397 1290v-1059q0 -100 20 -130q19 -29 101 -29t101 28t19 131v1059q0 100 -19 129t-101 29t-102 -29t-19 -129zM1221 1290q1 94 -17 127t-62 33t-66 -23t-64 -96l-305 -526l270 -569q47 -98 77 -132t78 -32q48 0 69 31q19 32 20 128v1059zM1972 72v-72h-1241v72
q86 0 86 41q0 35 -47 129l-184 379h-4l-230 -408q-41 -72 -41 -100q0 -41 90 -41v-72h-327v72q46 0 68 19t71 99l317 551l-258 564q-50 101 -76 123t-92 22v70h416v-70q-80 0 -80 -41q0 -33 41 -121l172 -362h4l215 379q41 68 41 102q0 43 -86 43v70h1145v-70
q-106 0 -132 -26t-25 -136v-1055q-1 -111 25 -136t132 -25z" />
    <glyph glyph-name="Japan1.8092" unicode="&#x2170;" 
d="M1145 215q1 -104 23 -129t124 -25v-61h-483v61q106 0 130 25t24 131v608q0 103 -22 123t-132 23v59q160 16 315 96l21 -14v-897zM1041 1241q-49 0 -81 38t-32 100q0 63 32 101t82 38q49 0 81 -39t32 -101t-33 -99q-33 -38 -81 -38z" />
    <glyph glyph-name="Japan1.8093" unicode="&#x2171;" 
d="M1460 215q0 -104 23 -129t125 -25v-61h-484v61q106 0 130 25t24 131v606q0 103 -22 123t-132 23v61q160 16 316 96l20 -14v-897zM854 215q0 -104 23 -129t124 -25v-61h-483v61q106 0 130 25t24 131v606q0 103 -22 123t-132 23v61q164 16 316 96l20 -14v-897zM1243 1379
q0 63 33 101t83 38t81 -39q30 -39 30 -101t-32 -99q-32 -38 -81 -38q-48 0 -81 38t-33 100zM637 1379q0 63 33 101t83 38t81 -39q30 -39 30 -101t-33 -99q-33 -38 -81 -38t-80 38q-33 38 -33 100z" />
    <glyph glyph-name="Japan1.8094" unicode="&#x2172;" 
d="M1731 61v-61h-1354v61q100 0 122 25t21 131v608q0 105 -19 123t-124 21v61q158 18 301 96l22 -14v-899q0 -102 20 -127t113 -25q92 0 114 26t22 128v610q-1 105 -21 123t-125 21v61q162 20 301 96l23 -14v-899q0 -102 20 -127q21 -25 113 -25t114 25t21 129v610
q0 105 -19 123t-124 21v61q158 18 301 96l20 -14v-897q0 -104 22 -129t116 -25zM1493 1241q-49 0 -80 39t-31 99q0 61 32 99t81 38t80 -39t31 -99t-32 -99q-32 -38 -81 -38zM1044 1241q-48 0 -78 39t-30 99q0 61 32 99t80 38t78 -39q31 -39 31 -99t-32 -99q-32 -38 -81 -38z
M598 1241q-49 0 -80 39t-31 99q0 61 32 99t81 38t80 -39t31 -99t-32 -99q-32 -38 -81 -38z" />
    <glyph glyph-name="Japan1.8095" unicode="&#x2173;" 
d="M743 969v61h408v-61q-96 0 -96 -43q0 -25 18 -74l244 -637h4l258 672q12 37 12 47q0 35 -92 35v61h287v-61q-48 1 -68 -17t-47 -86l-358 -891h-74l-354 850q-39 98 -63 121t-79 23zM618 213q0 -104 22 -129t116 -25v-59h-461v59q100 0 123 25t22 131v610q0 105 -20 123
t-125 21v61q162 20 301 96l22 -14v-899zM520 1516q49 0 79 -39t30 -99t-31 -99q-31 -38 -79 -38t-80 38t-31 99q0 61 31 100q32 38 81 38z" />
    <glyph glyph-name="Japan1.8096" unicode="&#x2174;" 
d="M430 969v61h444v-61q-61 1 -87 -9q-25 -10 -25 -34t22 -74l297 -659h4l310 694q14 33 14 45q0 37 -100 37v61h307v-61q-51 1 -73 -17t-54 -86l-418 -891h-70l-407 850q-49 98 -75 121t-89 23z" />
    <glyph glyph-name="Japan1.8097" unicode="&#x2175;" 
d="M1761 61v-61h-458v61q99 0 121 25t22 131v610q0 101 -18 121t-86 20t-88 -16q-20 -18 -50 -86l-368 -891h-74l-365 850q-41 98 -64 121q-24 23 -81 23v61h416v-61q-100 0 -101 -43q0 -18 21 -74l254 -641h4l266 676q12 29 12 47q0 35 -92 35v61h281q150 20 291 96l20 -14
v-897q0 -104 22 -129t115 -25zM1524 1241q-49 0 -80 39t-31 99q0 61 32 99t81 38t80 -39q30 -39 30 -99t-32 -99q-32 -38 -80 -38z" />
    <glyph glyph-name="Japan1.8098" unicode="&#x2176;" 
d="M1948 61v-61h-867v61q100 0 123 25t23 131v610q-1 94 -19 118t-72 24q-54 1 -75 -19q-20 -20 -47 -84l-352 -891h-74l-346 850q-41 98 -65 121t-77 23v61h404v-61q-96 0 -96 -43q0 -18 20 -74l238 -633h4l252 668q12 41 12 47q0 35 -90 35v61h237q150 18 293 94l23 -12
v-899q0 -100 19 -126t100 -26t103 26t21 128v610q0 105 -20 123t-125 21v61q150 18 293 94l22 -12v-897q0 -104 22 -129t116 -25zM1712 1249q-47 0 -76 37q-28 37 -28 93t29 92q30 36 77 36t77 -36t30 -94t-31 -93t-78 -35zM1298 1249q-48 0 -76 37t-28 93t30 92t76 36
t77 -36q30 -36 30 -94t-31 -93t-78 -35z" />
    <glyph glyph-name="Japan1.8099" unicode="&#x2177;" 
d="M1974 0h-1104v61q98 0 122 25t24 129v616q0 90 -14 114t-53 24q-40 -1 -58 -21t-39 -82l-289 -891h-71l-287 850q-31 96 -52 120q-22 24 -67 24v61h369v-61q-47 0 -65 -8q-18 -9 -19 -31q0 -22 16 -78l182 -598h4l191 633q10 31 10 47q0 35 -80 35v61h203q121 16 252 94
l20 -12v-901q1 -90 19 -120t71 -30t72 30q18 30 19 122v614q0 103 -16 121t-101 21v61q117 16 250 94l20 -12v-901q1 -90 19 -120t70 -30t72 30q19 30 19 122v614q0 103 -16 121t-100 21v61q113 16 250 94l18 -12v-899q0 -102 23 -127t116 -25v-61zM1746 1251q-44 0 -70 36
t-26 91t27 89t72 34t71 -36t26 -91t-28 -89t-72 -34zM1414 1251q-44 0 -70 36t-25 91q0 55 27 89q28 34 72 34t70 -35t26 -91t-28 -90t-72 -34zM1080 1251q-44 0 -70 36t-25 91q0 55 27 89q28 34 72 34t70 -36t26 -91t-28 -89t-72 -34z" />
    <glyph glyph-name="Japan1.8100" unicode="&#x2178;" 
d="M1784 61v-61h-422v61q84 0 84 33q0 16 -33 70l-176 272h-4l-213 -295q-25 -31 -25 -47q0 -33 88 -33v-61h-774v61q100 0 123 25t23 129v610q-1 105 -21 123t-125 21v61q158 18 301 96l21 -14v-899q-1 -100 21 -126t84 -26q62 1 96 21q32 20 73 72l277 360l-234 346
q-49 74 -77 91t-74 18v61h415v-61q-86 0 -86 -33q0 -20 35 -72l150 -229h6l184 239q31 39 31 62q0 33 -78 33v61h309v-61q-39 1 -65 -17t-72 -71l-260 -326l260 -385q51 -72 82 -90t76 -19zM530 1241q-48 0 -78 39t-30 99q0 61 32 99t80 38t78 -39q31 -39 31 -99t-32 -99
q-32 -38 -81 -38z" />
    <glyph glyph-name="Japan1.8101" unicode="&#x2179;" 
d="M805 61v-61h-361v61q45 -1 80 19t82 74l322 362l-273 344q-53 72 -85 89t-83 20v61h457v-61q-100 0 -100 -33q0 -23 43 -72l180 -239h6l221 252q37 37 37 59q0 33 -90 33v61h346v-61q-43 -1 -73 -19t-84 -71l-304 -326l304 -383q59 -72 93 -90t81 -19v-61h-459v61
q92 0 92 33q0 20 -39 72l-211 278h-4l-252 -301q-27 -27 -26 -47q0 -35 100 -35z" />
    <glyph glyph-name="Japan1.8298" unicode="&#x217a;" 
d="M1776 61v-61h-885v61q84 0 84 33q0 25 -33 70l-182 274h-4l-219 -297q-25 -29 -25 -47q0 -33 88 -33v-61h-330v61q72 0 148 93l287 360l-242 346q-49 72 -79 90t-77 19v61h426v-61q-90 0 -90 -33q0 -23 37 -72l156 -231h6l190 241q33 43 33 64q0 31 -80 31v61h303v-61
q-49 0 -127 -88l-270 -326l270 -385q51 -70 82 -89t72 -20q100 0 124 25t23 129v612q0 101 -17 121t-104 21v61q143 20 277 96l20 -14v-897q0 -104 22 -129t116 -25zM1538 1241q-49 0 -79 39q-29 39 -29 99t31 99q32 38 80 38t79 -39t31 -99t-32 -99q-32 -38 -81 -38z" />
    <glyph glyph-name="Japan1.8299" unicode="&#x217b;" 
d="M1714 1249q-47 0 -76 36q-28 36 -28 94t29 94q30 35 77 35t76 -37q29 -36 29 -94t-30 -93t-77 -35zM1288 1249q-47 0 -76 37q-28 37 -28 93t29 92q30 36 77 36t76 -36t29 -94t-30 -93t-77 -35zM1214 215v612q0 98 -19 120t-83 22q-64 -1 -92 -19t-70 -69l-256 -326
l256 -385q49 -70 78 -89q28 -19 88 -19t79 26q19 27 19 127zM1948 59v-59h-1260v61q84 0 84 31q0 18 -33 72l-172 272h-4l-211 -295q-20 -29 -20 -47q0 -33 86 -33v-61h-320v61q68 0 144 93l270 360l-231 346q-45 74 -73 91t-75 18v61h412v-61q-86 0 -86 -33q0 -20 35 -72
l147 -229h4l180 239q33 43 33 64q0 31 -78 31v61h291q145 18 293 94l22 -12v-899q0 -100 20 -126t105 -26q86 0 108 26t21 128v610q0 105 -19 123t-124 21v61q150 18 293 94l20 -12v-899q0 -104 22 -129t116 -25z" />
    <glyph glyph-name="Japan1.9780" unicode="&#x2189;" 
d="M1249 539q-49 0 -49 57q0 58 81 110t227 52t212 -56q68 -56 68 -127t-55 -117t-168 -59v-4q119 -6 189 -61t71 -142q0 -87 -91 -152q-90 -65 -238 -65q-148 1 -231 53t-83 112t53 61q35 0 59 -33q58 -74 98 -102t90 -27q50 0 88 11t72 48t33 99q0 163 -276 163v64
q67 0 117 11t89 49q37 38 37 96t-50 87q-50 28 -105 27q-109 0 -154 -94q-14 -25 -21 -34q-21 -27 -63 -27zM1563 1511l-977 -1536h-109l979 1536h107zM758 1120q0 328 -194 328t-194 -328t195 -327q86 0 140 78q53 79 53 249zM561 729q-158 0 -250 97q-37 40 -63 116
q-27 76 -27 178q0 178 84 284t250 107q166 0 259 -96t93 -291t-94 -295t-252 -100z" />
    <glyph glyph-name="Japan1.7555" unicode="&#x2460;" 
d="M1122 410q0 -88 29 -108t164 -19v-64h-555v64q141 0 172 19t31 108v686q0 96 -39 96q-32 0 -138 -35l-18 60q188 63 332 147l22 -12v-942zM1024 1675q-373 0 -635 -263t-262 -634q0 -244 120 -450q121 -206 327 -327q206 -120 450 -120t451 120t326 327q120 206 120 450
t-120 451q-121 207 -327 327t-450 119zM1024 1731q195 0 372 -76t304 -204t202 -304q74 -176 74 -370q0 -193 -76 -369q-153 -355 -505 -506q-176 -76 -371 -76t-371 76q-354 153 -506 506q-75 176 -75 370t75 371q153 353 506 506q176 76 371 76z" />
    <glyph glyph-name="Japan1.7556" unicode="&#x2461;" 
d="M1233 1108q-1 96 -61 147t-154 52q-160 0 -205 -174q-18 -78 -90 -78q-25 0 -42 19t-17 50t17 68q48 104 169 149q76 29 176 29q186 0 282 -83t97 -202q0 -168 -184 -288q-258 -174 -281 -193q-139 -111 -188 -268h438q80 0 106 24t54 123l65 -6l-51 -256h-711l-22 25
q63 254 186 387q63 69 109 105t130 92t131 119q46 63 46 159zM1024 1675q-373 0 -635 -263t-262 -634q0 -244 120 -450q121 -206 327 -327q206 -120 450 -120t451 120t326 327q120 206 120 450t-120 451q-121 207 -327 327t-450 119zM1024 1731q195 0 372 -76t304 -204
t202 -304q74 -176 74 -370q0 -193 -76 -369q-153 -355 -505 -506q-176 -76 -371 -76t-371 76q-354 153 -506 506q-75 176 -75 370t75 371q153 353 506 506q176 76 371 76z" />
    <glyph glyph-name="Japan1.7557" unicode="&#x2462;" 
d="M885 799v61q209 0 291 124q33 50 32 118q0 113 -64 158t-136 45t-125 -40q-53 -41 -77 -99t-40 -77t-55 -20q-59 0 -59 77q0 76 98 150t270 74t263 -77t91 -182t-70 -179t-225 -92v-6q141 -4 243 -82t101 -215q0 -137 -105 -239q-104 -102 -294 -101q-190 0 -295 74
q-104 75 -104 155t63 80q43 0 70 -45q68 -98 71 -103q70 -96 179 -96q74 0 150 45q42 25 69 82t27 129t-22 122t-60 78q-82 60 -167 71q-85 10 -120 10zM1024 1675q-373 0 -635 -263t-262 -634q0 -244 120 -450q121 -206 327 -327q206 -120 450 -120t451 120t326 327
q120 206 120 450t-120 451q-121 207 -327 327t-450 119zM1024 1731q195 0 372 -76t304 -204t202 -304q74 -176 74 -370q0 -193 -76 -369q-153 -355 -505 -506q-176 -76 -371 -76t-371 76q-354 153 -506 506q-75 176 -75 370t75 371q153 353 506 506q176 76 371 76z" />
    <glyph glyph-name="Japan1.7558" unicode="&#x2463;" 
d="M1065 608v434q0 47 4 154h-6q-9 -14 -39 -64t-55 -85l-291 -439h387zM1065 532h-492v56l525 782h129v-762h145l-12 -76h-133v-122q0 -84 19 -106t108 -21v-64h-436v64q102 0 124 20t23 109v120zM1024 1675q-373 0 -635 -263t-262 -634q0 -244 120 -450q121 -206 327 -327
q206 -120 450 -120t451 120t326 327q120 206 120 450t-120 451q-121 207 -327 327t-450 119zM1024 1731q195 0 372 -76t304 -204t202 -304q74 -176 74 -370q0 -193 -76 -369q-153 -355 -505 -506q-176 -76 -371 -76t-371 76q-354 153 -506 506q-75 176 -75 370t75 371
q153 353 506 506q176 76 371 76z" />
    <glyph glyph-name="Japan1.7559" unicode="&#x2464;" 
d="M1221 1350q47 0 61 5t23 21h59l-39 -141h-465l-59 -340l4 -2q89 68 211 68q298 0 369 -240q17 -57 18 -119q0 -174 -101 -290t-305 -115q-150 1 -251 75t-101 152t79 80q38 0 62 -53q27 -68 82 -134q49 -53 136 -53q119 0 174 94t55 234q0 301 -236 301q-147 0 -233 -123
l-62 18l80 562h439zM1024 1675q-373 0 -635 -263t-262 -634q0 -244 120 -450q121 -206 327 -327q206 -120 450 -120t451 120t326 327q120 206 120 450t-120 451q-121 207 -327 327t-450 119zM1024 1731q195 0 372 -76t304 -204t202 -304q74 -176 74 -370q0 -193 -76 -369
q-153 -355 -505 -506q-176 -76 -371 -76t-371 76q-354 153 -506 506q-75 176 -75 370t75 371q153 353 506 506q176 76 371 76z" />
    <glyph glyph-name="Japan1.7560" unicode="&#x2465;" 
d="M1260 578q0 76 -38 170q-22 52 -71 84t-119 32q-104 0 -172 -72t-67 -171q0 -145 61 -251t176 -108q114 0 172 90t58 226zM784 786h4q94 150 270 150t274 -102t98 -247t-85 -259q-44 -60 -125 -96t-190 -35q-186 0 -299 138t-113 440t136 466q111 129 282 129
q172 0 254 -68t82 -141q0 -74 -59 -74q-35 -1 -53 19t-39 68q-49 131 -179 131q-82 1 -138 -57q-90 -92 -111 -315q-9 -73 -9 -147zM1024 1675q-373 0 -635 -263t-262 -634q0 -244 120 -450q121 -206 327 -327q206 -120 450 -120t451 120t326 327q120 206 120 450t-120 451
q-121 207 -327 327t-450 119zM1024 1731q195 0 372 -76t304 -204t202 -304q74 -176 74 -370q0 -193 -76 -369q-153 -355 -505 -506q-176 -76 -371 -76t-371 76q-354 153 -506 506q-75 176 -75 370t75 371q153 353 506 506q176 76 371 76z" />
    <glyph glyph-name="Japan1.7561" unicode="&#x2466;" 
d="M879 1235q-86 0 -115 -24t-55 -117h-70l55 256h736l18 -33q-391 -477 -410 -1114h-184q10 279 131 552t299 480h-405zM1024 1675q-373 0 -635 -263t-262 -634q0 -244 120 -450q121 -206 327 -327q206 -120 450 -120t451 120t326 327q120 206 120 450t-120 451
q-121 207 -327 327t-450 119zM1024 1731q195 0 372 -76t304 -204t202 -304q74 -176 74 -370q0 -193 -76 -369q-153 -355 -505 -506q-176 -76 -371 -76t-371 76q-354 153 -506 506q-75 176 -75 370t75 371q153 353 506 506q176 76 371 76z" />
    <glyph glyph-name="Japan1.7562" unicode="&#x2467;" 
d="M1024 1675q-373 0 -635 -263t-262 -634q0 -244 120 -450q121 -206 327 -327q206 -120 450 -120t451 120t326 327q120 206 120 450t-120 451q-121 207 -327 327t-450 119zM1024 1731q195 0 372 -76t304 -204t202 -304q74 -176 74 -370q0 -193 -76 -369
q-153 -355 -505 -506q-176 -76 -371 -76t-371 76q-354 153 -506 506q-75 176 -75 370t75 371q153 353 506 506q176 76 371 76zM766 508q0 -108 68 -176t183 -68q117 0 181 60t64 169q0 108 -116 178q-82 50 -183 87q-197 -82 -197 -250zM1057 883q184 74 184 209
q0 65 -35 127q-46 86 -198 86q-80 1 -144 -47t-63 -136q0 -147 256 -239zM1434 522q0 -139 -106 -232t-296 -93t-304 82t-114 231q0 52 31 109q60 110 227 180v4q-223 111 -223 295q0 116 95 194q94 78 276 78t277 -75t96 -191q0 -168 -238 -258v-2q131 -54 205 -144
t74 -178z" />
    <glyph glyph-name="Japan1.7563" unicode="&#x2468;" 
d="M788 993q0 -76 33 -167q45 -122 209 -122q88 0 157 72t69 194t-63 228q-61 106 -169 106t-172 -80q-64 -81 -64 -231zM979 635q-102 0 -177 35t-113 90q-71 103 -72 239t88 247q45 56 125 90t188 34q180 0 296 -136t116 -402t-92 -442q-102 -193 -364 -193
q-140 1 -232 69q-91 68 -91 143t62 74q35 0 53 -17t43 -75q25 -59 63 -93t121 -34q211 0 260 341q13 83 13 175l-6 2q-92 -147 -281 -147zM1024 1675q-373 0 -635 -263t-262 -634q0 -244 120 -450q121 -206 327 -327q206 -120 450 -120t451 120t326 327q120 206 120 450
t-120 451q-121 207 -327 327t-450 119zM1024 1731q195 0 372 -76t304 -204t202 -304q74 -176 74 -370q0 -193 -76 -369q-153 -355 -505 -506q-176 -76 -371 -76t-371 76q-354 153 -506 506q-75 176 -75 370t75 371q153 353 506 506q176 76 371 76z" />
    <glyph glyph-name="Japan1.7564" unicode="&#x2469;" 
d="M719 420q0 -86 22 -105q23 -18 127 -18v-64h-452v64q110 0 134 18t23 105v670q0 53 -7 73q-6 21 -28 21t-108 -35l-18 59q164 63 286 144l21 -13v-919zM1326 1294q-64 0 -105 -55q-68 -99 -68 -405t35 -434t135 -128q70 0 109 62q66 100 65 454q0 354 -70 451
q-37 55 -101 55zM1325 211q-133 0 -215 94q-115 129 -115 461t88 465q35 53 97 89t145 36q330 0 330 -565q0 -356 -115 -486q-82 -94 -215 -94zM1024 1675q-373 0 -635 -263t-262 -634q0 -244 120 -450q121 -206 327 -327q206 -120 450 -120t451 120t326 327
q120 206 120 450t-120 451q-121 207 -327 327t-450 119zM1024 1731q195 0 372 -76t304 -204t202 -304q74 -176 74 -370q0 -193 -76 -369q-153 -355 -505 -506q-176 -76 -371 -76t-371 76q-354 153 -506 506q-75 176 -75 370t75 371q153 353 506 506q176 76 371 76z" />
    <glyph glyph-name="Japan1.7565" unicode="&#x246a;" 
d="M1462 420q0 -84 24 -104t128 -19v-64h-453v64q109 0 133 18t23 105v670q0 53 -7 73q-8 21 -28 21t-106 -35l-21 59q166 63 287 144l20 -13v-919zM743 420q0 -86 23 -104t127 -19v-64h-453v64q110 0 134 18t24 105v670q0 53 -7 73q-7 21 -29 21t-107 -35l-19 59
q164 63 287 144l20 -13v-919zM1024 1675q-373 0 -635 -263t-262 -634q0 -244 120 -450q121 -206 327 -327q206 -120 450 -120t451 120t326 327q120 206 120 450t-120 451q-121 207 -327 327t-450 119zM1024 1731q195 0 372 -76t304 -204t202 -304q74 -176 74 -370
q0 -193 -76 -369q-153 -355 -505 -506q-176 -76 -371 -76t-371 76q-354 153 -506 506q-75 176 -75 370t75 371q153 353 506 506q176 76 371 76z" />
    <glyph glyph-name="Japan1.7566" unicode="&#x246b;" 
d="M713 420q0 -86 22 -105q23 -18 127 -18v-64h-452v64q108 0 132 18t23 105v670q0 53 -6 73q-7 21 -27 21t-108 -35l-18 59q166 63 284 144l23 -13v-919zM1456 1090q0 205 -149 204q-117 0 -148 -164q-10 -66 -69 -65q-58 0 -58 74q0 73 70 145t228 72t229 -102
q55 -82 55 -175q0 -125 -115 -258q-39 -43 -118 -113t-105 -96q-115 -125 -154 -272h297q69 0 91 24t44 113l66 -6l-43 -238h-533l-26 27q42 266 232 479q34 39 83 90q123 123 123 261zM1024 1675q-373 0 -635 -263t-262 -634q0 -244 120 -450q121 -206 327 -327
q206 -120 450 -120t451 120t326 327q120 206 120 450t-120 451q-121 207 -327 327t-450 119zM1024 1731q195 0 372 -76t304 -204t202 -304q74 -176 74 -370q0 -193 -76 -369q-153 -355 -505 -506q-176 -76 -371 -76t-371 76q-354 153 -506 506q-75 176 -75 370t75 371
q153 353 506 506q176 76 371 76z" />
    <glyph glyph-name="Japan1.7567" unicode="&#x246c;" 
d="M715 420q0 -86 22 -105q23 -18 127 -18v-64h-452v64q110 0 134 18t23 105v670q0 53 -7 73q-6 21 -28 21t-108 -35l-18 59q164 63 286 144l21 -13v-919zM1206 803v55q53 0 117 29q65 29 98 82t33 129t-38 136t-105 60q-106 0 -142 -145q-10 -43 -25 -63t-50 -19
q-58 0 -58 74q0 75 74 145t205 70q80 0 138 -25t96 -67t54 -130q3 -24 3 -47q0 -93 -67 -163t-179 -84v-6q115 -6 200 -83t85 -201t-70 -223q-37 -52 -106 -84t-160 -32q-143 0 -218 72q-75 71 -75 147t61 76q37 0 58 -37q4 -8 18 -42t25 -52q49 -101 130 -101t130 62
t49 195q0 132 -74 202t-207 70zM1024 1675q-373 0 -635 -263t-262 -634q0 -244 120 -450q121 -206 327 -327q206 -120 450 -120t451 120t326 327q120 206 120 450t-120 451q-121 207 -327 327t-450 119zM1024 1731q195 0 372 -76t304 -204t202 -304q74 -176 74 -370
q0 -193 -76 -369q-153 -355 -505 -506q-176 -76 -371 -76t-371 76q-354 153 -506 506q-75 176 -75 370t75 371q153 353 506 506q176 76 371 76z" />
    <glyph glyph-name="Japan1.7568" unicode="&#x246d;" 
d="M713 420q0 -86 22 -105q23 -18 127 -18v-64h-452v64q108 0 132 18t23 105v670q0 53 -6 73q-7 21 -27 21t-108 -35l-18 59q166 63 284 144l23 -13v-919zM1329 606v430q0 61 4 135h-4q-45 -108 -63 -141l-211 -424h274zM1329 537h-368v51l401 764h117v-746h133l-13 -69
h-120v-121q0 -82 18 -102t98 -21v-60h-397v60q92 0 112 19q19 19 19 104v121zM1024 1675q-373 0 -635 -263t-262 -634q0 -244 120 -450q121 -206 327 -327q206 -120 450 -120t451 120t326 327q120 206 120 450t-120 451q-121 207 -327 327t-450 119zM1024 1731
q195 0 372 -76t304 -204t202 -304q74 -176 74 -370q0 -193 -76 -369q-153 -355 -505 -506q-176 -76 -371 -76t-371 76q-354 153 -506 506q-75 176 -75 370t75 371q153 353 506 506q176 76 371 76z" />
    <glyph glyph-name="Japan1.7569" unicode="&#x246e;" 
d="M713 420q0 -86 22 -105q23 -18 127 -18v-64h-452v64q108 0 132 18t23 105v670q0 53 -6 73q-7 21 -27 21t-108 -35l-18 59q166 63 284 144l23 -13v-919zM1438 1337q45 0 58 5t20 22h53l-33 -133h-340l-45 -328l4 -2q66 55 162 55q129 0 206 -91t77 -246t-60 -269
q-74 -139 -272 -139q-106 0 -178 67q-74 67 -74 140q0 80 70 82q34 0 51 -41q18 -61 55 -131q34 -54 100 -54t108 80t42 240q0 297 -156 297q-100 0 -170 -117l-59 17l67 546h314zM1024 1675q-373 0 -635 -263t-262 -634q0 -244 120 -450q121 -206 327 -327
q206 -120 450 -120t451 120t326 327q120 206 120 450t-120 451q-121 207 -327 327t-450 119zM1024 1731q195 0 372 -76t304 -204t202 -304q74 -176 74 -370q0 -193 -76 -369q-153 -355 -505 -506q-176 -76 -371 -76t-371 76q-354 153 -506 506q-75 176 -75 370t75 371
q153 353 506 506q176 76 371 76z" />
    <glyph glyph-name="Japan1.7570" unicode="&#x246f;" 
d="M713 420q0 -86 22 -105q23 -18 127 -18v-64h-452v64q108 0 132 18t23 105v670q0 53 -6 73q-7 21 -27 21t-108 -35l-18 59q166 63 284 144l23 -13v-919zM1495 578q0 104 -40 192t-114 88q-73 0 -121 -68t-48 -190q0 -120 41 -224q42 -104 124 -104q158 1 158 306z
M1167 799h4q68 127 200 127t207 -102t75 -250t-78 -256t-240 -107q-322 0 -321 545q0 319 108 477q82 123 236 123q125 0 187 -66q63 -66 63 -136t-56 -71q-31 -1 -48 17t-29 66t-42 88t-81 40t-89 -47t-62 -128q-34 -111 -34 -320zM1024 1675q-373 0 -635 -263t-262 -634
q0 -244 120 -450q121 -206 327 -327q206 -120 450 -120t451 120t326 327q120 206 120 450t-120 451q-121 207 -327 327t-450 119zM1024 1731q195 0 372 -76t304 -204t202 -304q74 -176 74 -370q0 -193 -76 -369q-153 -355 -505 -506q-176 -76 -371 -76t-371 76
q-354 153 -506 506q-75 176 -75 370t75 371q153 353 506 506q176 76 371 76z" />
    <glyph glyph-name="Japan1.7571" unicode="&#x2470;" 
d="M1141 215q0 262 111 545q112 283 241 471h-281q-80 0 -106 -24t-49 -117h-68l47 247h568l24 -34q-117 -166 -217 -457t-104 -631h-166zM709 420q0 -86 22 -105q23 -18 127 -18v-64h-452v64q110 0 134 18t23 105v670q0 53 -7 73q-8 21 -28 21t-108 -35l-19 59
q164 63 287 144l21 -13v-919zM1024 1675q-373 0 -635 -263t-262 -634q0 -244 120 -450q121 -206 327 -327q206 -120 450 -120t451 120t326 327q120 206 120 450t-120 451q-121 207 -327 327t-450 119zM1024 1731q195 0 372 -76t304 -204t202 -304q74 -176 74 -370
q0 -193 -76 -369q-153 -355 -505 -506q-176 -76 -371 -76t-371 76q-354 153 -506 506q-75 176 -75 370t75 371q153 353 506 506q176 76 371 76z" />
    <glyph glyph-name="Japan1.7572" unicode="&#x2471;" 
d="M563 420v670q0 53 -7 73q-8 21 -28 21t-108 -35l-19 59q164 63 287 144l21 -13v-919q0 -86 22 -105q23 -18 127 -18v-64h-452v64q111 1 134 19t23 104zM1024 1675q-373 0 -635 -263t-262 -634q0 -244 120 -450q121 -206 327 -327q206 -120 450 -120t451 120t326 327
q120 206 120 450t-120 451q-121 207 -327 327t-450 119zM1024 1731q195 0 372 -76t304 -204t202 -304q74 -176 74 -370q0 -193 -76 -369q-153 -355 -505 -506q-176 -76 -371 -76t-371 76q-354 153 -506 506q-75 176 -75 370t75 371q153 353 506 506q176 76 371 76zM1139 514
q0 -108 49 -174t134 -66t126 66t41 149q0 160 -211 267q-139 -72 -139 -242zM1322 1294q-64 0 -112 -44t-47 -136q0 -156 183 -240q78 46 106 98t27 138q0 86 -46 135q-47 49 -111 49zM1622 1094q0 -161 -199 -254v-2q225 -137 226 -314q0 -91 -59 -191q-32 -54 -102 -88
t-167 -34q-158 0 -242 85t-84 220q0 68 48 147t159 130v4q-180 113 -180 293q0 102 72 184t222 82t228 -69t78 -193z" />
    <glyph glyph-name="Japan1.7573" unicode="&#x2472;" 
d="M567 420v670q0 53 -7 73q-8 21 -28 21t-106 -35l-20 59q166 63 286 144l21 -13v-919q0 -84 23 -104q24 -19 128 -19v-64h-452v64q109 1 132 19t23 104zM1178 989q0 -149 64 -230q38 -48 99 -48t111 66q49 67 49 189t-42 226q-42 102 -122 102q-159 0 -159 -305zM1509 770
h-6q-68 -129 -203 -129q-136 0 -208 103t-72 250q0 146 80 254t232 108t242 -133t89 -425q0 -292 -102 -454q-84 -133 -246 -133q-131 -1 -199 65t-68 139t56 72q33 0 49 -16t31 -61q33 -135 133 -136q192 0 192 496zM1024 1675q-373 0 -635 -263t-262 -634q0 -244 120 -450
q121 -206 327 -327q206 -120 450 -120t451 120t326 327q120 206 120 450t-120 451q-121 207 -327 327t-450 119zM1024 1731q195 0 372 -76t304 -204t202 -304q74 -176 74 -370q0 -193 -76 -369q-153 -355 -505 -506q-176 -76 -371 -76t-371 76q-354 153 -506 506
q-75 176 -75 370t75 371q153 353 506 506q176 76 371 76z" />
    <glyph glyph-name="Japan1.7574" unicode="&#x2473;" 
d="M801 1090q0 205 -148 204q-123 0 -147 -164q-10 -66 -72 -65q-55 0 -55 77q0 78 73 146t207 68q175 0 244 -102q55 -82 55 -175q0 -127 -112 -258q-39 -43 -117 -111t-106 -98q-119 -125 -154 -272h295q68 0 92 24t45 113l64 -6l-41 -238h-535l-24 27q39 289 313 569
q123 119 123 261zM1395 1294q-61 0 -101 -55q-70 -101 -70 -453t66 -452q41 -61 107 -62q102 0 137 126t35 386t-36 385t-138 125zM1397 211q-330 1 -330 573t330 572q194 0 267 -170q63 -143 65 -395q0 -354 -117 -486q-82 -94 -215 -94zM1013 1675q-372 0 -634 -263
t-262 -635t263 -634t634 -262t634 262t263 635t-263 635t-635 262zM1014 1731q196 0 372 -76q356 -153 505 -508q75 -176 75 -370q0 -193 -76 -369q-154 -357 -506 -506q-176 -76 -370 -76q-258 0 -478 127t-349 347q-128 220 -128 478t128 478q129 220 349 348t478 127z
" />
    <glyph glyph-name="Japan1.8071" unicode="&#x2474;" 
d="M1118 293q0 -109 29 -135t160 -25v-67h-566v67q137 0 167 26t30 134v895q0 63 -10 90t-38 27t-138 -39l-15 67q205 76 357 174l24 -14v-1200zM1976 780q0 -616 -309 -962l-45 28q119 178 175 386t56 546t-56 546t-175 386l45 29q309 -343 309 -959zM72 777q0 615 309 962
l45 -29q-119 -178 -175 -386t-56 -546t56 -546t175 -386l-45 -28q-309 344 -309 959z" />
    <glyph glyph-name="Japan1.8072" unicode="&#x2475;" 
d="M1016 1438q-215 0 -277 -221q-14 -45 -36 -63t-58 -17q-67 0 -67 95t119 191q120 97 340 97t335 -106t115 -255q0 -77 -40 -151t-82 -115t-112 -100q-39 -29 -166 -117t-180 -135q-160 -131 -225 -338h551q98 1 131 31t68 157l73 -10l-61 -315h-875l-28 32
q98 423 391 638q44 34 146 102t160 146q58 79 58 178t-45 176q-59 100 -235 100zM1976 780q0 -616 -309 -962l-45 28q119 178 175 386t56 546t-56 546t-175 386l45 29q309 -343 309 -959zM72 777q0 615 309 962l45 -29q-119 -178 -175 -386t-56 -546t56 -546t175 -386
l-45 -28q-309 344 -309 959z" />
    <glyph glyph-name="Japan1.8073" unicode="&#x2476;" 
d="M860 799v75q83 0 162 22t128 54q120 78 120 248q0 96 -71 168t-181 72t-177 -54t-93 -124t-47 -95q-22 -25 -66 -24q-70 0 -70 94t126 189q126 96 330 96q205 0 319 -98t114 -233q0 -136 -92 -228t-268 -113v-4q146 -8 277 -94q65 -43 104 -118t38 -171q0 -170 -129 -297
t-366 -127t-362 98q-124 99 -124 193t76 94q47 0 82 -57q61 -100 94 -134q82 -115 224 -114q115 0 209 68q49 36 78 106q30 70 30 164q0 182 -131 263t-334 81zM1976 780q0 -616 -309 -962l-45 28q119 178 175 386t56 546t-56 546t-175 386l45 29q309 -343 309 -959zM72 777
q0 615 309 962l45 -29q-119 -178 -175 -386t-56 -546t56 -546t175 -386l-45 -28q-309 344 -309 959z" />
    <glyph glyph-name="Japan1.8074" unicode="&#x2477;" 
d="M1976 780q0 -616 -309 -962l-45 28q119 178 175 386t56 546t-56 546t-175 386l45 29q309 -343 309 -959zM72 777q0 615 309 962l45 -29q-119 -178 -175 -386t-56 -546t56 -546t175 -386l-45 -28q-309 344 -309 959zM1139 549v555q0 90 6 194h-10q-10 -14 -47 -80
t-66 -106l-356 -563h473zM1139 457h-598v67l639 989h139v-964h178l-14 -92h-164v-164q1 -106 25 -133t129 -27v-67h-517v67q127 0 155 27t28 133v164z" />
    <glyph glyph-name="Japan1.8075" unicode="&#x2478;" 
d="M1280 1493q57 0 75 6q17 6 27 29h68l-45 -172h-588l-72 -445l3 -2q123 90 294 90q233 0 343 -133t110 -319q0 -236 -129 -373t-362 -137q-188 0 -313 94q-124 94 -124 195q0 46 23 70t55 24q51 0 88 -68q86 -236 277 -235q119 0 207 98t88 320q0 381 -301 380
q-193 0 -299 -153l-70 20l100 711h545zM1976 780q0 -616 -309 -962l-45 28q119 178 175 386t56 546t-56 546t-175 386l45 29q309 -343 309 -959zM72 777q0 615 309 962l45 -29q-119 -178 -175 -386t-56 -546t56 -546t175 -386l-45 -28q-309 344 -309 959z" />
    <glyph glyph-name="Japan1.8076" unicode="&#x2479;" 
d="M1976 780q0 -616 -309 -962l-45 28q119 178 175 386t56 546t-56 546t-175 386l45 29q309 -343 309 -959zM72 777q0 615 309 962l45 -29q-119 -178 -175 -386t-56 -546t56 -546t175 -386l-45 -28q-309 344 -309 959zM1327 522q0 95 -47 213q-27 68 -91 111q-65 43 -157 43
q-131 0 -220 -90t-89 -224q0 -180 81 -317t216 -137q135 -1 221 105t86 296zM1349 1436q101 -88 101 -176t-72 -89q-36 0 -60 24q-22 24 -46 83q-55 166 -228 166q-86 0 -152 -55t-104 -149q-77 -187 -77 -460h8q123 197 340 197t337 -127t120 -308t-100 -330
q-52 -77 -152 -123t-236 -46q-225 0 -363 174q-139 174 -139 552t167 591q59 74 151 119t207 45q197 0 298 -88z" />
    <glyph glyph-name="Japan1.8077" unicode="&#x247a;" 
d="M825 1360q-106 0 -139 -29t-65 -149h-80l63 315h885l22 -37q-268 -340 -393 -749q-104 -313 -112 -662h-201q6 203 59 410t136 378q155 320 321 523h-496zM1976 780q0 -616 -309 -962l-45 28q119 178 175 386t56 546t-56 546t-175 386l45 29q309 -343 309 -959zM72 777
q0 615 309 962l45 -29q-119 -178 -175 -386t-56 -546t56 -546t175 -386l-45 -28q-309 344 -309 959z" />
    <glyph glyph-name="Japan1.8078" unicode="&#x247b;" 
d="M1976 780q0 -616 -309 -962l-45 28q119 178 175 386t56 546t-56 546t-175 386l45 29q309 -343 309 -959zM72 777q0 615 309 962l45 -29q-119 -178 -175 -386t-56 -546t56 -546t175 -386l-45 -28q-309 344 -309 959zM694 434q0 -145 90 -228t231 -83q140 0 226 77t86 212
q0 213 -379 344q-254 -98 -254 -322zM1014 1444q-145 0 -212 -71t-67 -147q0 -137 96 -207t230 -116q127 51 182 117t55 159t-49 170q-27 43 -88 69t-147 26zM1024 43q-229 0 -366 105q-136 105 -136 290q0 110 82 208t238 159v4q-276 137 -277 373q0 143 117 242
q117 100 335 100t335 -94t116 -244q0 -219 -290 -324v-6q145 -57 243 -166t99 -237q0 -182 -134 -296t-362 -114z" />
    <glyph glyph-name="Japan1.8079" unicode="&#x247c;" 
d="M1976 780q0 -616 -309 -962l-45 28q119 178 175 386t56 546t-56 546t-175 386l45 29q309 -343 309 -959zM72 777q0 615 309 962l45 -29q-119 -178 -175 -386t-56 -546t56 -546t175 -386l-45 -28q-309 344 -309 959zM1319 997q0 177 -82 313t-220 136t-220 -106t-82 -291
q0 -118 53 -233q29 -62 92 -100t152 -38q131 0 219 94t88 225zM1331 786h-6q-119 -194 -340 -194t-341 127t-120 327t126 339t356 139t369 -174q141 -174 141 -505t-110 -552q-58 -117 -166 -183t-255 -67q-207 0 -315 88t-107 177q0 89 70 89q39 0 61 -20t51 -84
q63 -170 240 -170q92 0 161 54t102 128q83 181 83 481z" />
    <glyph glyph-name="Japan1.8080" unicode="&#x247d;" 
d="M735 287q0 -109 22 -133t122 -23v-63h-447v63q102 0 125 24t23 132v915q0 115 -43 115q-31 0 -101 -43l-18 59q182 90 295 176l22 -14v-1208zM1976 780q0 -616 -309 -962l-45 28q119 178 175 386t56 546t-56 546t-175 386l45 29q309 -343 309 -959zM72 777q0 615 309 962
l45 -29q-119 -178 -175 -386t-56 -546t56 -546t175 -386l-45 -28q-309 344 -309 959zM1302 1448q-96 0 -128 -173t-33 -491q0 -475 71 -608q35 -63 91 -63t92 63q72 133 71 608q0 322 -33 493q-35 171 -131 171zM1303 39q-151 0 -225 137q-73 137 -88 296q-15 158 -15 270
t2 218t21 195q40 190 101 266q80 101 193 101q217 0 283 -234q57 -195 57 -518q0 -585 -199 -699q-56 -32 -130 -32z" />
    <glyph glyph-name="Japan1.8081" unicode="&#x247e;" 
d="M1458 287q0 -109 22 -133t119 -23v-63h-446v63q102 0 125 24t22 132v915q0 63 -8 89t-34 26t-101 -43l-16 59q182 90 293 176l24 -14v-1208zM770 287q0 -109 20 -133t119 -23v-63h-446v63q104 0 127 24t22 132v915q0 115 -43 115q-30 0 -100 -43l-16 59q182 90 292 176
l25 -14v-1208zM1976 780q0 -616 -309 -962l-45 28q119 178 175 386t56 546t-56 546t-175 386l45 29q309 -343 309 -959zM72 777q0 615 309 962l45 -29q-119 -178 -175 -386t-56 -546t56 -546t175 -386l-45 -28q-309 344 -309 959z" />
    <glyph glyph-name="Japan1.8082" unicode="&#x247f;" 
d="M1976 780q0 -616 -309 -962l-45 28q119 178 175 386t56 546t-56 546t-175 386l45 29q309 -343 309 -959zM72 777q0 615 309 962l45 -29q-119 -178 -175 -386t-56 -546t56 -546t175 -386l-45 -28q-309 344 -309 959zM735 287q0 -109 22 -133t122 -23v-63h-447v63
q102 0 125 24t23 132v915q0 115 -43 115q-31 0 -101 -43l-18 59q182 90 295 176l22 -14v-1208zM1305 1446q-115 0 -142 -207q-11 -86 -75 -86t-64 87t59 174q31 46 91 77t139 31q131 0 214 -96t83 -264q0 -167 -97 -326q-35 -56 -117 -154t-106 -133q-135 -188 -164 -359
h283q73 0 97 29t50 139l62 -8l-45 -282h-537l-20 24q12 129 60 257t101 219q52 90 158 260t107 346q0 272 -137 272z" />
    <glyph glyph-name="Japan1.8083" unicode="&#x2480;" 
d="M735 287q0 -109 22 -133t120 -23v-63h-447v63q102 0 125 24t23 132v915q0 115 -43 115q-27 0 -101 -43l-16 59q182 90 293 176l24 -14v-1208zM1178 811v66q45 0 106 30q139 66 139 281q0 92 -32 175q-33 83 -105 83q-47 0 -77 -33t-40 -69t-18 -88q-9 -52 -25 -76
t-53 -23q-61 1 -61 95t78 182t206 88t208 -92q81 -92 81 -242t-77 -232t-177 -100v-6q82 -9 174 -75q53 -38 88 -118t35 -187q0 -240 -140 -361q-81 -70 -213 -70t-208 90t-76 185t68 96q41 0 59 -45q6 -13 14 -55t13 -56q39 -139 143 -139q78 0 126 92t48 265t-84 256
t-200 83zM1976 780q0 -616 -309 -962l-45 28q119 178 175 386t56 546t-56 546t-175 386l45 29q309 -343 309 -959zM72 777q0 615 309 962l45 -29q-119 -178 -175 -386t-56 -546t56 -546t175 -386l-45 -28q-309 344 -309 959z" />
    <glyph glyph-name="Japan1.8084" unicode="&#x2481;" 
d="M735 287q0 -109 22 -133t122 -23v-63h-447v63q102 0 125 24t23 132v915q0 115 -43 115q-31 0 -101 -43l-18 59q182 90 295 176l22 -14v-1208zM1976 780q0 -616 -309 -962l-45 28q119 178 175 386t56 546t-56 546t-175 386l45 29q309 -343 309 -959zM72 777q0 615 309 962
l45 -29q-119 -178 -175 -386t-56 -546t56 -546t175 -386l-45 -28q-309 344 -309 959zM1346 545v557q0 94 8 168h-4q-48 -139 -62 -174l-223 -551h281zM1346 461h-379v61l422 994h116v-971h123l-8 -84h-115v-174q-1 -106 17 -131t94 -25v-63h-399v63q90 0 109 25t20 133v172z
" />
    <glyph glyph-name="Japan1.8085" unicode="&#x2482;" 
d="M735 287q0 -109 22 -133t122 -23v-63h-447v63q102 0 125 24t23 132v915q0 115 -43 115q-31 0 -101 -43l-18 59q182 90 295 176l22 -14v-1208zM1440 1495q49 0 62 6t24 29h57l-37 -158h-336l-53 -444l2 -2q68 74 168 73q141 0 214 -125t73 -323q0 -291 -135 -431
q-78 -81 -197 -81q-120 0 -192 83t-72 178t74 95q49 0 59 -47q10 -53 15 -80q16 -86 45 -120q29 -33 75 -33q68 0 114 97t46 318q0 391 -152 392q-47 0 -92 -41t-78 -111l-63 16l69 709h310zM1976 780q0 -616 -309 -962l-45 28q119 178 175 386t56 546t-56 546t-175 386
l45 29q309 -343 309 -959zM72 777q0 615 309 962l45 -29q-119 -178 -175 -386t-56 -546t56 -546t175 -386l-45 -28q-309 344 -309 959z" />
    <glyph glyph-name="Japan1.8086" unicode="&#x2483;" 
d="M735 287q0 -109 22 -133t120 -23v-63h-447v63q102 0 125 24t23 132v915q0 115 -43 115q-31 0 -101 -43l-16 59q182 90 293 176l24 -14v-1208zM1976 780q0 -616 -309 -962l-45 28q119 178 175 386t56 546t-56 546t-175 386l45 29q309 -343 309 -959zM72 777q0 615 309 962
l45 -29q-119 -178 -175 -386t-56 -546t56 -546t175 -386l-45 -28q-309 344 -309 959zM1462 512q0 97 -22 191q-42 176 -133 176q-57 1 -107 -93t-49 -248q0 -154 38 -290q38 -135 122 -135q151 0 151 399zM1147 811h4q71 150 195 150t203 -127t79 -314q0 -125 -26 -227
t-102 -178q-75 -76 -189 -76q-328 0 -328 696q0 430 113 631q88 156 241 156q113 0 183 -81t69 -171q0 -41 -17 -67q-17 -25 -48 -25t-47 20q-17 20 -27 81t-40 114t-74 53t-78 -36t-53 -99q-43 -142 -50 -265q-8 -124 -8 -235z" />
    <glyph glyph-name="Japan1.8087" unicode="&#x2484;" 
d="M1130 51q0 295 108 653t271 668h-280q-88 0 -119 -30t-59 -150h-70l55 303h594l19 -33q-115 -203 -229 -594t-113 -817h-177zM735 287q0 -109 22 -133t122 -23v-63h-447v63q102 0 125 24t23 132v915q0 115 -43 115q-31 0 -101 -43l-18 59q182 90 295 176l22 -14v-1208z
M1976 780q0 -616 -309 -962l-45 28q119 178 175 386t56 546t-56 546t-175 386l45 29q309 -343 309 -959zM72 777q0 615 309 962l45 -29q-119 -178 -175 -386t-56 -546t56 -546t175 -386l-45 -28q-309 344 -309 959z" />
    <glyph glyph-name="Japan1.8088" unicode="&#x2485;" 
d="M733 287q0 -109 22 -133t119 -23v-63h-446v63q102 0 125 24t22 132v915q0 63 -8 89q-9 26 -35 26t-100 -43l-16 59q182 90 295 176l22 -14v-1208zM1976 780q0 -616 -309 -962l-45 28q119 178 175 386t56 546t-56 546t-175 386l45 29q309 -343 309 -959zM72 777
q0 615 309 962l45 -29q-119 -178 -175 -386t-56 -546t56 -546t175 -386l-45 -28q-309 344 -309 959zM1301 115q69 0 117 79t48 207q0 207 -202 344q-135 -102 -136 -315q0 -145 52 -230t121 -85zM1458 1184q0 98 -36 180t-111 82q-74 0 -116 -69t-42 -175q0 -197 168 -309
q72 61 104 127q33 66 33 164zM1606 1180q0 -98 -44 -180t-163 -158v-4q236 -164 235 -402q0 -96 -28 -181t-105 -151q-79 -66 -209 -66t-224 105q-93 104 -93 295q-1 54 23 128q46 142 192 229v4q-55 49 -89 87t-66 118t-31 178q0 137 78 238q78 102 220 102t223 -87
t81 -255z" />
    <glyph glyph-name="Japan1.8089" unicode="&#x2486;" 
d="M731 287q0 -109 22 -133t119 -23v-63h-446v63q102 0 125 24t22 132v915q0 63 -8 89q-9 26 -35 26t-100 -43l-16 59q182 90 295 176l22 -14v-1208zM1976 780q0 -616 -309 -962l-45 28q119 178 175 386t56 546t-56 546t-175 386l45 29q309 -343 309 -959zM72 777
q0 615 309 962l45 -29q-119 -178 -175 -386t-56 -546t56 -546t175 -386l-45 -28q-309 344 -309 959zM1147 1049q0 -62 16 -164q32 -203 140 -203q57 0 107 92t50 248t-40 290t-122 134q-151 0 -151 -397zM1466 750h-4q-27 -62 -79 -106t-117 -44q-135 0 -210 130t-75 334
t86 330q86 128 233 128q330 0 330 -693q0 -434 -112 -634q-86 -156 -244 -156q-123 0 -193 82q-69 82 -69 173t59 91q37 0 53 -19t27 -73q29 -178 123 -178q192 0 192 635z" />
    <glyph glyph-name="Japan1.8090" unicode="&#x2487;" 
d="M664 1446q-80 0 -110 -95q-12 -45 -20 -103t-24 -76t-49 -19q-59 0 -60 100q0 129 114 218q65 51 169 51t188 -86t84 -249t-104 -349q-32 -50 -100 -142t-101 -143q-133 -215 -155 -363h262q72 0 96 30t49 138l58 -8l-43 -282h-508l-19 24q14 190 125 430q33 72 178 318
q102 174 102 324t-37 216q-38 66 -95 66zM1976 780q0 -616 -309 -962l-45 28q119 178 175 386t56 546t-56 546t-175 386l45 29q309 -343 309 -959zM72 777q0 615 309 962l45 -29q-119 -178 -175 -386t-56 -546t56 -546t175 -386l-45 -28q-309 344 -309 959zM1379 1448
q-91 0 -119 -168t-29 -498q0 -330 30 -500q31 -170 119 -169q88 0 120 173q32 172 32 496t-31 495t-122 171zM1386 39q-176 0 -245 208q-59 171 -63 409q-1 56 -1 160q0 485 137 635q66 71 166 71q169 0 238 -202q63 -178 63 -510q1 -364 -31 -469q-32 -106 -64 -170
q-64 -132 -200 -132z" />
    <glyph glyph-name="Japan1.8062" unicode="&#x2488;" 
d="M1831 -31q-61 0 -102 43q-41 42 -41 102t42 103t102 43t102 -43t42 -102t-42 -103t-103 -43zM1124 238q0 -115 30 -141t167 -25v-72h-594v72q145 0 176 26t31 140v929q0 66 -11 95q-11 28 -45 28t-139 -41l-14 72q225 82 373 178l26 -14v-1247z" />
    <glyph glyph-name="Japan1.8063" unicode="&#x2489;" 
d="M1831 -31q-61 0 -102 43q-41 42 -41 102t42 103t102 43t102 -43t42 -102t-42 -103t-103 -43zM1016 1430q-223 0 -287 -232q-25 -84 -97 -84t-73 96q0 96 120 198q119 102 357 103t356 -109t117 -263q0 -80 -42 -158t-85 -121t-116 -104q-49 -35 -166 -115t-193 -145
q-168 -139 -237 -355h573q102 0 136 33t69 164l76 -10l-62 -328h-911l-29 33q79 330 233 498q81 89 140 137t176 128q117 78 177 159t60 200t-72 197q-73 78 -220 78z" />
    <glyph glyph-name="Japan1.8064" unicode="&#x248a;" 
d="M1831 -31q-61 0 -102 43q-41 42 -41 102t42 103t102 43t102 -43t42 -102t-42 -103t-103 -43zM854 756v78q106 0 239 47q81 29 133 99t52 186t-79 186t-187 70t-178 -57q-70 -55 -98 -129t-50 -100t-68 -26q-72 0 -71 96q0 96 125 196t336 101q135 0 232 -34t144 -91
q87 -105 88 -234q2 -128 -96 -223t-280 -114v-6q186 -13 313 -115t127 -282t-136 -312t-380 -131q-244 0 -376 101q-132 100 -132 200t78 100q49 0 86 -61q42 -83 96 -135q90 -121 230 -121t237 84q96 84 96 268q0 183 -135 271t-346 88z" />
    <glyph glyph-name="Japan1.8065" unicode="&#x248b;" 
d="M1831 -31q-61 0 -102 43q-41 42 -41 102t42 103t102 43t102 -43t42 -102t-42 -103t-103 -43zM1145 502v579q0 94 6 203h-8q-10 -14 -48 -83t-71 -114l-371 -585h492zM1145 408h-623v67l668 1030h149v-1003h187l-15 -94h-172v-170q0 -113 25 -140t137 -26v-72h-545v72
q131 0 160 26t29 140v170z" />
    <glyph glyph-name="Japan1.8066" unicode="&#x248c;" 
d="M1831 -31q-61 0 -102 43q-41 42 -41 102t42 103t102 43t102 -43t42 -102t-42 -103t-103 -43zM1296 1485q61 0 79 6q17 6 28 29h70l-48 -179h-612l-74 -460l4 -2q131 94 308 94q223 0 348 -128t125 -343q0 -266 -144 -400t-356 -133q-211 -1 -341 97t-130 204q0 47 24 73
t58 26q57 0 92 -72q94 -244 287 -244q131 1 220 107t89 319t-92 320q-78 88 -221 88q-193 0 -314 -162l-71 23l104 737h567z" />
    <glyph glyph-name="Japan1.8067" unicode="&#x248d;" 
d="M1831 -31q-61 0 -102 43q-41 42 -41 102t42 103t102 43t102 -43t42 -102t-42 -103t-103 -43zM1034 856q-137 0 -228 -96t-91 -230q0 -188 83 -330t227 -142t230 113q86 114 86 288q0 270 -167 364q-59 33 -140 33zM700 743h9q57 95 152 149t216 54q215 0 340 -130
t125 -339t-129 -355t-374 -146t-389 180q-144 182 -144 565q0 304 112 534q58 121 172 192t290 71t284 -90t106 -187q0 -39 -19 -65t-56 -25q-37 0 -61 25t-48 86q-63 172 -239 172q-129 0 -224 -131q-123 -198 -123 -560z" />
    <glyph glyph-name="Japan1.8068" unicode="&#x248e;" 
d="M1831 -31q-61 0 -102 43q-41 42 -41 102t42 103t102 43t102 -43t42 -102t-42 -103t-103 -43zM815 1348q-109 0 -145 -31t-68 -156h-84l68 330h919l25 -39q-279 -358 -408 -780q-111 -336 -118 -688h-213q15 565 384 1143q79 124 156 221h-516z" />
    <glyph glyph-name="Japan1.8069" unicode="&#x248f;" 
d="M1831 -31q-61 0 -102 43q-41 42 -41 102t42 103t102 43t102 -43t42 -102t-42 -103t-103 -43zM684 383q0 -150 94 -237t242 -87t236 83t87 218q0 219 -397 359q-262 -109 -262 -336zM1018 1434q-129 0 -210 -65t-81 -181t92 -190q92 -75 246 -128q127 55 187 120t61 179
q1 53 -19 103q-20 51 -49 82q-29 32 -88 56t-139 24zM1546 403q0 -188 -137 -308t-379 -120t-386 111t-144 301q0 111 85 213t253 170v4q-291 141 -291 387q0 145 119 251t352 106t354 -98t121 -255q0 -119 -83 -204t-222 -134v-6q176 -73 267 -185t91 -233z" />
    <glyph glyph-name="Japan1.8070" unicode="&#x2490;" 
d="M1831 -31q-61 0 -102 43q-41 42 -41 102t42 103t102 43t102 -43t42 -102t-42 -103t-103 -43zM705 1024q0 -113 51 -231q30 -68 96 -111t162 -43q141 0 231 100t90 232q0 180 -85 322q-84 143 -232 143t-230 -117t-83 -295zM973 547q-215 0 -342 130t-127 340t130 355
q130 146 370 146t391 -180q149 -180 149 -522q0 -343 -113 -574q-61 -123 -175 -195t-269 -72q-207 1 -323 91t-115 185q0 95 72 95q41 0 63 -22t46 -75q22 -52 36 -74q14 -21 43 -53q56 -60 193 -62q137 -1 225 133q123 195 119 557h-7q-123 -203 -366 -203z" />
    <glyph glyph-name="Japan1.8112" unicode="&#x249c;" 
d="M1976 780q0 -616 -309 -962l-45 28q119 178 175 386t56 546t-56 546t-175 386l45 29q309 -343 309 -959zM72 777q0 615 309 962l45 -29q-119 -178 -175 -386t-56 -546t56 -546t175 -386l-45 -28q-309 344 -309 959zM1221 436v391q-252 -61 -362 -135q-109 -74 -109 -171
q1 -200 211 -202q135 0 260 117zM1399 965v-502q0 -156 71 -156q35 0 64 17l14 -56q-68 -31 -151 -30q-131 0 -162 118h-8q-141 -131 -346 -131q-125 0 -223 68q-97 68 -97 194q0 164 152 254q125 78 364 127l144 31v92q0 225 -213 226q-164 0 -240 -164q-24 -57 -90 -57
t-66 73q0 74 109 148q109 73 305 73t283 -78q37 -33 63 -96t27 -151z" />
    <glyph glyph-name="Japan1.8113" unicode="&#x249d;" 
d="M1976 780q0 -616 -309 -962l-45 28q119 178 175 386t56 546t-56 546t-175 386l45 29q309 -343 309 -959zM72 777q0 615 309 962l45 -29q-119 -178 -175 -386t-56 -546t56 -546t175 -386l-45 -28q-309 344 -309 959zM1077 127q119 0 206 110t87 353q0 186 -74 314
q-29 50 -84 87t-129 37q-141 0 -264 -129v-649q139 -123 258 -123zM639 1358q0 86 -19 108t-98 23v51q160 25 275 94l22 -12v-627h4q113 117 313 117t312 -150q111 -150 111 -375q0 -224 -116 -382t-333 -158q-170 0 -305 115h-6l-137 -105l-23 11v1290z" />
    <glyph glyph-name="Japan1.8114" unicode="&#x249e;" 
d="M1069 225q-131 0 -228 48q-169 84 -229 300q-25 90 -24 191q0 236 136 381t357 145q158 0 258 -68q101 -68 101 -146q0 -79 -66 -79q-47 0 -80 58q-12 20 -34 61q-54 100 -180 100t-216 -117q-90 -118 -90 -340t92 -337t238 -115q186 0 301 178l61 -39
q-145 -221 -397 -221zM1976 780q0 -616 -309 -962l-45 28q119 178 175 386t56 546t-56 546t-175 386l45 29q309 -343 309 -959zM72 777q0 615 309 962l45 -29q-119 -178 -175 -386t-56 -546t56 -546t175 -386l-45 -28q-309 344 -309 959z" />
    <glyph glyph-name="Japan1.8115" unicode="&#x249f;" 
d="M1976 780q0 -616 -309 -962l-45 28q119 178 175 386t56 546t-56 546t-175 386l45 29q309 -343 309 -959zM72 777q0 615 309 962l45 -29q-119 -178 -175 -386t-56 -546t56 -546t175 -386l-45 -28q-309 344 -309 959zM997 1030q-301 0 -301 -446q0 -205 77 -331
q77 -127 217 -127t249 150v609q-43 63 -106 104t-136 41zM1239 1004v344q0 92 -20 116t-109 23v53q176 25 285 94l22 -12v-1368q1 -86 21 -106t98 -21v-51q-184 0 -268 -31l-19 14l-6 111h-4q-115 -123 -297 -123q-214 0 -338 166q-98 134 -98 385q0 180 94 335
q49 81 144 130t238 49t255 -108h2z" />
    <glyph glyph-name="Japan1.8116" unicode="&#x24a0;" 
d="M1976 780q0 -616 -309 -962l-45 28q119 178 175 386t56 546t-56 546t-175 386l45 29q309 -343 309 -959zM72 777q0 615 309 962l45 -29q-119 -178 -175 -386t-56 -546t56 -546t175 -386l-45 -28q-309 344 -309 959zM1032 1217q-111 0 -192 -93q-76 -98 -84 -276h538
q-8 369 -262 369zM1477 774h-721q0 -219 78 -336q86 -133 249 -133q223 0 332 195l64 -33q-150 -242 -413 -242t-382 152t-119 386q0 235 125 381t344 146t331 -146t112 -370z" />
    <glyph glyph-name="Japan1.8117" unicode="&#x24a1;" 
d="M829 246v723h-153v75h153v144q-1 215 101 310t233 95t212 -63t81 -136t-70 -73q-29 0 -49 17q-20 18 -27 32q-6 14 -22 48t-26 51t-34 33t-54 18q-166 0 -166 -340v-136h262v-75h-262v-727q0 -104 26 -128t146 -24v-59h-506v59q109 0 132 25t23 131zM1976 780
q0 -616 -309 -962l-45 28q119 178 175 386t56 546t-56 546t-175 386l45 29q309 -343 309 -959zM72 777q0 615 309 962l45 -29q-119 -178 -175 -386t-56 -546t56 -546t175 -386l-45 -28q-309 344 -309 959z" />
    <glyph glyph-name="Japan1.8118" unicode="&#x24a2;" 
d="M1976 780q0 -616 -309 -962l-45 28q119 178 175 386t56 546t-56 546t-175 386l45 29q309 -343 309 -959zM72 777q0 615 309 962l45 -29q-119 -178 -175 -386t-56 -546t56 -546t175 -386l-45 -28q-309 344 -309 959zM1114 307h-268q-176 -102 -176 -223q0 -92 90 -143
t261 -51t272 70q101 71 102 167q0 180 -281 180zM1014 1239q-114 0 -182 -83q-66 -83 -66 -204q0 -120 68 -198t183 -78q116 0 178 78t62 200t-64 203q-65 82 -179 82zM905 440h236q215 0 309 -78t94 -192q0 -152 -147 -253t-385 -101t-367 64t-129 188q0 86 67 154t160 108
q-63 12 -107 49t-44 100q0 98 160 189q-166 100 -166 277t121 273t285 95q164 0 268 -58l290 31v-96l-221 12q111 -98 111 -256t-121 -251t-301 -93q-115 0 -205 37q-94 -53 -94 -115q0 -84 186 -84z" />
    <glyph glyph-name="Japan1.8119" unicode="&#x24a3;" 
d="M625 244v1063q0 95 -22 117t-109 22v53q176 27 284 94l23 -14v-692h6q152 184 354 184q85 0 147 -30q62 -29 92 -67q66 -82 66 -282v-450q0 -100 18 -126t99 -26v-59h-412v59q80 0 99 25q18 25 18 129v446q0 172 -41 226q-18 26 -56 46t-91 21q-135 0 -299 -205v-538
q0 -100 18 -125t94 -25v-59h-421v59q92 0 112 25t21 129zM1976 780q0 -616 -309 -962l-45 28q119 178 175 386t56 546t-56 546t-175 386l45 29q309 -343 309 -959zM72 777q0 615 309 962l45 -29q-119 -178 -175 -386t-56 -546t56 -546t175 -386l-45 -28q-309 344 -309 959z
" />
    <glyph glyph-name="Japan1.8120" unicode="&#x24a4;" 
d="M1126 229q0 -102 25 -127t137 -24v-60h-510v60q117 0 144 24t26 129v535q0 102 -23 122q-24 19 -147 19v51q166 12 326 97l22 -15v-811zM1026 1456q53 0 87 -39t34 -101t-35 -100t-88 -38t-88 38t-35 100q0 64 36 102t89 38zM1976 780q0 -616 -309 -962l-45 28
q119 178 175 386t56 546t-56 546t-175 386l45 29q309 -343 309 -959zM72 777q0 615 309 962l45 -29q-119 -178 -175 -386t-56 -546t56 -546t175 -386l-45 -28q-309 344 -309 959z" />
    <glyph glyph-name="Japan1.8121" unicode="&#x24a5;" 
d="M1001 434v332q0 102 -22 122q-23 19 -148 19v54q195 20 328 94l21 -13v-587q0 -284 -56 -412q-25 -57 -62 -111q-77 -108 -245 -108q-115 0 -193 57t-79 123q0 29 17 47q17 19 50 19t55 -20t46 -68q39 -84 108 -84q47 0 82 34q98 96 98 502zM1080 1456q54 0 87 -39
t33 -101t-35 -100t-88 -38t-88 38t-35 100q0 64 36 102t90 38zM1976 780q0 -616 -309 -962l-45 28q119 178 175 386t56 546t-56 546t-175 386l45 29q309 -343 309 -959zM72 777q0 615 309 962l45 -29q-119 -178 -175 -386t-56 -546t56 -546t175 -386l-45 -28
q-309 344 -309 959z" />
    <glyph glyph-name="Japan1.8122" unicode="&#x24a6;" 
d="M844 586h6l309 307q47 43 47 67t-80 25v59h338v-59q-90 -6 -151 -67l-223 -218l335 -520q33 -58 69 -74t93 -16v-59h-276l-350 557l-117 -119v-227q2 -102 19 -127t102 -25v-59h-428v59q92 0 111 26t20 128v1052q0 98 -22 124t-109 26v53q164 23 286 94l21 -14v-993z
M1976 780q0 -616 -309 -962l-45 28q119 178 175 386t56 546t-56 546t-175 386l45 29q309 -343 309 -959zM72 777q0 615 309 962l45 -29q-119 -178 -175 -386t-56 -546t56 -546t175 -386l-45 -28q-309 344 -309 959z" />
    <glyph glyph-name="Japan1.8123" unicode="&#x24a7;" 
d="M938 244v1063q0 95 -25 117t-145 22v53q176 16 326 94l22 -14v-1337q0 -102 24 -127t138 -25v-59h-510v59q118 0 144 25t26 129zM1976 780q0 -616 -309 -962l-45 28q119 178 175 386t56 546t-56 546t-175 386l45 29q309 -343 309 -959zM72 777q0 615 309 962l45 -29
q-119 -178 -175 -386t-56 -546t56 -546t175 -386l-45 -28q-309 344 -309 959z" />
    <glyph glyph-name="Japan1.8124" unicode="&#x24a8;" 
d="M1591 950v-499q-1 -94 15 -118t75 -24v-59h-344v59q59 0 75 23q15 23 15 108v480q0 203 -52 255q-25 25 -73 25t-100 -47t-88 -129v-573q0 -96 14 -119t78 -23v-59h-344v59q62 1 76 21t14 110v475q0 206 -51 257q-27 28 -67 28q-92 0 -195 -180v-567q0 -96 14 -120
t78 -24v-59h-366v59q78 0 95 25t17 129v534q0 100 -18 124t-94 22v53q139 29 239 94l25 -14l6 -148h2q41 63 107 113q66 49 130 49t109 -19q82 -35 121 -145h4q109 164 258 164q109 0 166 -78q59 -74 59 -262zM1976 780q0 -616 -309 -962l-45 28q119 178 175 386t56 546
t-56 546t-175 386l45 29q309 -343 309 -959zM72 777q0 615 309 962l45 -29q-119 -178 -175 -386t-56 -546t56 -546t175 -386l-45 -28q-309 344 -309 959z" />
    <glyph glyph-name="Japan1.8125" unicode="&#x24a9;" 
d="M1473 950v-491q0 -98 19 -124t99 -26v-59h-411v59q80 0 98 25t18 129v483q0 132 -48 194t-158 62q-143 0 -308 -205v-536q0 -104 16 -128t99 -24v-59h-428v59q94 0 115 24q20 24 20 130v532q0 100 -21 125q-22 25 -114 23v53q166 23 276 94l25 -14l8 -176h4
q164 190 363 190q328 0 328 -340zM1976 780q0 -616 -309 -962l-45 28q119 178 175 386t56 546t-56 546t-175 386l45 29q309 -343 309 -959zM72 777q0 615 309 962l45 -29q-119 -178 -175 -386t-56 -546t56 -546t175 -386l-45 -28q-309 344 -309 959z" />
    <glyph glyph-name="Japan1.8126" unicode="&#x24aa;" 
d="M1976 780q0 -616 -309 -962l-45 28q119 178 175 386t56 546t-56 546t-175 386l45 29q309 -343 309 -959zM72 777q0 615 309 962l45 -29q-119 -178 -175 -386t-56 -546t56 -546t175 -386l-45 -28q-309 344 -309 959zM1020 1217q-143 0 -223 -99q-92 -117 -92 -360
q0 -461 316 -461t316 460t-317 460zM1022 225q-504 0 -504 537q0 246 129 387t375 141q140 0 244 -47t158 -127q104 -154 104 -354q0 -272 -132 -404t-374 -133z" />
    <glyph glyph-name="Japan1.8127" unicode="&#x24ab;" 
d="M1976 780q0 -616 -309 -962l-45 28q119 178 175 386t56 546t-56 546t-175 386l45 29q309 -343 309 -959zM72 777q0 615 309 962l45 -29q-119 -178 -175 -386t-56 -546t56 -546t175 -386l-45 -28q-309 344 -309 959zM1096 381q283 0 282 467q0 199 -71 315
q-81 115 -209 115t-267 -148v-608q115 -141 265 -141zM831 410v-373q1 -96 21 -119t109 -22v-62h-439v62q90 0 111 22q20 23 20 121v1030q0 100 -19 124t-112 24v53q160 20 275 94l20 -14l8 -121h4q135 135 321 135t302 -140q117 -140 117 -394t-118 -392t-308 -139
q-190 0 -307 111h-5z" />
    <glyph glyph-name="Japan1.8128" unicode="&#x24ac;" 
d="M1976 780q0 -616 -309 -962l-45 28q119 178 175 386t56 546t-56 546t-175 386l45 29q309 -343 309 -959zM72 777q0 615 309 962l45 -29q-119 -178 -175 -386t-56 -546t56 -546t175 -386l-45 -28q-309 344 -309 959zM690 844q0 -190 46 -289q22 -45 52 -87q66 -91 202 -90
t245 142v645q-100 119 -242 119t-209 -96q-68 -96 -77 -170q-17 -127 -17 -174zM1411 39q-1 -98 19 -121t108 -22v-62h-442v62q96 0 118 22t21 119v377h-4q-121 -115 -265 -115t-236 48q-155 80 -208 299q-20 87 -20 188q0 260 133 395t348 135q162 0 295 -111h8l105 107
l20 -6v-1315z" />
    <glyph glyph-name="Japan1.8129" unicode="&#x24ad;" 
d="M1281 1290q85 0 138 -47t54 -106q0 -84 -72 -84q-53 0 -84 73q-17 40 -35 56t-53 16q-106 0 -256 -186v-551q1 -102 27 -127t143 -25v-59h-488v59q96 0 118 25t22 129v536q0 96 -23 120t-117 24v51q168 25 283 96l23 -14l8 -164h4q83 94 153 136t155 42zM1976 780
q0 -616 -309 -962l-45 28q119 178 175 386t56 546t-56 546t-175 386l45 29q309 -343 309 -959zM72 777q0 615 309 962l45 -29q-119 -178 -175 -386t-56 -546t56 -546t175 -386l-45 -28q-309 344 -309 959z" />
    <glyph glyph-name="Japan1.8130" unicode="&#x24ae;" 
d="M821 1079q0 -86 97 -141q43 -22 135 -58q91 -36 127 -52q183 -85 233 -179q27 -51 27 -114q0 -139 -123 -225t-315 -85q-192 0 -347 66q-12 90 -45 237l76 15q39 -135 113 -189q73 -54 199 -55q126 0 190 60q63 61 63 133q0 97 -96 153q-29 16 -97 44q-68 27 -119 51
q-50 24 -84 39t-83 46t-71 59q-52 66 -53 168q-2 101 102 174q104 72 278 72t305 -49q14 -102 39 -221l-76 -12q-29 117 -84 163t-139 46q-84 1 -139 -19q-113 -40 -113 -127zM1976 780q0 -616 -309 -962l-45 28q119 178 175 386t56 546t-56 546t-175 386l45 29
q309 -343 309 -959zM72 777q0 615 309 962l45 -29q-119 -178 -175 -386t-56 -546t56 -546t175 -386l-45 -28q-309 344 -309 959z" />
    <glyph glyph-name="Japan1.8131" unicode="&#x24af;" 
d="M682 1188v57q133 10 189 75t94 234h61v-290h317v-76h-317v-688q0 -193 148 -193q98 0 198 76l37 -55q-117 -102 -283 -103q-279 0 -278 269v694h-166zM1976 780q0 -616 -309 -962l-45 28q119 178 175 386t56 546t-56 546t-175 386l45 29q309 -343 309 -959zM72 777
q0 615 309 962l45 -29q-119 -178 -175 -386t-56 -546t56 -546t175 -386l-45 -28q-309 344 -309 959z" />
    <glyph glyph-name="Japan1.8132" unicode="&#x24b0;" 
d="M1579 307v-53q-186 0 -281 -29l-16 8l-12 152h-4q-137 -160 -339 -160t-276 118q-61 98 -61 261v400q0 96 -18 118t-103 21v53q152 23 274 94l25 -12v-655q0 -169 53 -235q53 -67 162 -69q156 0 283 168v517q0 98 -18 118t-99 21v53q152 23 270 94l27 -12v-817
q0 -104 20 -129t113 -25zM1976 780q0 -616 -309 -962l-45 28q119 178 175 386t56 546t-56 546t-175 386l45 29q309 -343 309 -959zM72 777q0 615 309 962l45 -29q-119 -178 -175 -386t-56 -546t56 -546t175 -386l-45 -28q-309 344 -309 959z" />
    <glyph glyph-name="Japan1.8133" unicode="&#x24b1;" 
d="M496 1264h407v-60q-55 0 -77 -9t-22 -33t19 -72l252 -633h6l262 667q12 27 13 45q0 35 -92 35v60h286v-60q-47 0 -67 -17t-49 -83l-365 -879h-70l-360 840q-41 96 -65 118t-78 21v60zM1976 780q0 -616 -309 -962l-45 28q119 178 175 386t56 546t-56 546t-175 386l45 29
q309 -343 309 -959zM72 777q0 615 309 962l45 -29q-119 -178 -175 -386t-56 -546t56 -546t175 -386l-45 -28q-309 344 -309 959z" />
    <glyph glyph-name="Japan1.8134" unicode="&#x24b2;" 
d="M340 1264h354v-60q-47 0 -66 -10q-36 -19 -5 -109l184 -618h6l184 661q-16 56 -30 66t-78 10v60h358v-60q-49 0 -69 -9q-35 -16 -9 -99l170 -625h7l186 653q6 23 6 37q0 43 -86 43v60h254v-60q-38 0 -56 -18t-38 -82l-256 -881h-101l-211 768h-4l-217 -768h-100l-264 840
q-31 96 -50 119t-69 22v60zM1976 780q0 -616 -309 -962l-45 28q119 178 175 386t56 546t-56 546t-175 386l45 29q309 -343 309 -959zM72 777q0 615 309 962l45 -29q-119 -178 -175 -386t-56 -546t56 -546t175 -386l-45 -28q-309 344 -309 959z" />
    <glyph glyph-name="Japan1.8135" unicode="&#x24b3;" 
d="M743 342q0 -33 88 -33v-59h-325v59q72 0 145 92l283 357l-238 340q-49 72 -76 89q-28 17 -75 17v60h418v-60q-90 0 -91 -30q0 -20 35 -72l156 -230h4l190 242q33 39 33 60q0 31 -80 30v60h314v-60q-41 0 -68 -17t-74 -69l-266 -321l268 -379q49 -70 81 -89t75 -20v-59
h-422v59q84 0 84 31q0 20 -35 72l-178 270h-4l-217 -293q-25 -29 -25 -47zM1976 780q0 -616 -309 -962l-45 28q119 178 175 386t56 546t-56 546t-175 386l45 29q309 -343 309 -959zM72 777q0 615 309 962l45 -29q-119 -178 -175 -386t-56 -546t56 -546t175 -386l-45 -28
q-309 344 -309 959z" />
    <glyph glyph-name="Japan1.8136" unicode="&#x24b4;" 
d="M500 1286h403v-59q-53 0 -75 -8t-22 -32t25 -77l254 -575h7l254 614q12 27 12 45q0 33 -92 33v59h293v-59q-53 1 -75 -15t-48 -79l-435 -1047q-59 -135 -125 -205q-66 -69 -172 -69q-104 0 -163 44t-60 99q1 29 17 47t43 18q53 0 92 -63t84 -63q100 0 190 200l99 244
l-353 747q-45 100 -68 121q-24 20 -85 21v59zM1976 780q0 -616 -309 -962l-45 28q119 178 175 386t56 546t-56 546t-175 386l45 29q309 -343 309 -959zM72 777q0 615 309 962l45 -29q-119 -178 -175 -386t-56 -546t56 -546t175 -386l-45 -28q-309 344 -309 959z" />
    <glyph glyph-name="Japan1.8137" unicode="&#x24b5;" 
d="M1217 326q81 0 113 38t63 168h71l-51 -282h-803l-26 37l643 901h-367q-84 0 -112 -34t-54 -157h-69l45 267h755l25 -33l-631 -905h398zM1976 780q0 -616 -309 -962l-45 28q119 178 175 386t56 546t-56 546t-175 386l45 29q309 -343 309 -959zM72 777q0 615 309 962
l45 -29q-119 -178 -175 -386t-56 -546t56 -546t175 -386l-45 -28q-309 344 -309 959z" />
    <glyph glyph-name="Japan1.10339" unicode="&#x24b6;" 
d="M1143 684l-172 485h-6l-154 -485h332zM725 387q0 -19 16 -26t60 -7v-55h-234v55q37 0 57 16t35 62l299 916h97l327 -897q25 -61 42 -79t61 -18v-55h-328v55q78 0 78 37q0 23 -12 55l-62 179h-370l-52 -166q-14 -53 -14 -72zM1024 1675q-373 0 -635 -263t-262 -634
q0 -244 120 -450q121 -206 327 -327q206 -120 450 -120t451 120t326 327q120 206 120 450t-120 451q-121 207 -327 327t-450 119zM1024 1731q195 0 372 -76t304 -204t202 -304q74 -176 74 -370q0 -193 -76 -369q-153 -355 -505 -506q-176 -76 -371 -76t-371 76
q-354 153 -506 506q-75 176 -75 370t75 371q153 353 506 506q176 76 371 76z" />
    <glyph glyph-name="Japan1.10340" unicode="&#x24b7;" 
d="M1024 1675q-373 0 -635 -263t-262 -634q0 -244 120 -450q121 -206 327 -327q206 -120 450 -120t451 120t326 327q120 206 120 450t-120 451q-121 207 -327 327t-450 119zM1024 1731q195 0 372 -76t304 -204t202 -304q74 -176 74 -370q0 -193 -76 -369
q-153 -355 -505 -506q-176 -76 -371 -76t-371 76q-354 153 -506 506q-75 176 -75 370t75 371q153 353 506 506q176 76 371 76zM889 774v-375q0 -45 9 -59t42 -14h104q221 0 222 233q0 215 -265 215h-112zM889 1186v-352h86q244 0 244 215q0 186 -207 186h-82q-35 0 -39 -20
q-2 -9 -2 -29zM1001 1294q363 0 363 -233q0 -201 -258 -250v-2q162 -6 238 -79t75 -175q0 -102 -63 -186q-77 -103 -293 -103h-432v56q76 0 93 18t17 96v690q0 78 -16 96t-94 17v55h370z" />
    <glyph glyph-name="Japan1.10341" unicode="&#x24b8;" 
d="M878 1272q92 43 205 43q114 -1 163 -15t102 -34q4 -27 14 -105t22 -131l-69 -12q-23 129 -63 185q-40 57 -162 57t-214 -112t-92 -352t89 -363q89 -124 219 -124q104 0 169 71q64 71 95 161l59 -15q-98 -281 -352 -280q-211 0 -322 143t-110 404q0 106 25 196
q60 207 222 283zM1024 1675q-373 0 -635 -263t-262 -634q0 -244 120 -450q121 -206 327 -327q206 -120 450 -120t451 120t326 327q120 206 120 450t-120 451q-121 207 -327 327t-450 119zM1024 1731q195 0 372 -76t304 -204t202 -304q74 -176 74 -370q0 -193 -76 -369
q-153 -355 -505 -506q-176 -76 -371 -76t-371 76q-354 153 -506 506q-75 176 -75 370t75 371q153 353 506 506q176 76 371 76z" />
    <glyph glyph-name="Japan1.10342" unicode="&#x24b9;" 
d="M864 1169v-766q0 -51 9 -64t48 -13t66 1q102 4 162 33q99 48 140 128q57 109 58 309t-80 319t-270 119h-86q-29 -1 -38 -13t-9 -53zM606 266v56q78 0 95 16t18 94v696q1 76 -17 94t-96 17v55h414q483 0 483 -499q0 -304 -148 -417q-148 -112 -368 -112h-381zM1024 1675
q-373 0 -635 -263t-262 -634q0 -244 120 -450q121 -206 327 -327q206 -120 450 -120t451 120t326 327q120 206 120 450t-120 451q-121 207 -327 327t-450 119zM1024 1731q195 0 372 -76t304 -204t202 -304q74 -176 74 -370q0 -193 -76 -369q-153 -355 -505 -506
q-176 -76 -371 -76t-371 76q-354 153 -506 506q-75 176 -75 370t75 371q153 353 506 506q176 76 371 76z" />
    <glyph glyph-name="Japan1.10343" unicode="&#x24ba;" 
d="M666 266v56q76 0 93 18t17 94v696q0 76 -17 92t-93 17v55h659l43 -223h-70q-29 115 -49 139t-80 25h-196q-35 0 -43 -11t-8 -57v-338h180q47 0 60 24t14 118h67v-342h-67q0 96 -14 120t-60 23h-180v-383q0 -39 8 -51t31 -12h247q61 0 83 26t50 142h70l-47 -228h-698z
M1024 1675q-373 0 -635 -263t-262 -634q0 -244 120 -450q121 -206 327 -327q206 -120 450 -120t451 120t326 327q120 206 120 450t-120 451q-121 207 -327 327t-450 119zM1024 1731q195 0 372 -76t304 -204t202 -304q74 -176 74 -370q0 -193 -76 -369q-153 -355 -505 -506
q-176 -76 -371 -76t-371 76q-354 153 -506 506q-75 176 -75 370t75 371q153 353 506 506q176 76 371 76z" />
    <glyph glyph-name="Japan1.10344" unicode="&#x24bb;" 
d="M1241 961v-347h-67q0 98 -14 122t-60 24h-172v-328q0 -78 19 -94t114 -16v-56h-393v56q78 0 95 17t17 93v696q0 76 -17 94t-95 17v55h665l47 -225h-71q-27 113 -49 139t-78 27h-205q-33 0 -41 -12t-8 -58v-346h172q47 0 60 25t14 117h67zM1024 1675q-373 0 -635 -263
t-262 -634q0 -244 120 -450q121 -206 327 -327q206 -120 450 -120t451 120t326 327q120 206 120 450t-120 451q-121 207 -327 327t-450 119zM1024 1731q195 0 372 -76t304 -204t202 -304q74 -176 74 -370q0 -193 -76 -369q-153 -355 -505 -506q-176 -76 -371 -76t-371 76
q-354 153 -506 506q-75 176 -75 370t75 371q153 353 506 506q176 76 371 76z" />
    <glyph glyph-name="Japan1.10345" unicode="&#x24bc;" 
d="M1364 547v-178q-49 -49 -134 -86t-186 -37q-202 0 -322 142t-120 373t106 384q54 78 149 124t193 46t142 -9q43 -9 139 -42q10 -78 37 -232l-68 -12q-14 68 -24 100q-31 97 -98 122q-41 15 -103 15q-147 0 -232 -128q-85 -127 -85 -341t79 -348t216 -133q90 0 176 70v158
q1 57 -17 70t-96 13v60h340v-60q-64 0 -78 -11t-14 -60zM1024 1675q-373 0 -635 -263t-262 -634q0 -244 120 -450q121 -206 327 -327q206 -120 450 -120t451 120t326 327q120 206 120 450t-120 451q-121 207 -327 327t-450 119zM1024 1731q195 0 372 -76t304 -204t202 -304
q74 -176 74 -370q0 -193 -76 -369q-153 -355 -505 -506q-176 -76 -371 -76t-371 76q-354 153 -506 506q-75 176 -75 370t75 371q153 353 506 506q176 76 371 76z" />
    <glyph glyph-name="Japan1.10346" unicode="&#x24bd;" 
d="M1403 1130v-696q0 -78 17 -95t96 -17v-56h-357v56q68 0 83 17t15 91v342h-473v-342q0 -74 16 -91t83 -17v-56h-357v56q76 0 94 17q17 17 17 93v698q0 76 -17 92t-94 17v55h359v-55q-68 0 -84 -16t-17 -90v-302h473v302q0 74 -15 90t-85 16v55h359v-55q-78 0 -96 -16
q-17 -17 -17 -93zM1024 1675q-373 0 -635 -263t-262 -634q0 -244 120 -450q121 -206 327 -327q206 -120 450 -120t451 120t326 327q120 206 120 450t-120 451q-121 207 -327 327t-450 119zM1024 1731q195 0 372 -76t304 -204t202 -304q74 -176 74 -370q0 -193 -76 -369
q-153 -355 -505 -506q-176 -76 -371 -76t-371 76q-354 153 -506 506q-75 176 -75 370t75 371q153 353 506 506q176 76 371 76z" />
    <glyph glyph-name="Japan1.10347" unicode="&#x24be;" 
d="M950 432v696q0 76 -18 94t-105 17v55h394v-55q-87 0 -105 -17t-18 -94v-696q0 -78 18 -94t105 -16v-56h-394v56q86 0 105 16q18 16 18 94zM1024 1675q-373 0 -635 -263t-262 -634q0 -244 120 -450q121 -206 327 -327q206 -120 450 -120t451 120t326 327q120 206 120 450
t-120 451q-121 207 -327 327t-450 119zM1024 1731q195 0 372 -76t304 -204t202 -304q74 -176 74 -370q0 -193 -76 -369q-153 -355 -505 -506q-176 -76 -371 -76t-371 76q-354 153 -506 506q-75 176 -75 370t75 371q153 353 506 506q176 76 371 76z" />
    <glyph glyph-name="Japan1.10348" unicode="&#x24bf;" 
d="M924 1251v56h383v-56q-77 0 -95 -17t-18 -95v-594q0 -389 -283 -389q-94 0 -156 32t-63 93q0 27 18 45t44 18q47 0 77 -68q27 -66 79 -66q101 1 122 109q17 90 17 175v645q1 78 -19 95t-106 17zM1024 1675q-373 0 -635 -263t-262 -634q0 -244 120 -450q121 -206 327 -327
q206 -120 450 -120t451 120t326 327q120 206 120 450t-120 451q-121 207 -327 327t-450 119zM1024 1731q195 0 372 -76t304 -204t202 -304q74 -176 74 -370q0 -193 -76 -369q-153 -355 -505 -506q-176 -76 -371 -76t-371 76q-354 153 -506 506q-75 176 -75 370t75 371
q153 353 506 506q176 76 371 76z" />
    <glyph glyph-name="Japan1.10349" unicode="&#x24c0;" 
d="M1483 322v-56h-221l-304 529l-88 -107v-256q0 -76 16 -93t89 -17v-56h-363v56q76 0 94 17q17 17 17 93v696q0 76 -17 94t-94 17v55h357v-55q-68 0 -83 -17t-16 -96v-335h2l277 333q57 70 57 93t-65 22v55h272v-55q-47 0 -71 -11t-60 -57l-227 -266l284 -479
q43 -70 68 -87t76 -17zM1024 1675q-373 0 -635 -263t-262 -634q0 -244 120 -450q121 -206 327 -327q206 -120 450 -120t451 120t326 327q120 206 120 450t-120 451q-121 207 -327 327t-450 119zM1024 1731q195 0 372 -76t304 -204t202 -304q74 -176 74 -370q0 -193 -76 -369
q-153 -355 -505 -506q-176 -76 -371 -76t-371 76q-354 153 -506 506q-75 176 -75 370t75 371q153 353 506 506q176 76 371 76z" />
    <glyph glyph-name="Japan1.10350" unicode="&#x24c1;" 
d="M645 266v56q78 0 95 17t18 95v696q0 76 -18 92t-95 17v55h373v-55q-78 0 -95 -16t-18 -95v-733q0 -43 9 -56t38 -13h273q67 0 89 28t50 150h72l-52 -238h-739zM1024 1675q-373 0 -635 -263t-262 -634q0 -244 120 -450q121 -206 327 -327q206 -120 450 -120t451 120
t326 327q120 206 120 450t-120 451q-121 207 -327 327t-450 119zM1024 1731q195 0 372 -76t304 -204t202 -304q74 -176 74 -370q0 -193 -76 -369q-153 -355 -505 -506q-176 -76 -371 -76t-371 76q-354 153 -506 506q-75 176 -75 370t75 371q153 353 506 506q176 76 371 76z
" />
    <glyph glyph-name="Japan1.10351" unicode="&#x24c2;" 
d="M1559 1294v-55q-70 0 -85 -17t-16 -96v-694q0 -76 16 -93t85 -17v-56h-330v56q66 0 80 17t14 93v698h-4l-297 -874h-57l-310 879h-2v-703q1 -76 15 -93t77 -17v-56h-256v56q70 0 85 17t16 93v703q0 72 -16 88t-85 16v55h238l297 -835h4l281 835h250zM1024 1675
q-373 0 -635 -263t-262 -634q0 -244 120 -450q121 -206 327 -327q206 -120 450 -120t451 120t326 327q120 206 120 450t-120 451q-121 207 -327 327t-450 119zM1024 1731q195 0 372 -76t304 -204t202 -304q74 -176 74 -370q0 -193 -76 -369q-153 -355 -505 -506
q-176 -76 -371 -76t-371 76q-354 153 -506 506q-75 176 -75 370t75 371q153 353 506 506q176 76 371 76z" />
    <glyph glyph-name="Japan1.10352" unicode="&#x24c3;" 
d="M1321 453v677q0 76 -18 92t-97 17v55h285v-55q-70 0 -87 -17t-18 -92v-878h-110l-539 891h-4v-711q1 -76 17 -93t92 -17v-56h-285v56q76 0 93 17t18 93v698q0 76 -16 92t-95 17v55h256l504 -841h4zM1024 1675q-373 0 -635 -263t-262 -634q0 -244 120 -450
q121 -206 327 -327q206 -120 450 -120t451 120t326 327q120 206 120 450t-120 451q-121 207 -327 327t-450 119zM1024 1731q195 0 372 -76t304 -204t202 -304q74 -176 74 -370q0 -193 -76 -369q-153 -355 -505 -506q-176 -76 -371 -76t-371 76q-354 153 -506 506
q-75 176 -75 370t75 371q153 353 506 506q176 76 371 76z" />
    <glyph glyph-name="Japan1.10353" unicode="&#x24c4;" 
d="M1024 1257q-311 0 -311 -475q0 -191 42 -283q22 -48 53 -96q68 -100 214 -100q80 0 139 34q174 100 174 445q0 256 -87 366t-224 109zM1029 246q-220 0 -345 129t-125 398t122 405t341 137q219 0 343 -133q124 -134 124 -398t-120 -401t-340 -137zM1024 1675
q-373 0 -635 -263t-262 -634q0 -244 120 -450q121 -206 327 -327q206 -120 450 -120t451 120t326 327q120 206 120 450t-120 451q-121 207 -327 327t-450 119zM1024 1731q195 0 372 -76t304 -204t202 -304q74 -176 74 -370q0 -193 -76 -369q-153 -355 -505 -506
q-176 -76 -371 -76t-371 76q-354 153 -506 506q-75 176 -75 370t75 371q153 353 506 506q176 76 371 76z" />
    <glyph glyph-name="Japan1.10354" unicode="&#x24c5;" 
d="M920 780h100q178 0 234 82q42 63 42 138q0 124 -70 184q-57 47 -274 47q-24 0 -28 -14t-4 -70v-367zM772 428v696q0 76 -18 94t-95 17v55h392q219 0 307 -73q92 -72 92 -208t-93 -212t-317 -76h-120v-293q0 -78 18 -94t113 -17v-55h-392v55q77 -1 95 17t18 94zM1024 1675
q-373 0 -635 -263t-262 -634q0 -244 120 -450q121 -206 327 -327q206 -120 450 -120t451 120t326 327q120 206 120 450t-120 451q-121 207 -327 327t-450 119zM1024 1731q195 0 372 -76t304 -204t202 -304q74 -176 74 -370q0 -193 -76 -369q-153 -355 -505 -506
q-176 -76 -371 -76t-371 76q-354 153 -506 506q-75 176 -75 370t75 371q153 353 506 506q176 76 371 76z" />
    <glyph glyph-name="Japan1.10355" unicode="&#x24c6;" 
d="M1333 815q0 459 -309 459q-133 0 -221 -96q-90 -111 -90 -363q0 -137 44 -271q29 -85 97 -136q68 -52 155 -52q159 -1 228 96t82 198q14 100 14 165zM559 815q0 256 122 386t339 130t343 -126t126 -389t-123 -392q-104 -109 -258 -121q58 -73 162 -91t172 11v-57
q-66 -20 -162 -20t-178 32q-84 33 -158 125q-132 12 -249 108q-62 52 -99 156t-37 248zM1024 1675q-373 0 -635 -263t-262 -634q0 -244 120 -450q121 -206 327 -327q206 -120 450 -120t451 120t326 327q120 206 120 450t-120 451q-121 207 -327 327t-450 119zM1024 1731
q195 0 372 -76t304 -204t202 -304q74 -176 74 -370q0 -193 -76 -369q-153 -355 -505 -506q-176 -76 -371 -76t-371 76q-354 153 -506 506q-75 176 -75 370t75 371q153 353 506 506q176 76 371 76z" />
    <glyph glyph-name="Japan1.10356" unicode="&#x24c7;" 
d="M883 1147v-348h88q276 0 276 229q0 70 -33 117q-63 90 -217 90h-77q-25 1 -31 -15t-6 -73zM625 1239v55h389q217 0 302 -80t85 -192t-78 -182q-78 -68 -184 -82l207 -338q43 -63 67 -81q25 -17 74 -17v-56h-215l-279 473h-110v-305q0 -78 17 -95t93 -17v-56h-368v56
q78 0 95 17t17 95v692q0 78 -17 96t-95 17zM1024 1675q-373 0 -635 -263t-262 -634q0 -244 120 -450q121 -206 327 -327q206 -120 450 -120t451 120t326 327q120 206 120 450t-120 451q-121 207 -327 327t-450 119zM1024 1731q195 0 372 -76t304 -204t202 -304
q74 -176 74 -370q0 -193 -76 -369q-153 -355 -505 -506q-176 -76 -371 -76t-371 76q-354 153 -506 506q-75 176 -75 370t75 371q153 353 506 506q176 76 371 76z" />
    <glyph glyph-name="Japan1.10357" unicode="&#x24c8;" 
d="M719 1048q0 56 13 93t44 79t100 68t183 27q114 0 207 -39q16 -115 32 -207l-65 -12q-25 113 -66 157t-127 43q-86 0 -139 -44t-53 -105q0 -89 65 -138t144 -91q164 -94 227 -167q64 -73 64 -184q0 -110 -86 -196t-269 -86q-127 0 -252 43q-16 115 -43 221l68 18
q31 -129 87 -178t131 -49q75 1 127 27q101 52 99 172q0 80 -47 125t-163 113t-160 102q-45 33 -83 93q-38 59 -38 115zM1024 1675q-373 0 -635 -263t-262 -634q0 -244 120 -450q121 -206 327 -327q206 -120 450 -120t451 120t326 327q120 206 120 450t-120 451
q-121 207 -327 327t-450 119zM1024 1731q195 0 372 -76t304 -204t202 -304q74 -176 74 -370q0 -193 -76 -369q-153 -355 -505 -506q-176 -76 -371 -76t-371 76q-354 153 -506 506q-75 176 -75 370t75 371q153 353 506 506q176 76 371 76z" />
    <glyph glyph-name="Japan1.10358" unicode="&#x24c9;" 
d="M1098 1210v-802q0 -76 19 -94t112 -17v-55h-410v55q94 0 113 16q18 16 18 95v802h-159q-63 0 -81 -25q-17 -26 -40 -153h-70l31 240h786l33 -240h-70q-23 125 -42 152t-81 26h-159zM1024 1675q-373 0 -635 -263t-262 -634q0 -244 120 -450q121 -206 327 -327
q206 -120 450 -120t451 120t326 327q120 206 120 450t-120 451q-121 207 -327 327t-450 119zM1024 1731q195 0 372 -76t304 -204t202 -304q74 -176 74 -370q0 -193 -76 -369q-153 -355 -505 -506q-176 -76 -371 -76t-371 76q-354 153 -506 506q-75 176 -75 370t75 371
q153 353 506 506q176 76 371 76z" />
    <glyph glyph-name="Japan1.10359" unicode="&#x24ca;" 
d="M1315 586v512q-1 76 -17 92t-86 16v56h271v-56q-70 0 -85 -16t-16 -92v-529q0 -356 -344 -356q-98 0 -170 25q-72 24 -110 58q-90 81 -90 290v512q0 76 -16 92t-87 16v56h357v-56q-74 0 -90 -16t-17 -92v-508q0 -170 68 -239t186 -68q246 0 246 303zM1024 1675
q-373 0 -635 -263t-262 -634q0 -244 120 -450q121 -206 327 -327q206 -120 450 -120t451 120t326 327q120 206 120 450t-120 451q-121 207 -327 327t-450 119zM1024 1731q195 0 372 -76t304 -204t202 -304q74 -176 74 -370q0 -193 -76 -369q-153 -355 -505 -506
q-176 -76 -371 -76t-371 76q-354 153 -506 506q-75 176 -75 370t75 371q153 353 506 506q176 76 371 76z" />
    <glyph glyph-name="Japan1.10360" unicode="&#x24cb;" 
d="M881 1184q-80 0 -80 -34q0 -18 14 -65l256 -718h4l242 712q14 43 14 67t-16 31t-60 7v57h234v-57q-41 0 -58 -14t-34 -64l-316 -916h-94l-334 897q-23 65 -40 81t-62 16v57h330v-57zM1024 1675q-373 0 -635 -263t-262 -634q0 -244 120 -450q121 -206 327 -327
q206 -120 450 -120t451 120t326 327q120 206 120 450t-120 451q-121 207 -327 327t-450 119zM1024 1731q195 0 372 -76t304 -204t202 -304q74 -176 74 -370q0 -193 -76 -369q-153 -355 -505 -506q-176 -76 -371 -76t-371 76q-354 153 -506 506q-75 176 -75 370t75 371
q153 353 506 506q176 76 371 76z" />
    <glyph glyph-name="Japan1.10361" unicode="&#x24cc;" 
d="M438 1192v57h277v-57q-39 0 -52 -7t-13 -25t9 -64l158 -703h4l176 737q-10 29 -16 38q-16 24 -63 24v57h290v-57q-39 0 -53 -7t-14 -25t10 -64l166 -699h2l154 693q8 36 8 62q1 26 -13 33t-51 7v57h193v-57q-30 0 -44 -14t-24 -66l-205 -913h-102l-199 809h-2l-196 -809
h-107l-219 901q-12 56 -26 74t-48 18zM1024 1675q-373 0 -635 -263t-262 -634q0 -244 120 -450q121 -206 327 -327q206 -120 450 -120t451 120t326 327q120 206 120 450t-120 451q-121 207 -327 327t-450 119zM1024 1731q195 0 372 -76t304 -204t202 -304q74 -176 74 -370
q0 -193 -76 -369q-153 -355 -505 -506q-176 -76 -371 -76t-371 76q-354 153 -506 506q-75 176 -75 370t75 371q153 353 506 506q176 76 371 76z" />
    <glyph glyph-name="Japan1.10362" unicode="&#x24cd;" 
d="M737 350q0 -29 84 -28v-56h-272v56q35 0 57 13t60 64l284 367l-237 367q-49 76 -72 91t-78 15v55h361v-55q-74 0 -74 -27q0 -20 41 -86l160 -247h2l200 260q41 51 41 71q0 29 -80 29v55h263v-55q-33 0 -51 -13t-60 -65l-274 -348l249 -375q51 -80 78 -98t78 -18v-56h-362
v56q74 0 73 28q0 23 -43 88l-172 260h-2l-215 -280q-39 -51 -39 -68zM1024 1675q-373 0 -635 -263t-262 -634q0 -244 120 -450q121 -206 327 -327q206 -120 450 -120t451 120t326 327q120 206 120 450t-120 451q-121 207 -327 327t-450 119zM1024 1731q195 0 372 -76
t304 -204t202 -304q74 -176 74 -370q0 -193 -76 -369q-153 -355 -505 -506q-176 -76 -371 -76t-371 76q-354 153 -506 506q-75 176 -75 370t75 371q153 353 506 506q176 76 371 76z" />
    <glyph glyph-name="Japan1.10363" unicode="&#x24ce;" 
d="M575 1204v58h345v-58q-84 0 -84 -28q0 -16 26 -64l211 -356h4l203 354q29 51 29 68q0 27 -70 26v58h236v-58q-39 0 -57 -14t-50 -68l-262 -442v-283q0 -76 18 -93t107 -17v-56h-400v56q90 0 109 17q18 17 18 93v279l-264 432q-39 64 -58 80t-61 16zM1024 1675
q-373 0 -635 -263t-262 -634q0 -244 120 -450q121 -206 327 -327q206 -120 450 -120t451 120t326 327q120 206 120 450t-120 451q-121 207 -327 327t-450 119zM1024 1731q195 0 372 -76t304 -204t202 -304q74 -176 74 -370q0 -193 -76 -369q-153 -355 -505 -506
q-176 -76 -371 -76t-371 76q-354 153 -506 506q-75 176 -75 370t75 371q153 353 506 506q176 76 371 76z" />
    <glyph glyph-name="Japan1.10364" unicode="&#x24cf;" 
d="M891 1235q-77 0 -99 -25t-51 -137h-69l43 221h647l24 -37l-561 -931h355q80 0 106 26t53 144h70l-45 -230h-705l-20 33l571 936h-319zM1024 1675q-373 0 -635 -263t-262 -634q0 -244 120 -450q121 -206 327 -327q206 -120 450 -120t451 120t326 327q120 206 120 450
t-120 451q-121 207 -327 327t-450 119zM1024 1731q195 0 372 -76t304 -204t202 -304q74 -176 74 -370q0 -193 -76 -369q-153 -355 -505 -506q-176 -76 -371 -76t-371 76q-354 153 -506 506q-75 176 -75 370t75 371q153 353 506 506q176 76 371 76z" />
    <glyph glyph-name="Japan1.10313" unicode="&#x24d0;" 
d="M813 598q0 -141 158 -141q100 0 194 90v287q-135 -31 -225 -74q-127 -63 -127 -162zM1317 940v-381q0 -109 53 -108q31 0 49 12l8 -57q-55 -25 -114 -25q-109 0 -135 92h-7q-100 -96 -258 -96q-104 0 -174 55t-69 143q0 121 98 185t299 110l107 23v68q0 170 -158 169
q-51 0 -88 -20q-36 -20 -54 -42t-42 -66t-60 -44q-37 0 -52 18t-15 42q0 57 80 114q81 56 237 56t226 -58t69 -190zM1024 1675q-373 0 -635 -263t-262 -634q0 -244 120 -450q121 -206 327 -327q206 -120 450 -120t451 120t326 327q120 206 120 450t-120 451
q-121 207 -327 327t-450 119zM1024 1731q195 0 372 -76t304 -204t202 -304q74 -176 74 -370q0 -193 -76 -369q-153 -355 -505 -506q-176 -76 -371 -76t-371 76q-354 153 -506 506q-75 176 -75 370t75 371q153 353 506 506q176 76 371 76z" />
    <glyph glyph-name="Japan1.10314" unicode="&#x24d1;" 
d="M1066 248q98 0 165 86q66 86 65 262q0 74 -16 140t-70 125q-54 58 -154 58t-194 -94v-485q106 -92 204 -92zM717 1174q-1 66 -15 82t-75 18v47q137 20 219 65l16 -8v-473h4q90 86 248 86q158 -1 246 -115t88 -286t-92 -290t-262 -118q-133 0 -248 88h-4l-109 -82l-16 9
v977zM1024 1675q-373 0 -635 -263t-262 -634q0 -244 120 -450q121 -206 327 -327q206 -120 450 -120t451 120t326 327q120 206 120 450t-120 451q-121 207 -327 327t-450 119zM1024 1731q195 0 372 -76t304 -204t202 -304q74 -176 74 -370q0 -193 -76 -369
q-153 -355 -505 -506q-176 -76 -371 -76t-371 76q-354 153 -506 506q-75 176 -75 370t75 371q153 353 506 506q176 76 371 76z" />
    <glyph glyph-name="Japan1.10315" unicode="&#x24d2;" 
d="M682 788q0 174 109 285t274 111q119 0 197 -51t77 -113q0 -60 -59 -62q-29 0 -43 14t-52 86q-38 70 -127 70t-157 -88t-67 -256q0 -110 28 -184t75 -104q75 -48 142 -50q136 1 232 132l51 -35q-37 -51 -68 -82t-94 -59t-145 -27q-193 0 -283 119q-90 120 -90 294z
M1024 1675q-373 0 -635 -263t-262 -634q0 -244 120 -450q121 -206 327 -327q206 -120 450 -120t451 120t326 327q120 206 120 450t-120 451q-121 207 -327 327t-450 119zM1024 1731q195 0 372 -76t304 -204t202 -304q74 -176 74 -370q0 -193 -76 -369q-153 -355 -505 -506
q-176 -76 -371 -76t-371 76q-354 153 -506 506q-75 176 -75 370t75 371q153 353 506 506q176 76 371 76z" />
    <glyph glyph-name="Japan1.10316" unicode="&#x24d3;" 
d="M997 936q-236 0 -235 -336q0 -160 61 -250t168 -90t193 111v456q-82 109 -187 109zM1184 918v260q0 70 -16 88t-87 18v49q129 8 226 64l20 -11v-1019q0 -66 15 -80t77 -17v-53q-137 0 -215 -27l-14 11l-2 88h-6q-88 -96 -236 -96q-106 0 -207 70q-129 91 -129 365
q0 146 90 260t269 113q121 0 213 -83h2zM1024 1675q-373 0 -635 -263t-262 -634q0 -244 120 -450q121 -206 327 -327q206 -120 450 -120t451 120t326 327q120 206 120 450t-120 451q-121 207 -327 327t-450 119zM1024 1731q195 0 372 -76t304 -204t202 -304q74 -176 74 -370
q0 -193 -76 -369q-153 -355 -505 -506q-176 -76 -371 -76t-371 76q-354 153 -506 506q-75 176 -75 370t75 371q153 353 506 506q176 76 371 76z" />
    <glyph glyph-name="Japan1.10317" unicode="&#x24d4;" 
d="M823 848h400q-6 279 -195 278q-84 0 -142 -68t-63 -210zM1374 788h-551q0 -164 65 -252t185 -87q166 0 248 139l53 -31q-51 -90 -136 -137t-177 -47q-209 -1 -299 115t-90 292t94 288q94 114 265 114t257 -109t86 -285zM1024 1675q-373 0 -635 -263t-262 -634
q0 -244 120 -450q121 -206 327 -327q206 -120 450 -120t451 120t326 327q120 206 120 450t-120 451q-121 207 -327 327t-450 119zM1024 1731q195 0 372 -76t304 -204t202 -304q74 -176 74 -370q0 -193 -76 -369q-153 -355 -505 -506q-176 -76 -371 -76t-371 76
q-354 153 -506 506q-75 176 -75 370t75 371q153 353 506 506q176 76 371 76z" />
    <glyph glyph-name="Japan1.10318" unicode="&#x24d5;" 
d="M870 356v537h-116v57h116v111q0 139 71 223t202 84q97 0 159 -47t62 -98q0 -29 -16 -47t-41 -18q-48 -1 -66 39q-6 15 -14 42q-25 72 -88 72q-123 0 -123 -258v-103h201v-57h-201v-541q0 -80 19 -98t110 -18v-54h-395v54q84 0 102 19t18 101zM1024 1675q-373 0 -635 -263
t-262 -634q0 -244 120 -450q121 -206 327 -327q206 -120 450 -120t451 120t326 327q120 206 120 450t-120 451q-121 207 -327 327t-450 119zM1024 1731q195 0 372 -76t304 -204t202 -304q74 -176 74 -370q0 -193 -76 -369q-153 -355 -505 -506q-176 -76 -371 -76t-371 76
q-354 153 -506 506q-75 176 -75 370t75 371q153 353 506 506q176 76 371 76z" />
    <glyph glyph-name="Japan1.10319" unicode="&#x24d6;" 
d="M1024 1675q-373 0 -635 -263t-262 -634q0 -244 120 -450q121 -206 327 -327q206 -120 450 -120t451 120t326 327q120 206 120 450t-120 451q-121 207 -327 327t-450 119zM1024 1731q195 0 372 -76t304 -204t202 -304q74 -176 74 -370q0 -193 -76 -369
q-153 -355 -505 -506q-176 -76 -371 -76t-371 76q-354 153 -506 506q-75 176 -75 370t75 371q153 353 506 506q176 76 371 76zM1087 526h-202q-137 -78 -137 -180q0 -76 70 -119t199 -43q130 0 207 58t76 139q0 145 -213 145zM1012 1276q-88 0 -140 -66t-51 -166t53 -164
q52 -65 141 -65t137 65t48 165q0 99 -50 165t-138 66zM926 633h186q172 1 248 -63t76 -156q0 -123 -118 -205t-308 -82t-291 53q-102 53 -103 152q0 72 54 127t131 84q-127 29 -127 121q0 84 123 151q-127 83 -127 223t96 216t230 77q134 0 206 -45l250 39v-96l-186 8
q86 -75 86 -201t-96 -201t-240 -75q-88 0 -154 28q-86 -43 -86 -90q0 -65 150 -65z" />
    <glyph glyph-name="Japan1.10320" unicode="&#x24d7;" 
d="M702 362v797q0 70 -16 86t-84 17v47q131 18 229 67l17 -12v-524h4q119 139 278 139q68 0 117 -23q49 -22 72 -50q51 -61 51 -214v-330q0 -78 14 -97t78 -19v-58h-323v58q59 0 72 18t14 98v326q0 134 -34 178q-34 43 -112 43q-109 0 -231 -164v-385q0 -76 14 -95t74 -19
v-58h-334v58q68 0 84 18t16 98zM1024 1675q-373 0 -635 -263t-262 -634q0 -244 120 -450q121 -206 327 -327q206 -120 450 -120t451 120t326 327q120 206 120 450t-120 451q-121 207 -327 327t-450 119zM1024 1731q195 0 372 -76t304 -204t202 -304q74 -176 74 -370
q0 -193 -76 -369q-153 -355 -505 -506q-176 -76 -371 -76t-371 76q-354 153 -506 506q-75 176 -75 370t75 371q153 353 506 506q176 76 371 76z" />
    <glyph glyph-name="Japan1.10321" unicode="&#x24d8;" 
d="M1120 385q0 -78 16 -96t93 -19v-57h-367v57q80 0 97 18t18 97v397q0 78 -16 94t-99 15v47q117 10 240 66l18 -9v-610zM1031 1393q50 0 85 -37t35 -88t-36 -86t-85 -35t-85 35t-36 86t36 88t86 37zM1024 1675q-373 0 -635 -263t-262 -634q0 -244 120 -450
q121 -206 327 -327q206 -120 450 -120t451 120t326 327q120 206 120 450t-120 451q-121 207 -327 327t-450 119zM1024 1731q195 0 372 -76t304 -204t202 -304q74 -176 74 -370q0 -193 -76 -369q-153 -355 -505 -506q-176 -76 -371 -76t-371 76q-354 153 -506 506
q-75 176 -75 370t75 371q153 353 506 506q176 76 371 76z" />
    <glyph glyph-name="Japan1.10322" unicode="&#x24d9;" 
d="M1044 590v235q0 81 -15 95t-97 14v47q133 14 242 68l16 -11v-432q0 -342 -133 -437q-59 -42 -143 -42t-150 42t-66 93q0 23 18 42t42 20q49 0 80 -71t77 -71q81 0 105 102t24 306zM1100 1436q51 0 85 -37t34 -88t-35 -86t-85 -35t-85 35t-35 87t35 88t86 36zM1024 1675
q-373 0 -635 -263t-262 -634q0 -244 120 -450q121 -206 327 -327q206 -120 450 -120t451 120t326 327q120 206 120 450t-120 451q-121 207 -327 327t-450 119zM1024 1731q195 0 372 -76t304 -204t202 -304q74 -176 74 -370q0 -193 -76 -369q-153 -355 -505 -506
q-176 -76 -371 -76t-371 76q-354 153 -506 506q-75 176 -75 370t75 371q153 353 506 506q176 76 371 76z" />
    <glyph glyph-name="Japan1.10323" unicode="&#x24da;" 
d="M897 623h4l244 233q37 33 37 47q0 20 -64 21v55h266v-55q-70 -2 -118 -50l-176 -163l262 -392q26 -43 54 -55t73 -12v-57h-232l-270 415l-80 -78v-165q0 -79 14 -97t82 -18v-57h-344v57q72 0 87 19t16 96v786q0 76 -18 95t-87 20v49q121 12 232 65l18 -10v-749z
M1024 1675q-373 0 -635 -263t-262 -634q0 -244 120 -450q121 -206 327 -327q206 -120 450 -120t451 120t326 327q120 206 120 450t-120 451q-121 207 -327 327t-450 119zM1024 1731q195 0 372 -76t304 -204t202 -304q74 -176 74 -370q0 -193 -76 -369q-153 -355 -505 -506
q-176 -76 -371 -76t-371 76q-354 153 -506 506q-75 176 -75 370t75 371q153 353 506 506q176 76 371 76z" />
    <glyph glyph-name="Japan1.10324" unicode="&#x24db;" 
d="M952 352v793q0 72 -17 87t-99 15v49q139 18 243 68l17 -14v-1000q0 -78 17 -97t93 -20v-57h-370v57q82 -1 99 19t17 100zM1024 1675q-373 0 -635 -263t-262 -634q0 -244 120 -450q121 -206 327 -327q206 -120 450 -120t451 120t326 327q120 206 120 450t-120 451
q-121 207 -327 327t-450 119zM1024 1731q195 0 372 -76t304 -204t202 -304q74 -176 74 -370q0 -193 -76 -369q-153 -355 -505 -506q-176 -76 -371 -76t-371 76q-354 153 -506 506q-75 176 -75 370t75 371q153 353 506 506q176 76 371 76z" />
    <glyph glyph-name="Japan1.10325" unicode="&#x24dc;" 
d="M1550 905v-356q0 -74 14 -90t68 -17v-57h-307v57q53 0 67 16t13 83v348q0 209 -121 209q-102 0 -182 -140v-409q0 -76 12 -91t70 -16v-57h-305v57q55 0 67 16t12 83v344q0 213 -118 213q-90 0 -181 -133v-416q-1 -74 13 -90t69 -17v-57h-323v57q68 0 83 18t15 97v391
q0 76 -16 94t-82 19v47q133 23 211 68l16 -11l8 -116h2q106 127 226 127q162 0 204 -140h7q100 139 241 140q217 -1 217 -271zM1024 1675q-373 0 -635 -263t-262 -634q0 -244 120 -450q121 -206 327 -327q206 -120 450 -120t451 120t326 327q120 206 120 450t-120 451
q-121 207 -327 327t-450 119zM1024 1731q195 0 372 -76t304 -204t202 -304q74 -176 74 -370q0 -193 -76 -369q-153 -355 -505 -506q-176 -76 -371 -76t-371 76q-354 153 -506 506q-75 176 -75 370t75 371q153 353 506 506q176 76 371 76z" />
    <glyph glyph-name="Japan1.10326" unicode="&#x24dd;" 
d="M1370 918v-365q0 -74 14 -93t76 -20v-55h-323v55q61 0 74 18t14 97v346q0 121 -44 159t-112 38q-109 0 -227 -158v-385q0 -80 13 -97t75 -18v-55h-334v55q72 0 86 18t14 97v391q0 78 -15 96t-83 19v47q152 27 217 70l19 -11l6 -137h4q127 145 276 146q250 0 250 -258z
M1024 1675q-373 0 -635 -263t-262 -634q0 -244 120 -450q121 -206 327 -327q206 -120 450 -120t451 120t326 327q120 206 120 450t-120 451q-121 207 -327 327t-450 119zM1024 1731q195 0 372 -76t304 -204t202 -304q74 -176 74 -370q0 -193 -76 -369q-153 -355 -505 -506
q-176 -76 -371 -76t-371 76q-354 153 -506 506q-75 176 -75 370t75 371q153 353 506 506q176 76 371 76z" />
    <glyph glyph-name="Japan1.10327" unicode="&#x24de;" 
d="M1024 428q242 0 242 349t-242 349t-242 -349t242 -349zM1415 760q-1 -192 -105 -289q-104 -98 -278 -98t-282 88q-115 103 -115 307t102 308t296 106q194 0 288 -115t94 -307zM1024 1675q-373 0 -635 -263t-262 -634q0 -244 120 -450q121 -206 327 -327
q206 -120 450 -120t451 120t326 327q120 206 120 450t-120 451q-121 207 -327 327t-450 119zM1024 1731q195 0 372 -76t304 -204t202 -304q74 -176 74 -370q0 -193 -76 -369q-153 -355 -505 -506q-176 -76 -371 -76t-371 76q-354 153 -506 506q-75 176 -75 370t75 371
q153 353 506 506q176 76 371 76z" />
    <glyph glyph-name="Japan1.10328" unicode="&#x24df;" 
d="M1083 1282q-103 0 -209 -111v-456q84 -102 207 -103q223 0 224 349q0 97 -24 165q-39 112 -131 144q-34 12 -67 12zM874 629v-283q0 -74 16 -92t85 -18v-56h-348v56q72 0 88 18t16 92v780q0 76 -16 94t-88 19v49q133 14 221 66l18 -13l6 -94h5q113 107 251 107t232 -104
q96 -104 96 -302q0 -199 -93 -302t-239 -103t-245 86h-5zM1024 1675q-373 0 -635 -263t-262 -634q0 -244 120 -450q121 -206 327 -327q206 -120 450 -120t451 120t326 327q120 206 120 450t-120 451q-121 207 -327 327t-450 119zM1024 1731q195 0 372 -76t304 -204t202 -304
q74 -176 74 -370q0 -193 -76 -369q-153 -355 -505 -506q-176 -76 -371 -76t-371 76q-354 153 -506 506q-75 176 -75 370t75 371q153 353 506 506q176 76 371 76z" />
    <glyph glyph-name="Japan1.10329" unicode="&#x24e0;" 
d="M1001 1290q-78 0 -130 -37t-72 -98q-35 -107 -35 -181q0 -362 231 -362q111 1 193 105v485q-74 88 -187 88zM1331 348q-1 -76 15 -94t84 -18v-56h-353v56q78 0 94 17t17 93v283h-4q-98 -84 -217 -84q-162 0 -258 103q-97 102 -97 292t94 302t283 112q123 0 238 -86h2
l86 84l16 -6v-998zM1024 1675q-373 0 -635 -263t-262 -634q0 -244 120 -450q121 -206 327 -327q206 -120 450 -120t451 120t326 327q120 206 120 450t-120 451q-121 207 -327 327t-450 119zM1024 1731q195 0 372 -76t304 -204t202 -304q74 -176 74 -370q0 -193 -76 -369
q-153 -355 -505 -506q-176 -76 -371 -76t-371 76q-354 153 -506 506q-75 176 -75 370t75 371q153 353 506 506q176 76 371 76z" />
    <glyph glyph-name="Japan1.10330" unicode="&#x24e1;" 
d="M1208 1182q62 0 104 -36t42 -71t-18 -54t-54 -19t-58 48q-22 50 -59 50q-80 0 -174 -137v-412q1 -74 19 -88t106 -14v-58h-368v58q72 0 86 14t14 90v403q0 72 -16 90t-84 19v49q147 23 219 68l16 -11l6 -120h2q104 131 217 131zM1024 1675q-373 0 -635 -263t-262 -634
q0 -244 120 -450q121 -206 327 -327q206 -120 450 -120t451 120t326 327q120 206 120 450t-120 451q-121 207 -327 327t-450 119zM1024 1731q195 0 372 -76t304 -204t202 -304q74 -176 74 -370q0 -193 -76 -369q-153 -355 -505 -506q-176 -76 -371 -76t-371 76
q-354 153 -506 506q-75 176 -75 370t75 371q153 353 506 506q176 76 371 76z" />
    <glyph glyph-name="Japan1.10331" unicode="&#x24e2;" 
d="M1337 621q0 -37 -9 -67q-55 -181 -322 -179q-137 0 -261 47q-8 57 -34 180l57 12q29 -102 84 -143t145 -41t141 40q50 40 50 100t-45 90t-174 79q-117 49 -173 101t-57 143q0 54 46 117q62 82 251 82q127 0 221 -37q15 -101 29 -164l-59 -12q-21 88 -63 123
q-42 34 -122 34t-124 -30q-46 -30 -46 -79q0 -50 48 -79t213 -94q152 -67 186 -144q18 -41 18 -79zM1024 1675q-373 0 -635 -263t-262 -634q0 -244 120 -450q121 -206 327 -327q206 -120 450 -120t451 120t326 327q120 206 120 450t-120 451q-121 207 -327 327t-450 119z
M1024 1731q195 0 372 -76t304 -204t202 -304q74 -176 74 -370q0 -193 -76 -369q-153 -355 -505 -506q-176 -76 -371 -76t-371 76q-354 153 -506 506q-75 176 -75 370t75 371q153 353 506 506q176 76 371 76z" />
    <glyph glyph-name="Japan1.10332" unicode="&#x24e3;" 
d="M766 999v56q92 6 133 56t68 173h57v-225h219v-60h-219v-516q0 -135 102 -135q59 0 123 51l33 -49q-88 -78 -201 -78q-203 0 -202 199v528h-113zM1024 1675q-373 0 -635 -263t-262 -634q0 -244 120 -450q121 -206 327 -327q206 -120 450 -120t451 120t326 327
q120 206 120 450t-120 451q-121 207 -327 327t-450 119zM1024 1731q195 0 372 -76t304 -204t202 -304q74 -176 74 -370q0 -193 -76 -369q-153 -355 -505 -506q-176 -76 -371 -76t-371 76q-354 153 -506 506q-75 176 -75 370t75 371q153 353 506 506q176 76 371 76z" />
    <glyph glyph-name="Japan1.10333" unicode="&#x24e4;" 
d="M1456 438v-51q-147 0 -219 -25l-12 7l-8 114h-5q-109 -121 -262 -121q-252 0 -252 289v299q0 76 -13 92t-79 17v47q129 18 217 68l19 -11v-491q0 -229 159 -230q113 0 211 125v385q0 74 -13 90t-77 17v47q121 16 217 68l17 -11v-606q0 -79 15 -99t85 -20zM1024 1675
q-373 0 -635 -263t-262 -634q0 -244 120 -450q121 -206 327 -327q206 -120 450 -120t451 120t326 327q120 206 120 450t-120 451q-121 207 -327 327t-450 119zM1024 1731q195 0 372 -76t304 -204t202 -304q74 -176 74 -370q0 -193 -76 -369q-153 -355 -505 -506
q-176 -76 -371 -76t-371 76q-354 153 -506 506q-75 176 -75 370t75 371q153 353 506 506q176 76 371 76z" />
    <glyph glyph-name="Japan1.10334" unicode="&#x24e5;" 
d="M618 1073v55h324v-55q-76 0 -76 -31q0 -18 17 -57l180 -465h6l197 490q8 29 8 34q0 29 -70 29v55h223v-55q-35 0 -50 -13t-40 -65l-270 -659h-80l-260 631q-29 72 -47 89t-62 17zM1024 1675q-373 0 -635 -263t-262 -634q0 -244 120 -450q121 -206 327 -327
q206 -120 450 -120t451 120t326 327q120 206 120 450t-120 451q-121 207 -327 327t-450 119zM1024 1731q195 0 372 -76t304 -204t202 -304q74 -176 74 -370q0 -193 -76 -369q-153 -355 -505 -506q-176 -76 -371 -76t-371 76q-354 153 -506 506q-75 176 -75 370t75 371
q153 353 506 506q176 76 371 76z" />
    <glyph glyph-name="Japan1.10335" unicode="&#x24e6;" 
d="M432 1073v55h313v-55q-76 0 -75 -37q0 -18 12 -53l156 -455h4l162 492q-12 37 -26 45t-67 8v55h318v-55q-43 0 -61 -7q-18 -6 -17 -26q0 -20 12 -51l142 -459h4l159 482q6 18 7 28q0 33 -74 33v55h217v-55q-36 -1 -52 -15t-32 -61l-221 -659h-90l-183 575h-2l-188 -575
h-90l-228 627q-25 74 -42 91t-58 17zM1024 1675q-373 0 -635 -263t-262 -634q0 -244 120 -450q121 -206 327 -327q206 -120 450 -120t451 120t326 327q120 206 120 450t-120 451q-121 207 -327 327t-450 119zM1024 1731q195 0 372 -76t304 -204t202 -304q74 -176 74 -370
q0 -193 -76 -369q-153 -355 -505 -506q-176 -76 -371 -76t-371 76q-354 153 -506 506q-75 176 -75 370t75 371q153 353 506 506q176 76 371 76z" />
    <glyph glyph-name="Japan1.10336" unicode="&#x24e7;" 
d="M811 471q0 -23 68 -22v-56h-252v56q35 0 57 13t55 56l207 258l-174 252q-35 53 -57 67q-23 13 -60 13v55h330v-55q-66 0 -65 -23q0 -12 26 -55l109 -162h4l131 172q25 31 24 47q0 20 -59 21v55h242v-55q-31 0 -53 -13t-54 -53l-194 -231l202 -279q41 -55 64 -69t55 -14
v-56h-336v56q66 0 66 22q0 12 -27 55l-131 193h-6l-154 -211q-18 -25 -18 -37zM1024 1675q-373 0 -635 -263t-262 -634q0 -244 120 -450q121 -206 327 -327q206 -120 450 -120t451 120t326 327q120 206 120 450t-120 451q-121 207 -327 327t-450 119zM1024 1731
q195 0 372 -76t304 -204t202 -304q74 -176 74 -370q0 -193 -76 -369q-153 -355 -505 -506q-176 -76 -371 -76t-371 76q-354 153 -506 506q-75 176 -75 370t75 371q153 353 506 506q176 76 371 76z" />
    <glyph glyph-name="Japan1.10337" unicode="&#x24e8;" 
d="M633 1235v55h336v-55q-78 0 -78 -31q0 -20 18 -57l201 -457h4l195 484q8 29 8 34q0 27 -72 27v55h232v-55q-39 0 -57 -14t-38 -64l-333 -803q-86 -219 -250 -219q-76 0 -121 32t-45 66q0 70 54 70q55 0 77 -53t61 -53q84 0 148 159l63 160l-286 614q-36 72 -54 88t-63 17
zM1024 1675q-373 0 -635 -263t-262 -634q0 -244 120 -450q121 -206 327 -327q206 -120 450 -120t451 120t326 327q120 206 120 450t-120 451q-121 207 -327 327t-450 119zM1024 1731q195 0 372 -76t304 -204t202 -304q74 -176 74 -370q0 -193 -76 -369q-153 -355 -505 -506
q-176 -76 -371 -76t-371 76q-354 153 -506 506q-75 176 -75 370t75 371q153 353 506 506q176 76 371 76z" />
    <glyph glyph-name="Japan1.10338" unicode="&#x24e9;" 
d="M1167 453q61 -1 86 31t50 132h61l-39 -223h-620l-21 27l481 688h-264q-63 0 -85 -28t-42 -122h-61l37 207h587l19 -26l-469 -686h280zM1024 1675q-373 0 -635 -263t-262 -634q0 -244 120 -450q121 -206 327 -327q206 -120 450 -120t451 120t326 327q120 206 120 450
t-120 451q-121 207 -327 327t-450 119zM1024 1731q195 0 372 -76t304 -204t202 -304q74 -176 74 -370q0 -193 -76 -369q-153 -355 -505 -506q-176 -76 -371 -76t-371 76q-354 153 -506 506q-75 176 -75 370t75 371q153 353 506 506q176 76 371 76z" />
    <glyph glyph-name="Japan1.8224" unicode="&#x24ea;" 
d="M1020 1307q-196 0 -229 -315q-10 -87 -11 -204q0 -328 80 -442q58 -84 162 -84t164 84q80 114 80 410t-56 424t-190 127zM1022 197q-209 0 -317 164q-41 61 -68 173t-27 257q0 580 412 579q160 0 266 -96q147 -139 148 -483q0 -594 -414 -594zM1024 1675
q-373 0 -635 -263t-262 -634q0 -244 120 -450q121 -206 327 -327q206 -120 450 -120t451 120t326 327q120 206 120 450t-120 451q-121 207 -327 327t-450 119zM1024 1731q195 0 372 -76t304 -204t202 -304q74 -176 74 -370q0 -193 -76 -369q-153 -355 -505 -506
q-176 -76 -371 -76t-371 76q-354 153 -506 506q-75 176 -75 370t75 371q153 353 506 506q176 76 371 76z" />
    <glyph glyph-name="Japan1.10515" unicode="&#x24eb;" 
d="M1272 1159q12 0 12 -63v-701q0 -66 -17 -80t-96 -14v-106h398v106q-72 0 -88 14t-17 80v963l-49 26q-113 -90 -258 -153l29 -115q68 43 86 43zM578 1159q12 0 12 -63v-701q0 -66 -18 -80t-95 -14v-106h397v106q-72 0 -88 14t-16 80v963l-49 26q-113 -90 -258 -153
l29 -115q68 43 86 43zM1024 1731q195 0 372 -76t304 -204t202 -304q74 -176 74 -370q0 -193 -76 -369q-153 -355 -505 -506q-176 -76 -371 -76t-371 76q-354 153 -506 506q-75 176 -75 370t75 371q153 353 506 506q176 76 371 76z" />
    <glyph glyph-name="Japan1.10516" unicode="&#x24ec;" 
d="M1309 1276q84 0 84 -207q0 -109 -88 -233t-128 -191q-106 -175 -137 -414l33 -36h486l28 292l-104 7q-13 -96 -25 -116t-55 -20h-213q31 133 137 254q10 12 72 83q61 71 92 116q86 129 86 261t-69 222q-70 90 -196 90t-195 -80t-69 -146q1 -122 85 -122q78 2 96 99
q23 141 80 141zM578 1159q12 0 12 -63v-701q0 -66 -18 -80t-95 -14v-106h397v106q-72 0 -88 14t-16 80v963l-49 26q-113 -90 -258 -153l29 -115q68 43 86 43zM1024 1731q195 0 372 -76t304 -204t202 -304q74 -176 74 -370q0 -193 -76 -369q-153 -355 -505 -506
q-176 -76 -371 -76t-371 76q-354 153 -506 506q-75 176 -75 370t75 371q153 353 506 506q176 76 371 76z" />
    <glyph glyph-name="Japan1.10517" unicode="&#x24ed;" 
d="M1135 1038q84 0 90 113q0 125 82 125t82 -182q0 -114 -44 -160q-19 -20 -61 -38t-102 -17v-107q129 0 177 -60t48 -197t-31 -185t-73 -49q-68 0 -80 89t-17 99q-20 53 -80 55q-90 0 -90 -112q0 -82 68 -161t204 -79t212 108q74 108 73 257q0 219 -170 301q53 27 97 90
q43 62 43 172t-66 197t-180 87t-187 -65q-80 -76 -79 -168q0 -113 84 -113zM578 1159q12 0 12 -63v-701q0 -66 -18 -80t-95 -14v-106h397v106q-72 0 -88 14t-16 80v963l-49 26q-113 -90 -258 -153l29 -115q68 43 86 43zM1024 1731q195 0 372 -76t304 -204t202 -304
q74 -176 74 -370q0 -193 -76 -369q-153 -355 -505 -506q-176 -76 -371 -76t-371 76q-354 153 -506 506q-75 176 -75 370t75 371q153 353 506 506q176 76 371 76z" />
    </font>
</defs>
</svg>
