<?xml version="1.0" standalone="no"?>
<!DOCTYPE svg PUBLIC "-//W3C//DTD SVG 1.1//EN" "http://www.w3.org/Graphics/SVG/1.1/DTD/svg11.dtd" >
<svg xmlns="http://www.w3.org/2000/svg">
<metadata>
Created by FontPrep 20130207 at Sun May 11 22:58:33 2014
 By Anton Strilchuk
</metadata>
<defs>
<font id="4b35db1b9b3aa761145b5ea59ce4a254" horiz-adv-x='1024' >
  <font-face 
    font-family="KozGoPro-Light-AlphaNum"
    font-weight="200"
    font-stretch="normal"
    units-per-em="2048"
    panose-1="2 0 3 3 0 0 0 0 0 0"
    ascent="1638"
    descent="-410"
    bbox="33 -170 1989 1726"
    underline-thickness="102"
    underline-position="-205"
    unicode-range="U+2150-1F189"
  />
<missing-glyph horiz-adv-x="745" 
d="M135 68h408v1228h-408v-1228zM68 0v1364h542v-1364h-542z" />
    <glyph glyph-name=".notdef" horiz-adv-x="745" 
d="M135 68h408v1228h-408v-1228zM68 0v1364h542v-1364h-542z" />
    <glyph glyph-name=".null" horiz-adv-x="0" vert-adv-y="0" 
 />
    <glyph glyph-name="nonmarkingreturn" horiz-adv-x="681" 
 />
    <glyph glyph-name="Japan1.9790" unicode="&#x2150;" 
d="M1276 745h694v-69l-452 -778h-123l450 755v4h-569v88zM1647 1659l-1147 -1761h-101l1147 1761h101zM459 797v764h-4l-201 -93l-29 80l242 109h96v-860h-104z" />
    <glyph glyph-name="Japan1.9800" unicode="&#x2151;" 
d="M1647 1659l-1147 -1761h-101l1147 1761h101zM459 797v766h-4l-201 -93l-29 80l242 109h96v-862h-104zM1866 430q0 110 -72 178t-197 68t-191 -56t-65 -152q0 -96 70 -144q70 -50 185 -50q114 0 192 56t78 100zM1348 -102v88q229 -15 402 124q95 77 112 193h-2
q-98 -111 -285 -110q-152 -1 -246 73t-94 200t98 210t265 84q168 0 270 -93t102 -266q0 -215 -162 -359t-460 -144z" />
    <glyph glyph-name="Japan1.9806" unicode="&#x2152;" 
d="M1133 -102v759h-5l-129 -65l-24 86l166 82h90v-862h-98zM410 797v764h-4l-199 -93l-27 80l236 109h94v-860h-100zM1507 1659l-1147 -1761h-100l1147 1761h100zM1663 -18h2q207 0 207 348t-203 348q-92 0 -148 -92q-57 -92 -57 -256t54 -256t145 -92zM1674 -102
q-140 0 -223 110t-84 319t85 321t223 112t216 -106t79 -318q0 -210 -78 -324t-218 -114z" />
    <glyph glyph-name="Japan1.9785" unicode="&#x2156;" 
d="M1958 745v-88h-438l-43 -221q25 6 104 6q157 0 273 -62t116 -196t-103 -211q-103 -75 -281 -75t-281 59l34 78q99 -49 233 -49t212 51t78 135q0 186 -324 186q-96 0 -174 -14l72 401h522zM1647 1659l-1147 -1761h-101l1147 1761h101zM770 811h-692v55l112 82
q268 197 356 281q87 84 87 170q0 172 -207 172q-145 0 -244 -98l-51 71q121 115 311 115q148 0 224 -74q76 -75 76 -177t-88 -197q-87 -95 -324 -267l-60 -41v-4h500v-88z" />
    <glyph glyph-name="Japan1.9786" unicode="&#x2157;" 
d="M1958 745v-88h-438l-43 -221q25 6 104 6q157 0 273 -62t116 -196t-103 -211q-103 -75 -281 -75t-281 59l34 78q99 -49 233 -49t212 51t78 135q0 186 -324 186q-96 0 -174 -14l72 401h522zM1647 1659l-1147 -1761h-101l1147 1761h101zM396 889q154 0 215 47q62 47 63 106
q0 164 -330 164h-96v88h98q113 0 198 36t85 98q1 62 -53 101q-54 38 -178 38t-236 -62l-41 80q119 74 290 74q171 1 251 -61t80 -140t-56 -131q-55 -53 -160 -72v-4q119 -6 192 -62q73 -57 73 -157q1 -100 -105 -168t-298 -68t-310 62l33 84q131 -53 285 -53z" />
    <glyph glyph-name="Japan1.9787" unicode="&#x2158;" 
d="M1958 745v-88h-438l-43 -221q25 6 104 6q157 0 273 -62t116 -196t-103 -211q-103 -75 -281 -75t-281 59l34 78q99 -49 233 -49t212 51t78 135q0 186 -324 186q-96 0 -174 -14l72 401h522zM1647 1659l-1147 -1761h-101l1147 1761h101zM199 1114h397v322q0 68 6 125h-4
q-115 -131 -197 -222l-202 -219v-6zM700 795h-104v235h-518v74l500 551h122v-541h160v-84h-160v-235z" />
    <glyph glyph-name="Japan1.9788" unicode="&#x2159;" 
d="M1647 1659l-1147 -1761h-101l1147 1761h101zM459 797v764h-4l-201 -93l-29 80l242 109h96v-860h-104zM1339 227q0 -107 72 -175t197 -68q124 0 190 55t66 150t-70 145t-184 49q-114 0 -193 -55q-78 -55 -78 -101zM1858 760v-86q-130 0 -232 -31t-158 -80
q-112 -97 -125 -207h3q98 111 267 111t263 -74t94 -201q0 -126 -98 -210t-265 -84t-271 94q-103 94 -103 264q0 208 160 356t465 148z" />
    <glyph glyph-name="Japan1.9789" unicode="&#x215a;" 
d="M729 1642v-88h-438l-43 -223q35 8 97 8q63 0 121 -10q278 -47 277 -254q0 -131 -104 -207q-103 -76 -283 -76t-278 60l35 80q94 -51 230 -51t214 51t78 135q0 188 -326 188q-80 0 -174 -16l74 403h520zM1647 1659l-1147 -1761h-101l1147 1761h101zM1339 227
q0 -107 72 -175t197 -68q124 0 190 55t66 150t-70 145t-184 49q-114 0 -193 -55q-78 -55 -78 -101zM1858 760v-86q-130 0 -232 -31t-158 -80q-112 -97 -125 -207h3q98 111 267 111t263 -74t94 -201q0 -126 -98 -210t-265 -84t-271 94q-103 94 -103 264q0 208 160 356
t465 148z" />
    <glyph glyph-name="Japan1.7575" unicode="&#x2160;" 
d="M963 1575h120v-1595h-120v1595z" />
    <glyph glyph-name="Japan1.7576" unicode="&#x2161;" 
d="M1266 1575h116v-1595h-116v1595zM666 1575h116v-1595h-116v1595z" />
    <glyph glyph-name="Japan1.7577" unicode="&#x2162;" 
d="M1460 1575h117v-1595h-117v1595zM965 1575h116v-1595h-116v1595zM469 1575h117v-1595h-117v1595z" />
    <glyph glyph-name="Japan1.7578" unicode="&#x2163;" 
d="M1280 -20h-123l-518 1595h127l276 -881q100 -315 179 -588h6q63 203 198 586l314 883h125zM319 1575h115v-1595h-115v1595z" />
    <glyph glyph-name="Japan1.7579" unicode="&#x2164;" 
d="M1053 -20h-131l-564 1595h129l306 -885q98 -289 196 -594h6q70 211 222 592l344 887h129z" />
    <glyph glyph-name="Japan1.7580" unicode="&#x2165;" 
d="M1614 1575h117v-1595h-117v1595zM823 -20h-123l-516 1595h125l279 -881q68 -221 178 -588h2q74 233 201 586l313 883h127z" />
    <glyph glyph-name="Japan1.7581" unicode="&#x2166;" 
d="M1747 1575h113v-1595h-113v1595zM1352 1575h112v-1595h-112v1595zM756 -20h-119l-526 1595h120l285 -879q104 -326 180 -577h4q82 315 158 577l248 879h119z" />
    <glyph glyph-name="Japan1.7582" unicode="&#x2167;" 
d="M1782 1575h102v-1595h-102v1595zM1460 1575h103v-1595h-103v1595zM1141 1575h104v-1595h-104v1595zM645 -20h-110l-459 1595h114l246 -879q76 -266 154 -569h4q55 262 133 569l213 879h113z" />
    <glyph glyph-name="Japan1.7583" unicode="&#x2168;" 
d="M1819 -20h-136l-235 376q-41 66 -93 151t-83 135t-51 87h-4q-25 -49 -211 -371l-220 -378h-133l504 821l-461 774h133l250 -428q23 -37 156 -273h2q82 152 154 271l249 430h136l-482 -774zM301 1575h117v-1595h-117v1595z" />
    <glyph glyph-name="Japan1.7584" unicode="&#x2169;" 
d="M1681 -20h-143l-278 378q-57 80 -107 152q-49 72 -93 135t-59 86h-4q-72 -117 -241 -371l-258 -380h-140l574 821l-524 774h141l285 -430q139 -207 182 -275h4q49 80 180 273l287 432h143l-547 -774z" />
    <glyph glyph-name="Japan1.8225" unicode="&#x216a;" 
d="M1632 1575h117v-1595h-117v1595zM1395 -20h-138l-233 376q-205 330 -229 373h-2q-47 -86 -211 -371l-220 -378h-133l504 821l-463 774h136l249 -428q68 -115 154 -273h4q82 152 154 271l250 430h133l-480 -774z" />
    <glyph glyph-name="Japan1.8226" unicode="&#x216b;" 
d="M1747 1575h113v-1595h-113v1595zM1360 1575h113v-1595h-113v1595zM1190 -20h-133l-209 372q-164 291 -205 371h-4q-24 -51 -88 -175t-100 -194l-197 -374h-129l457 821l-418 774h129l225 -426q41 -78 137 -270h2q90 178 138 268l223 428h131l-434 -772z" />
    <glyph glyph-name="Japan1.8092" unicode="&#x2170;" 
d="M1083 -20h-120v1148h120v-1148zM1022 1356q-43 0 -70 33q-26 33 -26 73t28 73q29 32 71 32t70 -32q27 -32 27 -74q0 -41 -28 -73t-72 -32z" />
    <glyph glyph-name="Japan1.8093" unicode="&#x2171;" 
d="M1386 -20h-118v1148h118v-1148zM780 -20h-118v1148h118v-1148zM1327 1358q-43 0 -70 33t-27 73t30 71q30 32 70 32t68 -31t28 -73q0 -41 -28 -73t-71 -32zM720 1358q-42 0 -69 33t-27 73t29 71q29 32 70 32t69 -31t28 -73q0 -41 -30 -73q-28 -32 -70 -32z" />
    <glyph glyph-name="Japan1.8094" unicode="&#x2172;" 
d="M1507 -20h-116v1148h116v-1148zM1081 -20h-116v1148h116v-1148zM655 -20h-116v1148h116v-1148zM1449 1360q-42 0 -69 32q-26 32 -26 72t28 71q29 32 69 32t69 -32q28 -32 28 -73q0 -42 -28 -72t-71 -30zM1023 1360q-42 0 -69 32q-26 32 -26 72t28 71q29 32 69 32t68 -31
q27 -31 27 -73q0 -43 -28 -73t-69 -30zM596 1360q-43 0 -70 32q-26 32 -26 72t29 71q30 32 70 32t68 -31q27 -31 27 -73q0 -43 -28 -73t-70 -30z" />
    <glyph glyph-name="Japan1.8095" unicode="&#x2173;" 
d="M729 1128h129l266 -684q27 -70 65 -174t56 -151h2q86 225 129 325l271 684h127l-484 -1148h-96zM520 -20h-117v1148h117v-1148zM464 1567q40 0 68 -31t27 -72q1 -40 -27 -72t-71 -32t-70 33t-27 71t30 71q30 32 70 32z" />
    <glyph glyph-name="Japan1.8096" unicode="&#x2174;" 
d="M463 1128h133l291 -698q90 -223 129 -334h6q76 197 137 334l299 698h129l-524 -1148h-98z" />
    <glyph glyph-name="Japan1.8097" unicode="&#x2175;" 
d="M1645 -20h-117v1148h117v-1148zM274 1128h129l265 -684q66 -172 120 -325h5q55 152 129 325l270 684h127l-483 -1148h-97zM1585 1360q-43 0 -69 33t-27 73q0 40 28 70q27 31 67 31t70 -32t30 -72q0 -39 -28 -71t-71 -32z" />
    <glyph glyph-name="Japan1.8098" unicode="&#x2176;" 
d="M1796 -20h-113v1148h113v-1148zM1430 -20h-113v1148h113v-1148zM197 1128h127l249 -684q57 -152 117 -327h2q14 39 56 149t67 178l262 684h123l-463 -1148h-98zM1739 1565q39 0 67 -30t29 -70q-1 -41 -27 -71t-69 -30t-69 32t-26 70t28 69q28 30 67 30zM1373 1364
q-43 0 -69 31t-26 71t28 69q28 30 66 30t68 -30q28 -30 28 -70q0 -41 -26 -71t-69 -30z" />
    <glyph glyph-name="Japan1.8099" unicode="&#x2177;" 
d="M1849 -20h-102v1148h102v-1148zM1552 -20h-102v1148h102v-1148zM1255 -20h-102v1148h102v-1148zM164 1128h110l224 -684q51 -164 100 -327h2q57 182 109 327l229 684h109l-408 -1148h-86zM1797 1366q-37 0 -63 32t-26 70t26 69q26 30 62 30t64 -31q26 -31 26 -70
q0 -40 -26 -70t-63 -30zM1500 1366q-38 0 -64 32t-25 70q0 38 26 69q27 30 63 30t63 -31t27 -70q0 -40 -26 -70t-64 -30zM1204 1366q-38 0 -64 32t-26 70t26 69q26 30 62 30t64 -31q26 -31 26 -70q0 -40 -24 -70t-64 -30z" />
    <glyph glyph-name="Japan1.8100" unicode="&#x2178;" 
d="M780 1128h129l201 -284q57 -82 131 -193h8q55 84 135 201l195 276h121l-391 -550l426 -598h-131l-209 292q-27 34 -158 228h-4q-109 -158 -156 -219l-217 -301h-127l441 593zM537 -20h-117v1148h117v-1148zM478 1360q-42 0 -70 32t-27 72q0 40 28 72q27 31 67 31t69 -32
t29 -73q0 -42 -28 -72q-26 -30 -68 -30z" />
    <glyph glyph-name="Japan1.8101" unicode="&#x2179;" 
d="M524 1128h142l221 -284q68 -88 145 -193h4q92 127 150 201l217 276h135l-440 -548l475 -600h-141l-232 292q-92 121 -172 228h-6q-111 -147 -170 -221l-242 -299h-139l490 593z" />
    <glyph glyph-name="Japan1.8298" unicode="&#x217a;" 
d="M1628 -20h-117v1148h117v-1148zM365 1128h127l200 -284q57 -82 131 -193h8q100 154 134 201l194 276h123l-393 -550l426 -598h-129l-209 292q-41 55 -158 228h-6q-121 -172 -154 -219l-217 -301h-129l441 593zM1569 1360q-43 0 -69 32t-26 72t29 71q29 32 69 32t68 -31
t27 -73q1 -43 -27 -73t-71 -30z" />
    <glyph glyph-name="Japan1.8299" unicode="&#x217b;" 
d="M1788 -20h-115v1148h115v-1148zM1421 -20h-114v1148h114v-1148zM254 1128h129l190 -284l125 -193h7q96 154 126 201l185 276h123l-375 -550l407 -598h-131l-200 292q-141 219 -146 228h-6q-45 -70 -145 -219l-209 -301h-125l420 593zM1729 1567q39 0 67 -31t29 -71
q-1 -41 -27 -71t-68 -30t-69 31t-27 71t28 70q28 31 67 31zM1363 1364q-42 0 -69 31q-26 31 -26 71t27 70q28 31 67 31t68 -31q28 -31 28 -71q0 -41 -26 -71t-69 -30z" />
    <glyph glyph-name="Japan1.9780" unicode="&#x2189;" 
d="M1817 534q0 140 -238 140q-129 0 -242 -66l-34 80q125 74 292 74t247 -62t81 -138q0 -77 -55 -130t-160 -74v-4q118 -4 190 -61t72 -158t-104 -169t-295 -68t-314 61l31 82q111 -55 278 -55q168 0 232 48t64 109q0 168 -336 168h-96v86h98q113 -2 201 36q88 37 88 101z
M1647 1659l-1147 -1761h-101l1147 1761h101zM702 1233q0 336 -256 336q-116 0 -186 -91t-70 -251t68 -252t195 -92q128 0 189 98q60 98 60 252zM450 795q-170 1 -271 113t-101 317t106 319t270 115q164 0 262 -109q97 -110 97 -316t-96 -323q-97 -116 -267 -116z" />
    <glyph glyph-name="Japan1.7555" unicode="&#x2460;" 
d="M995 252v960h-4l-168 -94l-20 80l192 107h99v-1053h-99zM1023 1667q-370 0 -629 -261t-259 -629q0 -367 260 -627t629 -260t629 260t260 628t-260 629q-260 260 -630 260zM1970 777q0 -392 -278 -668q-278 -277 -669 -277q-390 0 -668 278q-277 278 -277 668t277 669
q278 277 669 277t669 -277q277 -278 277 -670z" />
    <glyph glyph-name="Japan1.7556" unicode="&#x2461;" 
d="M1376 266h-704v64l106 92q291 258 379 361t88 201t-58 168q-59 69 -197 69t-251 -101l-34 68q135 119 309 119q92 0 161 -31t103 -78q65 -89 68 -184q0 -141 -94 -256t-367 -352l-68 -52v-4h559v-84zM1023 1667q-370 0 -629 -261t-259 -629q0 -367 260 -627t629 -260
t629 260t260 628t-260 629q-260 260 -630 260zM1970 777q0 -392 -278 -668q-278 -277 -669 -277q-390 0 -668 278q-277 278 -277 668t277 669q278 277 669 277t669 -277q277 -278 277 -670z" />
    <glyph glyph-name="Japan1.7557" unicode="&#x2462;" 
d="M975 332q88 0 150 26t89 68q46 69 48 129q-2 82 -56 135q-93 90 -282 90h-84v80h90q116 0 200 48t84 143q0 67 -52 119t-176 52t-228 -77l-31 74q45 37 123 63t158 25q160 0 234 -74t73 -162q0 -176 -205 -246v-4q114 -20 184 -95q70 -76 70 -184t-100 -200t-284 -92
t-298 78l33 80q111 -76 260 -76zM1023 1667q-370 0 -629 -261t-259 -629q0 -367 260 -627t629 -260t629 260t260 628t-260 629q-260 260 -630 260zM1970 777q0 -392 -278 -668q-278 -277 -669 -277q-390 0 -668 278q-277 278 -277 668t277 669q278 277 669 277t669 -277
q277 -278 277 -670z" />
    <glyph glyph-name="Japan1.7558" unicode="&#x2463;" 
d="M659 621h467v460l2 103l-4 2q-27 -43 -63 -94l-402 -467v-4zM1225 252h-99v289h-567v65l582 699h84v-684h168v-80h-168v-289zM1023 1667q-370 0 -629 -261t-259 -629q0 -367 260 -627t629 -260t629 260t260 628t-260 629q-260 260 -630 260zM1970 777q0 -392 -278 -668
q-278 -277 -669 -277q-390 0 -668 278q-277 278 -277 668t277 669q278 277 669 277t669 -277q277 -278 277 -670z" />
    <glyph glyph-name="Japan1.7559" unicode="&#x2464;" 
d="M1341 1290v-84h-436l-45 -303q66 12 117 12q174 0 279 -88q106 -87 106 -235t-111 -245t-273 -97t-282 74l35 77q103 -67 235 -67t213 72t81 179t-77 178t-243 71q-59 0 -174 -17l61 473h514zM1023 1667q-370 0 -629 -261t-259 -629q0 -367 260 -627t629 -260t629 260
t260 628t-260 629q-260 260 -630 260zM1970 777q0 -392 -278 -668q-278 -277 -669 -277q-390 0 -668 278q-277 278 -277 668t277 669q278 277 669 277t669 -277q277 -278 277 -670z" />
    <glyph glyph-name="Japan1.7560" unicode="&#x2465;" 
d="M1028 328q121 0 194 90q72 90 72 194t-71 176q-72 72 -185 72q-112 0 -200 -62t-88 -122t12 -112q32 -143 126 -202q58 -34 140 -34zM1286 1309v-92q-12 2 -41 2q-418 0 -491 -420l6 4q109 135 283 135t262 -96t88 -232q-1 -136 -107 -248t-269 -112t-264 108t-102 330
q0 322 213 500q150 121 422 121zM1023 1667q-370 0 -629 -261t-259 -629q0 -367 260 -627t629 -260t629 260t260 628t-260 629q-260 260 -630 260zM1970 777q0 -392 -278 -668q-278 -277 -669 -277q-390 0 -668 278q-277 278 -277 668t277 669q278 277 669 277t669 -277
q277 -278 277 -670z" />
    <glyph glyph-name="Japan1.7561" unicode="&#x2466;" 
d="M684 1290h684v-78l-526 -960h-101l527 950v4h-584v84zM1023 1667q-370 0 -629 -261t-259 -629q0 -367 260 -627t629 -260t629 260t260 628t-260 629q-260 260 -630 260zM1970 777q0 -392 -278 -668q-278 -277 -669 -277q-390 0 -668 278q-277 278 -277 668t277 669
q278 277 669 277t669 -277q277 -278 277 -670z" />
    <glyph glyph-name="Japan1.7562" unicode="&#x2467;" 
d="M1023 1667q-370 0 -629 -261t-259 -629q0 -367 260 -627t629 -260t629 260t260 628t-260 629q-260 260 -630 260zM1970 777q0 -392 -278 -668q-278 -277 -669 -277q-390 0 -668 278q-277 278 -277 668t277 669q278 277 669 277t669 -277q277 -278 277 -670zM748 549v-12
q0 -84 74 -148q75 -63 204 -63t202 63q72 63 72 157t-75 149q-76 54 -234 81q-117 -25 -180 -83t-63 -144zM1262 1049q0 68 -56 125t-172 57q-118 0 -182 -55t-64 -136q0 -160 263 -202q211 49 211 211zM1033 1307q145 0 235 -69t90 -181q0 -166 -199 -242v-6
q240 -68 240 -258q0 -141 -112 -221q-111 -80 -265 -80t-264 75t-109 210q1 186 230 270v4q-186 70 -187 227q0 117 98 194t243 77z" />
    <glyph glyph-name="Japan1.7563" unicode="&#x2468;" 
d="M1294 889q0 139 -68 239t-200 101q-133 0 -204 -89q-70 -88 -70 -194t70 -178t178 -72q106 0 200 56t94 137zM762 248v92q12 -2 39 -2q217 0 338 112t151 308l-6 -4q-104 -135 -297 -136q-158 0 -247 96t-89 232q0 135 108 248q109 113 271 113t262 -109
q100 -110 100 -344t-127 -400q-128 -166 -335 -192q-123 -14 -168 -14zM1023 1667q-370 0 -629 -261t-259 -629q0 -367 260 -627t629 -260t629 260t260 628t-260 629q-260 260 -630 260zM1970 777q0 -392 -278 -668q-278 -277 -669 -277q-390 0 -668 278q-277 278 -277 668
t277 669q278 277 669 277t669 -277q277 -278 277 -670z" />
    <glyph glyph-name="Japan1.7564" unicode="&#x2469;" 
d="M631 285v895h-2l-158 -90l-18 71l184 107h84v-983h-90zM1268 358q209 0 209 418t-205 418q-80 0 -144 -97t-63 -309q-1 -212 55 -321t148 -109zM1571 777q0 -241 -84 -367t-217 -127q-133 0 -214 127q-81 126 -82 364t87 367t222 129t211 -126t77 -367zM1023 1665
q-370 0 -629 -261t-259 -629t260 -628t629 -260t629 260t260 629t-260 629t-630 260zM1970 775q0 -392 -278 -669q-279 -276 -669 -276t-668 278q-277 278 -277 668t277 669q278 277 669 277t669 -277q277 -278 277 -670z" />
    <glyph glyph-name="Japan1.7565" unicode="&#x246a;" 
d="M1354 287v895h-4l-156 -90l-18 71l184 107h86v-983h-92zM649 287v895h-4l-153 -90l-21 71l184 107h86v-983h-92zM1023 1667q-370 0 -629 -261t-259 -629q0 -367 260 -627t629 -260t629 260t260 628t-260 629q-260 260 -630 260zM1970 777q0 -392 -278 -668
q-278 -277 -669 -277q-390 0 -668 278q-277 278 -277 668t277 669q278 277 669 277t669 -277q277 -278 277 -670z" />
    <glyph glyph-name="Japan1.7566" unicode="&#x246b;" 
d="M1542 299h-561v57l90 97q209 223 282 326t73 201q-1 213 -193 212q-102 0 -193 -76l-28 66q100 90 238 90t203 -81t65 -197t-80 -233q-80 -118 -273 -315l-65 -65v-4h442v-78zM631 287v895h-2l-156 -90l-20 71l186 107h82v-983h-90zM1023 1667q-370 0 -629 -261
t-259 -629q0 -367 260 -627t629 -260t629 260t260 628t-260 629q-260 260 -630 260zM1970 777q0 -392 -278 -668q-278 -277 -669 -277q-390 0 -668 278q-277 278 -277 668t277 669q278 277 669 277t669 -277q277 -278 277 -670z" />
    <glyph glyph-name="Japan1.7567" unicode="&#x246c;" 
d="M1212 365q124 0 181 63q55 63 54 153q-1 91 -80 143t-198 52h-57v76h57q92 0 167 48t75 126t-45 122t-140 44t-179 -59l-29 69q94 70 224 70t196 -66t66 -150t-48 -144q-47 -62 -131 -89v-2q95 -20 155 -87q60 -66 60 -174t-87 -192t-239 -83q-152 0 -235 61l27 74
q82 -55 206 -55zM631 287v895h-2l-156 -90l-20 71l186 107h82v-983h-90zM1023 1667q-370 0 -629 -261t-259 -629q0 -367 260 -627t629 -260t629 260t260 628t-260 629q-260 260 -630 260zM1970 777q0 -392 -278 -668q-278 -277 -669 -277q-390 0 -668 278q-277 278 -277 668
t277 669q278 277 669 277t669 -277q277 -278 277 -670z" />
    <glyph glyph-name="Japan1.7568" unicode="&#x246d;" 
d="M631 287v895h-2l-156 -90l-20 71l186 107h82v-983h-90zM1004 631h354v393q0 45 4 131l-4 2q-37 -70 -72 -121l-282 -401v-4zM1442 287h-84v270h-438v61l446 650h76v-637h137v-74h-137v-270zM1023 1667q-370 0 -629 -261t-259 -629q0 -367 260 -627t629 -260t629 260
t260 628t-260 629q-260 260 -630 260zM1970 777q0 -392 -278 -668q-278 -277 -669 -277q-390 0 -668 278q-277 278 -277 668t277 669q278 277 669 277t669 -277q277 -278 277 -670z" />
    <glyph glyph-name="Japan1.7569" unicode="&#x246e;" 
d="M1505 1257v-77h-338l-41 -283q61 6 74 6q127 0 221 -78q95 -78 95 -218t-94 -231t-229 -91q-136 0 -214 57l27 74q76 -51 181 -51q105 1 171 65t64 168t-67 167q-67 62 -194 62q-63 0 -125 -8l62 438h407zM631 287v895h-2l-158 -90l-18 71l184 107h84v-983h-90z
M1023 1667q-370 0 -629 -261t-259 -629q0 -367 260 -627t629 -260t629 260t260 628t-260 629q-260 260 -630 260zM1970 777q0 -392 -278 -668q-278 -277 -669 -277q-390 0 -668 278q-277 278 -277 668t277 669q278 277 669 277t669 -277q277 -278 277 -670z" />
    <glyph glyph-name="Japan1.7570" unicode="&#x246f;" 
d="M631 287v895h-2l-158 -90l-18 71l184 107h84v-983h-90zM1276 358q96 0 150 73t54 181t-52 168q-54 60 -140 60t-149 -52t-64 -112q0 -145 52 -232q53 -86 149 -86zM1571 614q0 -128 -83 -228t-213 -101q-130 0 -211 104t-81 293q0 289 164 457q51 55 123 86t114 38
t109 11v-86q-110 8 -228 -56q-67 -36 -118 -122t-70 -211l6 2q81 111 215 111t204 -85t69 -213zM1023 1667q-370 0 -629 -261t-259 -629q0 -367 260 -627t629 -260t629 260t260 628t-260 629q-260 260 -630 260zM1970 777q0 -392 -278 -668q-278 -277 -669 -277
q-390 0 -668 278q-277 278 -277 668t277 669q278 277 669 277t669 -277q277 -278 277 -670z" />
    <glyph glyph-name="Japan1.7571" unicode="&#x2470;" 
d="M1006 1257h553v-65l-416 -905h-88l409 889v4h-458v77zM631 287v895h-2l-158 -90l-18 71l184 107h84v-983h-90zM1023 1667q-370 0 -629 -261t-259 -629q0 -367 260 -627t629 -260t629 260t260 628t-260 629q-260 260 -630 260zM1970 777q0 -392 -278 -668
q-278 -277 -669 -277q-390 0 -668 278q-277 278 -277 668t277 669q278 277 669 277t669 -277q277 -278 277 -670z" />
    <glyph glyph-name="Japan1.7572" unicode="&#x2471;" 
d="M631 287v895h-2l-158 -90l-18 71l184 107h84v-983h-90zM1023 1667q-370 0 -629 -261t-259 -629q0 -367 260 -627t629 -260t629 260t260 628t-260 629q-260 260 -630 260zM1970 777q0 -392 -278 -668q-278 -277 -669 -277q-390 0 -668 278q-277 278 -277 668t277 669
q278 277 669 277t669 -277q277 -278 277 -670zM1065 557v-12q0 -80 55 -135q56 -56 150 -56t151 56t57 143q0 88 -56 141q-58 53 -171 86q-90 -27 -138 -86t-48 -137zM1278 1202q-86 0 -132 -50t-46 -120q0 -143 192 -196q158 55 158 198q0 68 -43 118t-129 50zM1282 1272
q118 0 186 -67t68 -163q0 -152 -164 -227v-6q195 -76 195 -252q0 -121 -88 -197t-212 -76t-208 72q-84 70 -84 185q-1 176 192 266l-2 4q-156 70 -155 213q0 108 78 178t194 70z" />
    <glyph glyph-name="Japan1.7573" unicode="&#x2472;" 
d="M631 287v895h-2l-158 -90l-18 71l184 107h84v-983h-90zM1279 1198q-97 0 -151 -76t-53 -180q0 -104 53 -164q52 -60 140 -61q88 0 150 52t63 112q-1 145 -53 231t-149 86zM1256 645q-132 0 -202 84t-69 213q0 129 83 229q83 101 214 101t211 -104t80 -294
q0 -289 -164 -456q-51 -55 -123 -86t-114 -38t-109 -11v86q149 -12 269 85t147 304l-4 -2q-87 -111 -219 -111zM1023 1667q-370 0 -629 -261t-259 -629q0 -367 260 -627t629 -260t629 260t260 628t-260 629q-260 260 -630 260zM1970 777q0 -392 -278 -668
q-278 -277 -669 -277q-390 0 -668 278q-277 278 -277 668t277 669q278 277 669 277t669 -277q277 -278 277 -670z" />
    <glyph glyph-name="Japan1.7574" unicode="&#x2473;" 
d="M956 299h-499v59l86 103q245 303 281 419q19 60 20 121q0 190 -166 191q-84 0 -164 -64l-25 68q88 76 208 76q119 0 179 -77t60 -176t-46 -199t-97 -169q-51 -68 -154 -190l-68 -80v-4h385v-78zM1373 362q75 0 116 69q67 113 67 325q0 438 -174 438q-76 0 -126 -104
t-50 -305t46 -312t121 -111zM1374 285q-126 0 -194 137q-68 138 -68 366t78 356t200 128t190 -126t69 -369q0 -243 -75 -367t-200 -125zM1023 1667q-370 0 -629 -261t-259 -629q0 -367 260 -627t629 -260t629 260t260 628t-260 629q-260 260 -630 260zM1970 777
q0 -392 -278 -668q-278 -277 -669 -277q-390 0 -668 278q-277 278 -277 668t277 669q278 277 669 277t669 -277q277 -278 277 -670z" />
    <glyph glyph-name="Japan1.8071" unicode="&#x2474;" 
d="M1014 59v1305h-6l-230 -135l-24 86l270 162h94v-1418h-104zM1681 -168v10q211 276 211 936t-211 936v10h78q211 -284 211 -946t-211 -946h-78zM367 1724v-10q-211 -276 -211 -936t211 -936v-10h-78q-211 284 -211 946t211 946h78z" />
    <glyph glyph-name="Japan1.8072" unicode="&#x2475;" 
d="M1274 1082q0 326 -279 325q-145 0 -280 -115l-41 78q146 131 336 131t282 -116t92 -288t-118 -355t-383 -457l-105 -107v-4h641v-94h-796v67l133 142q285 299 401 469q117 170 117 324zM1681 -168v10q211 276 211 936t-211 936v10h78q211 -284 211 -946t-211 -946h-78z
M367 1724v-10q-211 -276 -211 -936t211 -936v-10h-78q-211 284 -211 946t211 946h78z" />
    <glyph glyph-name="Japan1.8073" unicode="&#x2476;" 
d="M823 788v91h84q127 0 233 73q105 74 105 195t-63 191q-62 70 -198 69q-136 0 -255 -94l-41 82q131 106 312 106q182 0 270 -96t88 -217t-66 -209t-186 -135v-6q133 -27 221 -125t88 -256t-121 -280q-120 -122 -328 -122t-333 90l39 88q123 -84 289 -83q97 0 167 30
t106 80q67 91 69 207q0 160 -116 242t-282 79h-82zM1681 -168v10q211 276 211 936t-211 936v10h78q211 -284 211 -946t-211 -946h-78zM367 1724v-10q-211 -276 -211 -936t211 -936v-10h-78q-211 284 -211 946t211 946h78z" />
    <glyph glyph-name="Japan1.8074" unicode="&#x2477;" 
d="M1681 -168v10q211 276 211 936t-211 936v10h78q211 -284 211 -946t-211 -946h-78zM367 1724v-10q-211 -276 -211 -936t211 -936v-10h-78q-211 284 -211 946t211 946h78zM678 578h493v548q0 106 7 207h-4q-57 -104 -111 -188l-385 -563v-4zM1274 59h-105v428h-622v72
l633 938h94v-919h205v-91h-205v-428z" />
    <glyph glyph-name="Japan1.8075" unicode="&#x2478;" 
d="M1393 1477v-95h-492l-65 -436q57 8 110 8q184 0 321 -112q136 -113 136 -318t-132 -337t-325 -132t-301 86l39 86q121 -77 266 -77t245 99q99 99 97 262t-99 258t-286 95q-102 0 -178 -14l88 627h576zM1681 -168v10q211 276 211 936t-211 936v10h78q211 -284 211 -946
t-211 -946h-78zM367 1724v-10q-211 -276 -211 -936t211 -936v-10h-78q-211 284 -211 946t211 946h78z" />
    <glyph glyph-name="Japan1.8076" unicode="&#x2479;" 
d="M1681 -168v10q211 276 211 936t-211 936v10h78q211 -284 211 -946t-211 -946h-78zM367 1724v-10q-211 -276 -211 -936t211 -936v-10h-78q-211 284 -211 946t211 946h78zM721 637q1 -229 79 -361t220 -131q142 0 226 111q83 111 82 277q-1 165 -80 255t-207 90t-224 -80
q-96 -81 -96 -161zM1046 967q188 0 291 -123q103 -124 103 -312t-119 -332t-303 -144t-296 155q-112 156 -112 424q0 162 36 300q63 242 222 392q132 125 291 156q104 22 174 18v-100q-245 14 -409 -151t-203 -451l4 2q133 166 321 166z" />
    <glyph glyph-name="Japan1.8077" unicode="&#x247a;" 
d="M662 1477h784v-76l-600 -1342h-115l594 1317v6h-663v95zM1681 -168v10q211 276 211 936t-211 936v10h78q211 -284 211 -946t-211 -946h-78zM367 1724v-10q-211 -276 -211 -936t211 -936v-10h-78q-211 284 -211 946t211 946h78z" />
    <glyph glyph-name="Japan1.8078" unicode="&#x247b;" 
d="M1681 -168v10q211 276 211 936t-211 936v10h78q211 -284 211 -946t-211 -946h-78zM367 1724v-10q-211 -276 -211 -936t211 -936v-10h-78q-211 284 -211 946t211 946h78zM700 449v-13q0 -123 88 -208t237 -85t236 83t87 216t-87 211t-264 129q-141 -42 -219 -130t-78 -203
zM1036 1415q-133 0 -208 -76q-76 -77 -76 -189t78 -182t225 -108q246 84 245 297q0 104 -65 181q-66 77 -199 77zM645 1141q0 158 113 259q114 101 282 101t268 -97t99 -239q0 -223 -242 -336v-8q293 -119 293 -368q0 -174 -128 -286t-311 -112q-183 -1 -306 105t-123 268
q0 262 287 391v4q-119 53 -175 137t-57 181z" />
    <glyph glyph-name="Japan1.8079" unicode="&#x247c;" 
d="M1681 -168v10q211 276 211 936t-211 936v10h78q211 -284 211 -946t-211 -946h-78zM367 1724v-10q-211 -276 -211 -936t211 -936v-10h-78q-211 284 -211 946t211 946h78zM1327 920q-1 229 -79 360t-220 131t-226 -111q-83 -110 -82 -276t80 -256t207 -90t224 81t96 161z
M1002 590q-188 0 -291 123t-103 311t119 333q119 144 303 144q184 1 296 -155t112 -424q0 -162 -36 -300q-63 -243 -222 -393q-130 -123 -291 -155q-104 -23 -174 -19v101q245 -14 409 150t203 452l-4 -2q-133 -166 -321 -166z" />
    <glyph glyph-name="Japan1.8080" unicode="&#x247d;" 
d="M612 96v1258h-4l-205 -127l-20 80l246 153h82v-1364h-99zM1681 -168v10q211 276 211 936t-211 936v10h78q211 -284 211 -946t-211 -946h-78zM367 1724v-10q-211 -276 -211 -936t211 -936v-10h-78q-211 284 -211 946t211 946h78zM1290 190q111 0 163 171t52 424t-54 417
q-55 164 -161 164t-160 -165t-55 -423q1 -258 55 -423t160 -165zM1302 1464q144 0 225 -178t81 -518t-91 -508t-233 -168t-227 177q-84 177 -84 514t92 509q93 172 237 172z" />
    <glyph glyph-name="Japan1.8081" unicode="&#x247e;" 
d="M1407 96v1258h-4l-205 -127l-18 80l243 153h82v-1364h-98zM680 96v1258h-4l-207 -127l-18 80l245 153h82v-1364h-98zM1681 -168v10q211 276 211 936t-211 936v10h78q211 -284 211 -946t-211 -946h-78zM367 1724v-10q-211 -276 -211 -936t211 -936v-10h-78
q-211 284 -211 946t211 946h78z" />
    <glyph glyph-name="Japan1.8082" unicode="&#x247f;" 
d="M1587 113h-604v65l100 146q8 12 62 89q146 212 174 267q28 56 58 118q75 156 75 306q0 266 -201 266q-73 0 -134 -38q-15 -9 -22 -13t-19 -14t-15 -11l-29 78q102 92 238 92t213 -98q76 -98 76 -265q-1 -167 -95 -350t-266 -417l-88 -123v-4h477v-94zM612 96v1258h-4
l-205 -127l-20 80l246 153h82v-1364h-99zM1681 -168v10q211 276 211 936t-211 936v10h78q211 -284 211 -946t-211 -946h-78zM367 1724v-10q-211 -276 -211 -936t211 -936v-10h-78q-211 284 -211 946t211 946h78z" />
    <glyph glyph-name="Japan1.8083" unicode="&#x2480;" 
d="M1120 786v88h41q92 0 176 71t84 188t-51 177t-140 60t-181 -72l-31 82q92 84 227 84t210 -87t75 -203t-55 -200q-55 -85 -154 -130v-4q104 -27 175 -116t71 -247q-1 -157 -99 -271t-270 -114q-137 0 -231 68l32 88q94 -62 211 -62t184 83t66 216q0 301 -340 301zM612 96
v1258h-4l-205 -127l-20 80l246 153h82v-1364h-99zM1681 -168v10q211 276 211 936t-211 936v10h78q211 -284 211 -946t-211 -946h-78zM367 1724v-10q-211 -276 -211 -936t211 -936v-10h-78q-211 284 -211 946t211 946h78z" />
    <glyph glyph-name="Japan1.8084" unicode="&#x2481;" 
d="M612 96v1258h-4l-205 -127l-20 80l246 153h82v-1364h-99zM1681 -168v10q211 276 211 936t-211 936v10h78q211 -284 211 -946t-211 -946h-78zM367 1724v-10q-211 -276 -211 -936t211 -936v-10h-78q-211 284 -211 946t211 946h78zM1061 588h342v452q0 145 8 263h-6
q-53 -119 -111 -244l-233 -467v-4zM1497 113h-94v385h-451v71l451 891h94v-872h152v-90h-152v-385z" />
    <glyph glyph-name="Japan1.8085" unicode="&#x2482;" 
d="M1565 1444v-94h-361l-61 -408q14 4 53 4t82 -10t93 -39t91 -71t68 -116t26 -165q0 -203 -105 -328t-255 -125t-229 62l30 86q88 -54 193 -54q104 0 182 92t78 254t-83 245t-222 83q-35 0 -109 -6l88 590h441zM612 96v1258h-4l-205 -127l-20 80l246 153h82v-1364h-99z
M1681 -168v10q211 276 211 936t-211 936v10h78q211 -284 211 -946t-211 -946h-78zM367 1724v-10q-211 -276 -211 -936t211 -936v-10h-78q-211 284 -211 946t211 946h78z" />
    <glyph glyph-name="Japan1.8086" unicode="&#x2483;" 
d="M612 96v1258h-4l-205 -127l-20 80l246 153h82v-1364h-99zM1681 -168v10q211 276 211 936t-211 936v10h78q211 -284 211 -946t-211 -946h-78zM367 1724v-10q-211 -276 -211 -936t211 -936v-10h-78q-211 284 -211 946t211 946h78zM1300 180q80 0 142 84q61 84 61 258
t-56 252q-55 76 -149 76t-155 -73t-62 -126q-1 -235 59 -353t160 -118zM1536 1464v-100q-196 0 -312 -161t-143 -398h4q97 131 231 131t212 -109t78 -291t-88 -312q-88 -132 -234 -132t-226 151t-81 384q0 397 169 617t390 220z" />
    <glyph glyph-name="Japan1.8087" unicode="&#x2484;" 
d="M993 1444h600v-60l-438 -1271h-98l422 1233v4h-486v94zM612 96v1258h-4l-205 -127l-20 80l246 153h82v-1364h-99zM1681 -168v10q211 276 211 936t-211 936v10h78q211 -284 211 -946t-211 -946h-78zM367 1724v-10q-211 -276 -211 -936t211 -936v-10h-78q-211 284 -211 946
t211 946h78z" />
    <glyph glyph-name="Japan1.8088" unicode="&#x2485;" 
d="M612 96v1258h-4l-205 -127l-20 80l246 153h82v-1364h-99zM1681 -168v10q211 276 211 936t-211 936v10h78q211 -284 211 -946t-211 -946h-78zM367 1724v-10q-211 -276 -211 -936t211 -936v-10h-78q-211 284 -211 946t211 946h78zM1286 176q106 0 170 71t64 195t-62 202
q-62 77 -182 140q-92 -49 -156 -135q-64 -87 -63 -205q-1 -118 61 -193t168 -75zM1299 1380q-91 0 -144 -66t-53 -168q0 -103 56 -168t155 -114q174 104 174 279q0 104 -48 171q-49 66 -140 66zM1308 1464q130 0 204 -94t73 -215q0 -203 -201 -326v-6q238 -141 238 -366
q0 -154 -96 -259q-96 -106 -244 -106t-238 102t-90 238q0 241 242 393v4q-94 55 -144 137t-51 171q1 145 89 236t218 91z" />
    <glyph glyph-name="Japan1.8089" unicode="&#x2486;" 
d="M612 96v1258h-4l-205 -127l-20 80l246 153h82v-1364h-99zM1681 -168v10q211 276 211 936t-211 936v10h78q211 -284 211 -946t-211 -946h-78zM367 1724v-10q-211 -276 -211 -936t211 -936v-10h-78q-211 284 -211 946t211 946h78zM1507 905q1 235 -59 353t-154 118
t-152 -94t-58 -257t56 -241q58 -78 150 -78t155 73q62 73 62 126zM1053 92v101q188 -1 308 157t146 402h-4q-98 -131 -231 -131q-133 1 -212 109t-79 290t89 313q88 131 234 131t227 -150t81 -384q0 -394 -169 -616t-390 -222z" />
    <glyph glyph-name="Japan1.8090" unicode="&#x2487;" 
d="M932 113h-545v61l92 150q2 4 75 118t100 171q28 57 57 115t40 97t33 114t23 187q0 111 -48 179t-134 67q-83 0 -148 -52q-18 -15 -20 -15l-27 77q82 82 209 82t199 -94t72 -261t-80 -344q-79 -177 -234 -421l-84 -135v-4h420v-92zM1681 -168v10q211 276 211 936t-211 936
v10h78q211 -284 211 -946t-211 -946h-78zM367 1724v-10q-211 -276 -211 -936t211 -936v-10h-78q-211 284 -211 946t211 946h78zM1354 1368q-98 0 -146 -165t-49 -424q1 -259 49 -425t148 -166t147 172t47 424t-49 418t-147 166zM1346 92q-131 0 -208 177t-77 516t83 509
t216 170t211 -174t78 -519t-86 -512t-217 -167z" />
    <glyph glyph-name="Japan1.8062" unicode="&#x2488;" 
d="M1888 -16q-82 0 -82 94q0 42 23 68t59 26q82 0 82 -94t-82 -94zM999 -23v1444h-4l-301 -174l-41 92l363 213h106v-1575h-123z" />
    <glyph glyph-name="Japan1.8063" unicode="&#x2489;" 
d="M1888 -16q-82 0 -82 94q0 42 23 68t59 26q82 0 82 -94t-82 -94zM1040 1556q199 0 316 -120t117 -287q0 -168 -97 -335q-97 -166 -483 -513q-49 -45 -74 -68l-143 -124v-5h842v-104h-1029v80l164 147q360 328 463 439q227 247 227 467q0 137 -88 227t-233 90
q-215 0 -393 -203l-72 80q98 115 211 172t272 57z" />
    <glyph glyph-name="Japan1.8064" unicode="&#x248a;" 
d="M1888 -16q-82 0 -82 94q0 42 23 68t59 26q82 0 82 -94t-82 -94zM745 752v98h125q172 0 300 89t128 239q0 120 -80 198t-233 78q-106 0 -209 -43t-164 -102l-51 88q68 67 188 113t248 46q209 0 319 -105t110 -249t-83 -246q-82 -100 -247 -139v-4q174 -23 284 -123
t109 -266q0 -166 -119 -300q-59 -67 -170 -109t-254 -42q-274 0 -444 146l57 92q154 -135 375 -135t322 106t102 234q0 331 -490 336h-123z" />
    <glyph glyph-name="Japan1.8065" unicode="&#x248b;" 
d="M1888 -16q-82 0 -82 94q0 42 23 68t59 26q82 0 82 -94t-82 -94zM1196 463v680q0 82 8 258h-10q-63 -115 -152 -244l-477 -688l-2 -6h633zM1319 -23h-123v385h-784v82l778 1108h129v-1089h266v-101h-266v-385z" />
    <glyph glyph-name="Japan1.8066" unicode="&#x248c;" 
d="M1888 -16q-82 0 -82 94q0 42 23 68t59 26q82 0 82 -94t-82 -94zM1446 1530v-105h-637l-68 -475q129 14 172 15q162 0 278 -46t174 -122q108 -142 108 -312q0 -225 -155 -368t-417 -144q-113 0 -218 34t-161 77l47 100q158 -110 342 -110t308 106q123 106 123 290
t-118 291q-118 105 -352 105q-118 1 -251 -28l96 692h729z" />
    <glyph glyph-name="Japan1.8067" unicode="&#x248d;" 
d="M1888 -16q-82 0 -82 94q0 42 23 68t59 26q82 0 82 -94t-82 -94zM1004 899q-168 -1 -280 -109t-112 -192q2 -248 110 -387t283 -139t275 112t100 306q0 196 -103 303q-104 106 -273 106zM1036 995q207 0 341 -136t134 -358t-135 -375q-136 -153 -368 -153t-377 175
t-145 446t103 489q60 127 152 225t250 169q158 70 359 79l10 -110q-270 12 -488 -173q-217 -186 -258 -491h4q62 94 172 154t246 59z" />
    <glyph glyph-name="Japan1.8068" unicode="&#x248e;" 
d="M1888 -16q-82 0 -82 94q0 42 23 68t59 26q82 0 82 -94t-82 -94zM510 1530h985v-92l-696 -1438h-142l699 1419v6h-846v105z" />
    <glyph glyph-name="Japan1.8069" unicode="&#x248f;" 
d="M1888 -16q-82 0 -82 94q0 42 23 68t59 26q82 0 82 -94t-82 -94zM996 70q190 0 298 97t109 239t-105 227q-106 84 -325 127q-183 -35 -283 -129t-100 -226t107 -234q109 -101 299 -101zM1008 1460q-174 0 -268 -86t-95 -208q0 -122 91 -198q91 -77 286 -114
q145 35 236 118q92 83 92 199q0 117 -84 203t-258 86zM522 1151q0 176 140 291q140 114 349 114q210 0 335 -106t124 -268q0 -254 -286 -367v-6q176 -53 263 -155t87 -236q0 -201 -160 -323t-381 -122t-377 113t-155 305q0 139 86 246t254 168v6q-279 104 -279 340z" />
    <glyph glyph-name="Japan1.8070" unicode="&#x2490;" 
d="M1888 -16q-82 0 -82 94q0 42 23 68t59 26q82 0 82 -94t-82 -94zM991 1458q-176 0 -276 -112q-101 -112 -101 -307q0 -196 104 -302t272 -106q167 0 281 106t113 195q-2 248 -109 387q-108 139 -284 139zM1511 934q0 -268 -100 -481q-59 -129 -151 -227t-250 -171
q-158 -72 -363 -82l-10 111q266 -12 485 172t260 492h-4q-63 -94 -173 -154t-244 -62q-207 0 -341 138t-134 359q0 222 134 375q136 152 370 152t377 -177q144 -177 144 -445z" />
    <glyph glyph-name="Japan1.8112" unicode="&#x249c;" 
d="M1681 -168v10q211 276 211 936t-211 936v10h78q211 -284 211 -946t-211 -946h-78zM367 1724v-10q-211 -276 -211 -936t211 -936v-10h-78q-211 284 -211 946t211 946h78zM1276 537v231q-185 0 -334 -52q-176 -62 -176 -235q0 -93 58 -149t159 -56t177 56t110 143
q6 23 6 62zM1384 848v-393q0 -160 19 -260h-105l-14 167h-4q-39 -76 -124 -124t-214 -48t-206 84t-77 199q0 181 156 279t459 98q0 322 -254 321q-141 0 -256 -81l-33 79q131 88 303 88q350 1 350 -409z" />
    <glyph glyph-name="Japan1.8113" unicode="&#x249d;" 
d="M1683 -168v10q211 276 211 936t-211 936v10h76q211 -284 211 -946t-211 -946h-76zM365 1724v-10q-211 -276 -211 -936t211 -936v-10h-76q-211 284 -211 946t211 946h76zM778 668v-250q0 -94 70 -200t200 -107q130 0 204 128q75 128 75 316t-73 314q-74 126 -196 126
t-201 -100t-79 -227zM670 270v1264h108v-635h4q45 92 124 140t175 48q160 0 257 -141q98 -141 98 -395t-110 -393t-265 -140q-201 0 -287 185h-6l-8 -180h-98q8 122 8 247z" />
    <glyph glyph-name="Japan1.8114" unicode="&#x249e;" 
d="M653 715q1 239 139 391t355 151q158 0 235 -55l-34 -88q-94 53 -211 53q-171 0 -273 -133q-102 -132 -102 -322t102 -311t264 -120q118 0 220 57l30 -88q-109 -59 -264 -60q-207 0 -334 144t-127 381zM1683 -168v10q211 276 211 936t-211 936v10h76q211 -284 211 -946
t-211 -946h-76zM365 1724v-10q-211 -276 -211 -936t211 -936v-10h-76q-211 284 -211 946t211 946h76z" />
    <glyph glyph-name="Japan1.8115" unicode="&#x249f;" 
d="M1683 -168v10q211 276 211 936t-211 936v10h76q211 -284 211 -946t-211 -946h-76zM365 1724v-10q-211 -276 -211 -936t211 -936v-10h-76q-211 284 -211 946t211 946h76zM1268 426v246q0 145 -76 234t-180 89q-133 0 -208 -128t-75 -316t71 -314t196 -126q124 0 198 97
t74 218zM1268 1534h108v-1264q0 -121 8 -247h-96l-8 182h-6q-94 -186 -291 -187q-160 0 -261 140t-101 391q0 250 108 393q109 143 277 143t258 -155h4v604z" />
    <glyph glyph-name="Japan1.8116" unicode="&#x24a0;" 
d="M1683 -168v10q211 276 211 936t-211 936v10h76q211 -284 211 -946t-211 -946h-76zM365 1724v-10q-211 -276 -211 -936t211 -936v-10h-76q-211 284 -211 946t211 946h76zM729 815h590q4 141 -65 249t-209 108t-221 -110q-81 -108 -95 -247zM1423 810q0 -62 -2 -79h-692
q-8 -219 96 -336q103 -117 253 -117t265 62l25 -86q-114 -64 -310 -64t-317 142t-121 384t123 392t310 149q109 0 187 -46t114 -120q69 -140 69 -281z" />
    <glyph glyph-name="Japan1.8117" unicode="&#x24a1;" 
d="M989 23h-108v911h-154v86h154q0 236 50 334q26 51 66 92q100 90 242 90q102 0 168 -39l-33 -84q-60 33 -128 33q-132 0 -185 -81t-63 -164q-9 -82 -9 -181h293v-86h-293v-911zM1683 -168v10q211 276 211 936t-211 936v10h76q211 -284 211 -946t-211 -946h-76zM365 1724
v-10q-211 -276 -211 -936t211 -936v-10h-76q-211 284 -211 946t211 946h76z" />
    <glyph glyph-name="Japan1.8118" unicode="&#x24a2;" 
d="M1683 -168v10q211 276 211 936t-211 936v10h76q211 -284 211 -946t-211 -946h-76zM365 1724v-10q-211 -276 -211 -936t211 -936v-10h-76q-211 284 -211 946t211 946h76zM1270 698v260q0 121 -74 208t-178 87q-129 1 -208 -121t-79 -315t77 -309t206 -117q100 0 178 86
t78 221zM1380 1036v-602q0 -280 -56 -380q-28 -50 -71 -99q-88 -100 -271 -99t-284 72l33 88q103 -70 241 -70t218 94q80 93 80 288v137h-4q-80 -162 -279 -162q-166 0 -265 140t-99 384t115 381q116 137 270 138q190 0 270 -168h4l4 165h100q-6 -215 -6 -307z" />
    <glyph glyph-name="Japan1.8119" unicode="&#x24a3;" 
d="M668 23v1511h110v-633h4q41 78 123 132t181 54t194 -72q53 -40 87 -127t34 -208v-657h-111v649q0 139 -55 231t-167 92t-202 -82q-88 -82 -88 -233v-657h-110zM1683 -168v10q211 276 211 936t-211 936v10h76q211 -284 211 -946t-211 -946h-76zM365 1724v-10
q-211 -276 -211 -936t211 -936v-10h-76q-211 284 -211 946t211 946h76z" />
    <glyph glyph-name="Japan1.8120" unicode="&#x24a4;" 
d="M1077 51h-108v1063h108v-1063zM1112 1407q0 -39 -26 -69t-65 -29q-38 -1 -62 29q-23 30 -23 68t27 68t61 30t62 -30q26 -28 26 -67zM1683 -168v10q211 276 211 936t-211 936v10h76q211 -284 211 -946t-211 -946h-76zM365 1724v-10q-211 -276 -211 -936t211 -936v-10h-76
q-211 284 -211 946t211 946h76z" />
    <glyph glyph-name="Japan1.8121" unicode="&#x24a5;" 
d="M997 463v692h109v-762q0 -189 -36 -285t-109 -152q-100 -73 -252 -77l-13 86q239 7 284 215q17 84 17 283zM1051 1364q-37 0 -62 30t-25 68t27 68q27 29 63 29t62 -29t25 -68q-1 -38 -27 -68t-63 -30zM1683 -168v10q211 276 211 936t-211 936v10h76q211 -284 211 -946
t-211 -946h-76zM365 1724v-10q-211 -276 -211 -936t211 -936v-10h-76q-211 284 -211 946t211 946h76z" />
    <glyph glyph-name="Japan1.8122" unicode="&#x24a6;" 
d="M799 1534v-965h4q51 77 94 123l336 393h127l-393 -444l440 -618h-127l-387 546l-94 -110v-436h-109v1511h109zM1683 -168v10q211 276 211 936t-211 936v10h76q211 -284 211 -946t-211 -946h-76zM365 1724v-10q-211 -276 -211 -936t211 -936v-10h-76q-211 284 -211 946
t211 946h76z" />
    <glyph glyph-name="Japan1.8123" unicode="&#x24a7;" 
d="M969 23v1511h108v-1511h-108zM1683 -168v10q211 276 211 936t-211 936v10h76q211 -284 211 -946t-211 -946h-76zM365 1724v-10q-211 -276 -211 -936t211 -936v-10h-76q-211 284 -211 946t211 946h76z" />
    <glyph glyph-name="Japan1.8124" unicode="&#x24a8;" 
d="M535 193v806q0 129 -11 256h88l4 -135h9q61 137 218 137t201 -143h7q57 143 233 143q104 0 167 -73q62 -74 62 -236v-755h-102v704q0 199 -70 244q-35 23 -94 23t-108 -47q-49 -46 -62 -134q-4 -37 -4 -106v-684h-100v716q0 117 -34 186t-130 68q-68 0 -114 -49t-56 -149
q-2 -33 -2 -93v-679h-102zM1683 -168v10q211 276 211 936t-211 936v10h76q211 -284 211 -946t-211 -946h-76zM365 1724v-10q-211 -276 -211 -936t211 -936v-10h-76q-211 284 -211 946t211 946h76z" />
    <glyph glyph-name="Japan1.8125" unicode="&#x24a9;" 
d="M882 1204q84 51 186 51t201 -72q54 -40 88 -126t34 -207v-657h-111v647q0 141 -56 233t-172 92t-200 -86t-84 -227v-659h-111v798l-6 264h97l6 -188h4q41 86 124 137zM1683 -168v10q211 276 211 936t-211 936v10h76q211 -284 211 -946t-211 -946h-76zM365 1724v-10
q-211 -276 -211 -936t211 -936v-10h-76q-211 284 -211 946t211 946h76z" />
    <glyph glyph-name="Japan1.8126" unicode="&#x24aa;" 
d="M1683 -168v10q211 276 211 936t-211 936v10h76q211 -284 211 -946t-211 -946h-76zM365 1724v-10q-211 -276 -211 -936t211 -936v-10h-76q-211 284 -211 946t211 946h76zM727 723q0 -183 78 -315t216 -132t219 138t81 313q0 232 -122 366q-71 77 -174 77t-173 -74
q-125 -132 -125 -373zM1430 719q0 -257 -124 -393t-292 -136t-282 142t-114 394q0 251 120 391t293 140t286 -140t113 -398z" />
    <glyph glyph-name="Japan1.8127" unicode="&#x24ab;" 
d="M1683 -168v10q211 276 211 936t-211 936v10h76q211 -284 211 -946t-211 -946h-76zM365 1724v-10q-211 -276 -211 -936t211 -936v-10h-76q-211 284 -211 946t211 946h76zM776 922v-234q0 -121 71 -219t201 -98t204 128q75 128 75 316t-74 314t-209 126q-88 -1 -162 -71
t-94 -176q-12 -53 -12 -86zM668 -121v1125q0 164 -9 339h105l6 -188h4q98 190 297 191q164 0 264 -140q101 -140 101 -397q0 -256 -108 -393t-286 -137t-260 161h-6v-561h-108z" />
    <glyph glyph-name="Japan1.8128" unicode="&#x24ac;" 
d="M1683 -168v10q211 276 211 936t-211 936v10h76q211 -284 211 -946t-211 -946h-76zM365 1724v-10q-211 -276 -211 -936t211 -936v-10h-76q-211 284 -211 946t211 946h76zM1270 688v248q0 152 -79 236t-179 83q-137 0 -214 -126t-77 -316t73 -316t214 -126q106 0 184 93
t78 224zM1270 -121v567h-4q-33 -72 -107 -120t-174 -47q-164 0 -268 139q-105 139 -105 394t118 394t284 140q90 0 161 -46t107 -124l4 -2l4 169h101q-10 -113 -11 -307v-1157h-110z" />
    <glyph glyph-name="Japan1.8129" unicode="&#x24ad;" 
d="M770 193v606q0 315 -10 456h104l6 -315h9q127 317 405 317q43 0 84 -10v-98q-25 8 -70 8q-46 0 -72 -2t-76 -19q-50 -18 -87 -50t-82 -98t-78 -161q-25 -57 -24 -125v-509h-109zM1683 -168v10q211 276 211 936t-211 936v10h76q211 -284 211 -946t-211 -946h-76zM365 1724
v-10q-211 -276 -211 -936t211 -936v-10h-76q-211 284 -211 946t211 946h76z" />
    <glyph glyph-name="Japan1.8130" unicode="&#x24ae;" 
d="M978 276q148 0 221 62t73 142q0 81 -62 127t-220 90q-156 44 -221 114q-65 71 -65 175t95 188q94 84 258 84t282 -70l-36 -82q-113 66 -237 66t-189 -56q-66 -55 -66 -133t56 -121t213 -88t228 -116q70 -70 70 -186t-103 -199t-285 -83t-322 78l32 88q130 -80 278 -80z
M1683 -168v10q211 276 211 936t-211 936v10h76q211 -284 211 -946t-211 -946h-76zM365 1724v-10q-211 -276 -211 -936t211 -936v-10h-76q-211 284 -211 946t211 946h76z" />
    <glyph glyph-name="Japan1.8131" unicode="&#x24af;" 
d="M995 1188h328v-86h-328v-658q0 -217 166 -217q78 0 133 19l13 -80q-74 -29 -158 -29q-264 0 -264 326v639h-189v86h189v188l110 37v-225zM1683 -168v10q211 276 211 936t-211 936v10h76q211 -284 211 -946t-211 -946h-76zM365 1724v-10q-211 -276 -211 -936t211 -936v-10
h-76q-211 284 -211 946t211 946h76z" />
    <glyph glyph-name="Japan1.8132" unicode="&#x24b0;" 
d="M1391 1255v-788q0 -115 8 -274l-96 -3l-9 179h-2q-106 -178 -317 -179q-135 0 -226 96t-92 337v632h111v-612q0 -360 233 -360q111 0 195 86t84 217v669h111zM1683 -168v10q211 276 211 936t-211 936v10h76q211 -284 211 -946t-211 -946h-76zM365 1724v-10
q-211 -276 -211 -936t211 -936v-10h-76q-211 284 -211 946t211 946h76z" />
    <glyph glyph-name="Japan1.8133" unicode="&#x24b1;" 
d="M625 1255h114l203 -655q47 -156 76 -270h6q45 156 84 270l205 655h108l-358 -1060h-90zM1683 -168v10q211 276 211 936t-211 936v10h76q211 -284 211 -946t-211 -946h-76zM365 1724v-10q-211 -276 -211 -936t211 -936v-10h-76q-211 284 -211 946t211 946h76z" />
    <glyph glyph-name="Japan1.8134" unicode="&#x24b2;" 
d="M483 1255h105l127 -540q47 -197 73 -332h7q63 301 69 328l129 544h70l125 -526q41 -170 76 -346h8q37 176 74 336l118 536h95l-259 -1062h-67l-150 598q-25 113 -51 296h-8q-12 -80 -55 -305l-142 -589h-73zM1683 -168v10q211 276 211 936t-211 936v10h76
q211 -284 211 -946t-211 -946h-76zM365 1724v-10q-211 -276 -211 -936t211 -936v-10h-76q-211 284 -211 946t211 946h76z" />
    <glyph glyph-name="Japan1.8135" unicode="&#x24b3;" 
d="M672 1255h116l240 -448h6q68 129 105 197l135 251h110l-301 -520l310 -542h-117l-148 266l-106 205h-2q-57 -115 -107 -205l-147 -266h-111l312 538zM1683 -168v10q211 276 211 936t-211 936v10h76q211 -284 211 -946t-211 -946h-76zM365 1724v-10q-211 -276 -211 -936
t211 -936v-10h-76q-211 284 -211 946t211 946h76z" />
    <glyph glyph-name="Japan1.8136" unicode="&#x24b4;" 
d="M969 346q0 24 -11 55l-323 951h117l206 -660q61 -195 66 -211h4q10 35 38 113t36 104l198 654h113l-248 -727q-10 -31 -35 -95t-39 -111q-14 -48 -37 -95q-22 -47 -38 -86q-16 -40 -28 -58t-37 -67q-26 -49 -91 -111q-88 -90 -172 -123l-37 88q70 31 128 81t92 98t66 112
t32 88zM1683 -168v10q211 276 211 936t-211 936v10h76q211 -284 211 -946t-211 -946h-76zM365 1724v-10q-211 -276 -211 -936t211 -936v-10h-76q-211 284 -211 946t211 946h76z" />
    <glyph glyph-name="Japan1.8137" unicode="&#x24b5;" 
d="M676 211v65l469 719q17 17 58 83q41 65 40 67h-524v92h653v-66l-473 -722q-47 -80 -94 -142v-6h567v-90h-696zM1683 -168v10q211 276 211 936t-211 936v10h76q211 -284 211 -946t-211 -946h-76zM365 1724v-10q-211 -276 -211 -936t211 -936v-10h-76q-211 284 -211 946
t211 946h76z" />
    <glyph glyph-name="Japan1.10339" unicode="&#x24b6;" 
d="M854 715h340l-109 280q-37 86 -57 156h-6q-14 -49 -55 -150zM1219 639h-392l-131 -344h-102l393 1008h78l389 -1008h-102zM1023 1667q-370 0 -629 -261t-259 -629q0 -367 260 -627t629 -260t629 260t260 628t-260 629q-260 260 -630 260zM1970 777q0 -392 -278 -668
q-278 -277 -669 -277q-390 0 -668 278q-277 278 -277 668t277 669q278 277 669 277t669 -277q277 -278 277 -670z" />
    <glyph glyph-name="Japan1.10340" unicode="&#x24b7;" 
d="M1023 1667q-370 0 -629 -261t-259 -629q0 -367 260 -627t629 -260t629 260t260 628t-260 629q-260 260 -630 260zM1970 777q0 -392 -278 -668q-278 -277 -669 -277q-390 0 -668 278q-277 278 -277 668t277 669q278 277 669 277t669 -277q277 -278 277 -670zM793 754v-389
q47 -8 180 -9q358 0 358 199t-334 199h-204zM793 829h243q121 -1 187 53q65 54 65 130t-47 120t-106 55t-146 11t-196 -14v-355zM987 1274q397 0 397 -258q0 -70 -54 -133t-134 -84v-4q86 -13 162 -69t76 -164t-70 -180q-46 -48 -148 -75q-102 -28 -262 -28t-256 12v958
q115 25 289 25z" />
    <glyph glyph-name="Japan1.10341" unicode="&#x24b8;" 
d="M1100 1204q-194 0 -310 -122t-116 -309t112 -303t301 -116q146 0 238 47l31 -75q-100 -54 -302 -54t-342 132t-140 356t142 374q142 151 390 150q156 0 250 -49l-35 -78q-98 47 -219 47zM1023 1667q-370 0 -629 -261t-259 -629q0 -367 260 -627t629 -260t629 260t260 628
t-260 629q-260 260 -630 260zM1970 777q0 -392 -278 -668q-278 -277 -669 -277q-390 0 -668 278q-277 278 -277 668t277 669q278 277 669 277t669 -277q277 -278 277 -670z" />
    <glyph glyph-name="Japan1.10342" unicode="&#x24b9;" 
d="M1395 788q1 196 -105 303q-106 108 -323 107q-98 0 -174 -14v-815q49 -10 153 -11q227 0 338 117t111 313zM1497 792q0 -218 -129 -360q-145 -152 -440 -151q-132 0 -230 8v966q156 20 267 21q283 0 411 -139q121 -127 121 -345zM1023 1667q-370 0 -629 -261t-259 -629
q0 -367 260 -627t629 -260t629 260t260 628t-260 629q-260 260 -630 260zM1970 777q0 -392 -278 -668q-278 -277 -669 -277q-390 0 -668 278q-277 278 -277 668t277 669q278 277 669 277t669 -277q277 -278 277 -670z" />
    <glyph glyph-name="Japan1.10343" unicode="&#x24ba;" 
d="M1325 848v-80h-537v-399h592v-80h-688v979h662v-80h-566v-340h537zM1023 1667q-370 0 -629 -261t-259 -629q0 -367 260 -627t629 -260t629 260t260 628t-260 629q-260 260 -630 260zM1970 777q0 -392 -278 -668q-278 -277 -669 -277q-390 0 -668 278q-277 278 -277 668
t277 669q278 277 669 277t669 -277q277 -278 277 -670z" />
    <glyph glyph-name="Japan1.10344" unicode="&#x24bb;" 
d="M688 274v994h698v-80h-602v-348h545v-80h-545v-486h-96zM1023 1667q-370 0 -629 -261t-259 -629q0 -367 260 -627t629 -260t629 260t260 628t-260 629q-260 260 -630 260zM1970 777q0 -392 -278 -668q-278 -277 -669 -277q-390 0 -668 278q-277 278 -277 668t277 669
q278 277 669 277t669 -277q277 -278 277 -670z" />
    <glyph glyph-name="Japan1.10345" unicode="&#x24bc;" 
d="M1092 702v80h317v-452q-119 -57 -315 -58q-252 0 -385 142t-133 358t142 364t408 148q143 0 252 -49l-30 -78q-102 45 -232 45q-204 0 -322 -120t-118 -308t114 -305t310 -117q133 0 215 35v315h-223zM1023 1667q-370 0 -629 -261t-259 -629q0 -367 260 -627t629 -260
t629 260t260 628t-260 629q-260 260 -630 260zM1970 777q0 -392 -278 -668q-278 -277 -669 -277q-390 0 -668 278q-277 278 -277 668t277 669q278 277 669 277t669 -277q277 -278 277 -670z" />
    <glyph glyph-name="Japan1.10346" unicode="&#x24bd;" 
d="M643 1282h96v-434h570v434h96v-1008h-96v492h-570v-492h-96v1008zM1023 1667q-370 0 -629 -261t-259 -629q0 -367 260 -627t629 -260t629 260t260 628t-260 629q-260 260 -630 260zM1970 777q0 -392 -278 -668q-278 -277 -669 -277q-390 0 -668 278q-277 278 -277 668
t277 669q278 277 669 277t669 -277q277 -278 277 -670z" />
    <glyph glyph-name="Japan1.10347" unicode="&#x24be;" 
d="M977 1282h94v-1008h-94v1008zM1023 1667q-370 0 -629 -261t-259 -629q0 -367 260 -627t629 -260t629 260t260 628t-260 629q-260 260 -630 260zM1970 777q0 -392 -278 -668q-278 -277 -669 -277q-390 0 -668 278q-277 278 -277 668t277 669q278 277 669 277t669 -277
q277 -278 277 -670z" />
    <glyph glyph-name="Japan1.10348" unicode="&#x24bf;" 
d="M1145 684v598h94v-596q0 -414 -330 -414q-102 0 -174 39l31 78q70 -35 147 -35q232 0 232 330zM1023 1667q-370 0 -629 -261t-259 -629q0 -367 260 -627t629 -260t629 260t260 628t-260 629q-260 260 -630 260zM1970 777q0 -392 -278 -668q-278 -277 -669 -277
q-390 0 -668 278q-277 278 -277 668t277 669q278 277 669 277t669 -277q277 -278 277 -670z" />
    <glyph glyph-name="Japan1.10349" unicode="&#x24c0;" 
d="M682 274v1008h96v-491l2 -3q29 35 88 99l373 395h131l-424 -430l471 -578h-127l-411 514l-103 -104v-410h-96zM1023 1667q-370 0 -629 -261t-259 -629q0 -367 260 -627t629 -260t629 260t260 628t-260 629q-260 260 -630 260zM1970 777q0 -392 -278 -668
q-278 -277 -669 -277q-390 0 -668 278q-277 278 -277 668t277 669q278 277 669 277t669 -277q277 -278 277 -670z" />
    <glyph glyph-name="Japan1.10350" unicode="&#x24c1;" 
d="M690 289v993h96v-913h590v-80h-686zM1023 1667q-370 0 -629 -261t-259 -629q0 -367 260 -627t629 -260t629 260t260 628t-260 629q-260 260 -630 260zM1970 777q0 -392 -278 -668q-278 -277 -669 -277q-390 0 -668 278q-277 278 -277 668t277 669q278 277 669 277
t669 -277q277 -278 277 -670z" />
    <glyph glyph-name="Japan1.10351" unicode="&#x24c2;" 
d="M1430 274l-31 469q-14 264 -13 398h-2q-55 -170 -120 -332l-213 -530h-68l-205 516q-70 188 -110 335h-4q-2 -131 -17 -399l-31 -457h-94l78 1008h90l221 -561q90 -248 105 -299h6l111 299l229 561h88l76 -1008h-96zM1023 1667q-370 0 -629 -261t-259 -629
q0 -367 260 -627t629 -260t629 260t260 628t-260 629q-260 260 -630 260zM1970 777q0 -392 -278 -668q-278 -277 -669 -277q-390 0 -668 278q-277 278 -277 668t277 669q278 277 669 277t669 -277q277 -278 277 -670z" />
    <glyph glyph-name="Japan1.10352" unicode="&#x24c3;" 
d="M737 274h-90v1008h90l408 -588q41 -61 166 -270l4 2q-4 113 -4 369v487h90v-1008h-86l-397 570q-66 96 -179 297l-6 -2q4 -92 4 -367v-498zM1023 1667q-370 0 -629 -261t-259 -629q0 -367 260 -627t629 -260t629 260t260 628t-260 629q-260 260 -630 260zM1970 777
q0 -392 -278 -668q-278 -277 -669 -277q-390 0 -668 278q-277 278 -277 668t277 669q278 277 669 277t669 -277q277 -278 277 -670z" />
    <glyph glyph-name="Japan1.10353" unicode="&#x24c4;" 
d="M1023 352q167 0 261 124t94 299t-93 302t-262 127t-261 -127t-92 -304t93 -299t260 -122zM1481 775q1 -231 -135 -367t-330 -136t-321 138q-128 138 -128 362t132 368t331 144t325 -139t126 -370zM1023 1667q-370 0 -629 -261t-259 -629q0 -367 260 -627t629 -260
t629 260t260 628t-260 629q-260 260 -630 260zM1970 777q0 -392 -278 -668q-278 -277 -669 -277q-390 0 -668 278q-277 278 -277 668t277 669q278 277 669 277t669 -277q277 -278 277 -670z" />
    <glyph glyph-name="Japan1.10354" unicode="&#x24c5;" 
d="M994 756q146 0 234 61q87 61 87 170t-95 160t-226 51t-201 -12v-414q55 -16 201 -16zM698 274v983q321 43 483 -3q228 -66 228 -263q0 -145 -88 -219q-113 -94 -348 -94q-125 0 -180 12v-416h-95zM1023 1667q-370 0 -629 -261t-259 -629q0 -367 260 -627t629 -260
t629 260t260 628t-260 629q-260 260 -630 260zM1970 777q0 -392 -278 -668q-278 -277 -669 -277q-390 0 -668 278q-277 278 -277 668t277 669q278 277 669 277t669 -277q277 -278 277 -670z" />
    <glyph glyph-name="Japan1.10355" unicode="&#x24c6;" 
d="M1021 358q165 0 261 122t96 296t-93 298t-261 124t-261 -126t-93 -300t93 -294t258 -120zM567 768q0 228 131 372t331 144t326 -139t126 -343t-84 -328t-219 -169v-4q155 -34 305 -65l-33 -84q-190 48 -298 84t-130 36q-199 2 -327 136t-128 360zM1023 1667
q-370 0 -629 -261t-259 -629q0 -367 260 -627t629 -260t629 260t260 628t-260 629q-260 260 -630 260zM1970 777q0 -392 -278 -668q-278 -277 -669 -277q-390 0 -668 278q-277 278 -277 668t277 669q278 277 669 277t669 -277q277 -278 277 -670z" />
    <glyph glyph-name="Japan1.10356" unicode="&#x24c7;" 
d="M786 801h236q129 0 199 53t69 143q0 201 -305 201q-142 0 -199 -14v-383zM690 274v981q147 20 293 21q406 0 406 -268q1 -98 -63 -167t-179 -83v-6q70 -14 118 -64t66 -117q70 -248 99 -297h-107q-25 41 -76 252q-25 94 -77 142t-158 55h-226v-449h-96zM1023 1667
q-370 0 -629 -261t-259 -629q0 -367 260 -627t629 -260t629 260t260 628t-260 629q-260 260 -630 260zM1970 777q0 -392 -278 -668q-278 -277 -669 -277q-390 0 -668 278q-277 278 -277 668t277 669q278 277 669 277t669 -277q277 -278 277 -670z" />
    <glyph glyph-name="Japan1.10357" unicode="&#x24c8;" 
d="M1008 352q139 0 214 56q74 56 74 136q0 79 -59 128t-231 88t-246 100q-74 62 -74 170t95 181t273 73t281 -65l-37 -76q-108 61 -240 61t-203 -49t-71 -119t48 -111q48 -40 227 -81q178 -41 257 -111q79 -69 79 -185q-1 -116 -97 -196t-304 -80t-343 99l41 73
q125 -92 316 -92zM1023 1667q-370 0 -629 -261t-259 -629q0 -367 260 -627t629 -260t629 260t260 628t-260 629q-260 260 -630 260zM1970 777q0 -392 -278 -668q-278 -277 -669 -277q-390 0 -668 278q-277 278 -277 668t277 669q278 277 669 277t669 -277q277 -278 277 -670
z" />
    <glyph glyph-name="Japan1.10358" unicode="&#x24c9;" 
d="M975 252v911h-397v80h892v-80h-399v-911h-96zM1023 1667q-370 0 -629 -261t-259 -629q0 -367 260 -627t629 -260t629 260t260 628t-260 629q-260 260 -630 260zM1970 777q0 -392 -278 -668q-278 -277 -669 -277q-390 0 -668 278q-277 278 -277 668t277 669
q278 277 669 277t669 -277q277 -278 277 -670z" />
    <glyph glyph-name="Japan1.10359" unicode="&#x24ca;" 
d="M645 1278h96v-586q0 -176 75 -260t203 -84t208 86t80 258v586h96v-576q0 -221 -108 -327q-109 -107 -277 -107t-270 102t-103 324v584zM1023 1667q-370 0 -629 -261t-259 -629q0 -367 260 -627t629 -260t629 260t260 628t-260 629q-260 260 -630 260zM1970 777
q0 -392 -278 -668q-278 -277 -669 -277q-390 0 -668 278q-277 278 -277 668t277 669q278 277 669 277t669 -277q277 -278 277 -670z" />
    <glyph glyph-name="Japan1.10360" unicode="&#x24cb;" 
d="M1044 268h-98l-348 1006h111l174 -531q76 -231 116 -364h2q51 158 129 362l209 533h109zM1023 1667q-370 0 -629 -261t-259 -629q0 -367 260 -627t629 -260t629 260t260 628t-260 629q-260 260 -630 260zM1970 777q0 -392 -278 -668q-278 -277 -669 -277q-390 0 -668 278
q-277 278 -277 668t277 669q278 277 669 277t669 -277q277 -278 277 -670z" />
    <glyph glyph-name="Japan1.10361" unicode="&#x24cc;" 
d="M799 268h-92l-242 1006h100l121 -522q41 -193 68 -359h6q43 201 82 361l145 520h76l135 -514q43 -199 74 -367h4q12 68 80 363l127 518h100l-262 -1006h-94l-135 543q-43 178 -70 324h-2q-29 -145 -78 -326zM1023 1667q-370 0 -629 -261t-259 -629q0 -367 260 -627
t629 -260t629 260t260 628t-260 629q-260 260 -630 260zM1970 777q0 -392 -278 -668q-278 -277 -669 -277q-390 0 -668 278q-277 278 -277 668t277 669q278 277 669 277t669 -277q277 -278 277 -670z" />
    <glyph glyph-name="Japan1.10362" unicode="&#x24cd;" 
d="M1432 274h-119l-150 226q-70 104 -139 217h-6q-41 -72 -131 -207l-154 -236h-119l351 512l-334 496h117l176 -264q55 -82 106 -166h6q14 27 99 162l176 270l116 -2l-340 -496zM1023 1667q-370 0 -629 -261t-259 -629q0 -367 260 -627t629 -260t629 260t260 628t-260 629
q-260 260 -630 260zM1970 777q0 -392 -278 -668q-278 -277 -669 -277q-390 0 -668 278q-277 278 -277 668t277 669q278 277 669 277t669 -277q277 -278 277 -670z" />
    <glyph glyph-name="Japan1.10363" unicode="&#x24ce;" 
d="M1075 268h-96v414l-377 592h117l199 -322l112 -192h4q76 127 119 190l203 324h123l-404 -596v-410zM1023 1667q-370 0 -629 -261t-259 -629q0 -367 260 -627t629 -260t629 260t260 628t-260 629q-260 260 -630 260zM1970 777q0 -392 -278 -668q-278 -277 -669 -277
q-390 0 -668 278q-277 278 -277 668t277 669q278 277 669 277t669 -277q277 -278 277 -670z" />
    <glyph glyph-name="Japan1.10364" unicode="&#x24cf;" 
d="M643 289v67l625 828v4h-568v80h695v-72l-619 -823v-4h629v-80h-762zM1023 1667q-370 0 -629 -261t-259 -629q0 -367 260 -627t629 -260t629 260t260 628t-260 629q-260 260 -630 260zM1970 777q0 -392 -278 -668q-278 -277 -669 -277q-390 0 -668 278q-277 278 -277 668
t277 669q278 277 669 277t669 -277q277 -278 277 -670z" />
    <glyph glyph-name="Japan1.10313" unicode="&#x24d0;" 
d="M1237 643v156q-471 8 -471 -195q0 -74 53 -114t131 -39q131 1 209 65t78 127zM1331 856v-276q0 -88 17 -187h-88l-15 115h-4q-39 -53 -120 -93t-197 -40q-116 -1 -184 65q-69 66 -68 150q0 137 141 212t424 72q0 231 -233 232q-139 0 -242 -64l-29 66q123 74 281 74
q317 0 317 -326zM1023 1667q-370 0 -629 -261t-259 -629q0 -367 260 -627t629 -260t629 260t260 628t-260 629q-260 260 -630 260zM1970 777q0 -392 -278 -668q-278 -277 -669 -277q-390 0 -668 278q-277 278 -277 668t277 669q278 277 669 277t669 -277q277 -278 277 -670z
" />
    <glyph glyph-name="Japan1.10314" unicode="&#x24d1;" 
d="M772 643v-135q0 -96 81 -172t209 -76t208 90t80 234t-78 234q-78 91 -211 91q-171 0 -249 -142q-40 -69 -40 -124zM678 391v950h94v-522h4q92 170 309 170q162 0 262 -112q99 -113 99 -293t-113 -290q-113 -112 -264 -112q-203 0 -303 162h-4l-4 -143h-86q6 94 6 190z
M1023 1667q-370 0 -629 -261t-259 -629q0 -367 260 -627t629 -260t629 260t260 628t-260 629q-260 260 -630 260zM1970 777q0 -392 -278 -668q-278 -277 -669 -277q-390 0 -668 278q-277 278 -277 668t277 669q278 277 669 277t669 -277q277 -278 277 -670z" />
    <glyph glyph-name="Japan1.10315" unicode="&#x24d2;" 
d="M1059 375q-182 -1 -295 109t-113 289t124 294t315 115q145 0 227 -54l-31 -77q-90 51 -201 51q-157 0 -247 -93t-90 -235t92 -232q92 -89 233 -89q94 0 215 49l23 -76q-109 -51 -252 -51zM1023 1667q-370 0 -629 -261t-259 -629q0 -367 260 -627t629 -260t629 260
t260 628t-260 629q-260 260 -630 260zM1970 777q0 -392 -278 -668q-278 -277 -669 -277q-390 0 -668 278q-277 278 -277 668t277 669q278 277 669 277t669 -277q277 -278 277 -670z" />
    <glyph glyph-name="Japan1.10316" unicode="&#x24d3;" 
d="M1266 528v138q0 118 -81 184t-200 66t-200 -92q-81 -91 -81 -233t76 -234q76 -91 204 -91t205 80t77 182zM1266 1348h96v-951q0 -94 6 -192h-86l-6 155h-2q-39 -76 -117 -124t-186 -48q-156 0 -259 112q-102 112 -104 286t109 290q111 118 272 117q195 0 275 -139h2v494z
M1023 1667q-370 0 -629 -261t-259 -629q0 -367 260 -627t629 -260t629 260t260 628t-260 629q-260 260 -630 260zM1970 777q0 -392 -278 -668q-278 -277 -669 -277q-390 0 -668 278q-277 278 -277 668t277 669q278 277 669 277t669 -277q277 -278 277 -670z" />
    <glyph glyph-name="Japan1.10317" unicode="&#x24d4;" 
d="M1290 844q0 82 -42 164q-24 46 -77 76t-129 30q-128 0 -200 -84t-86 -186h534zM1071 455q139 0 242 45l20 -74q-102 -51 -278 -51q-176 -1 -286 107t-110 289t109 299t279 118q259 0 323 -256q14 -56 14 -102t-4 -60h-624q2 -154 89 -234t226 -81zM1023 1667
q-370 0 -629 -261t-259 -629q0 -367 260 -627t629 -260t629 260t260 628t-260 629q-260 260 -630 260zM1970 777q0 -392 -278 -668q-278 -277 -669 -277q-390 0 -668 278q-277 278 -277 668t277 669q278 277 669 277t669 -277q277 -278 277 -670z" />
    <glyph glyph-name="Japan1.10318" unicode="&#x24d5;" 
d="M985 205h-98v700h-117v78h117q0 68 3 110q4 41 26 107t65 105q76 71 173 71t142 -26l-24 -76q-44 22 -106 22t-103 -30q-78 -56 -78 -283h219v-78h-219v-700zM1023 1667q-370 0 -629 -261t-259 -629q0 -367 260 -627t629 -260t629 260t260 628t-260 629
q-260 260 -630 260zM1970 777q0 -392 -278 -668q-278 -277 -669 -277q-390 0 -668 278q-277 278 -277 668t277 669q278 277 669 277t669 -277q277 -278 277 -670z" />
    <glyph glyph-name="Japan1.10319" unicode="&#x24d6;" 
d="M1268 889v131q0 98 -74 174t-199 76t-208 -90t-83 -226t76 -228q76 -91 204 -91t206 81t78 173zM1366 670q0 -457 -412 -457q-172 0 -276 74l33 78q105 -72 249 -72t225 77t81 236v107h-2q-37 -68 -113 -112t-182 -44q-158 0 -260 112q-103 111 -103 281t114 285t267 115
q111 0 183 -45t104 -111h4l4 137h90q-6 -63 -6 -192v-469zM1023 1667q-370 0 -629 -261t-259 -629q0 -367 260 -627t629 -260t629 260t260 628t-260 629q-260 260 -630 260zM1970 777q0 -392 -278 -668q-278 -277 -669 -277q-390 0 -668 278q-277 278 -277 668t277 669
q278 277 669 277t669 -277q277 -278 277 -670z" />
    <glyph glyph-name="Japan1.10320" unicode="&#x24d7;" 
d="M705 207v1141h96v-521h2q45 80 122 123t139 43t104 -12t94 -45t86 -108q33 -75 32 -181v-440h-96v436q0 117 -55 194t-161 77t-187 -72q-80 -72 -80 -178v-457h-96zM1023 1667q-370 0 -629 -261t-259 -629q0 -367 260 -627t629 -260t629 260t260 628t-260 629
q-260 260 -630 260zM1970 777q0 -392 -278 -668q-278 -277 -669 -277q-390 0 -668 278q-277 278 -277 668t277 669q278 277 669 277t669 -277q277 -278 277 -670z" />
    <glyph glyph-name="Japan1.10321" unicode="&#x24d8;" 
d="M1071 205h-94v770h94v-770zM1023 1139q-36 -1 -55 25q-20 26 -20 58t23 56t55 25q32 0 54 -25q22 -24 22 -58t-22 -58t-57 -23zM1023 1667q-370 0 -629 -261t-259 -629q0 -367 260 -627t629 -260t629 260t260 628t-260 629q-260 260 -630 260zM1970 777q0 -392 -278 -668
q-278 -277 -669 -277q-390 0 -668 278q-277 278 -277 668t277 669q278 277 669 277t669 -277q277 -278 277 -670z" />
    <glyph glyph-name="Japan1.10322" unicode="&#x24d9;" 
d="M1034 565v570h96v-627q0 -51 -2 -85q-2 -35 -19 -101t-49 -107t-98 -73t-159 -33l-8 75q125 4 177 61q51 57 59 188q3 48 3 132zM1079 1300q-37 0 -56 26t-19 58t22 55t56 23t55 -23q20 -24 20 -58q-1 -33 -21 -57t-57 -24zM1023 1667q-370 0 -629 -261t-259 -629
q0 -367 260 -627t629 -260t629 260t260 628t-260 629q-260 260 -630 260zM1970 777q0 -392 -278 -668q-278 -277 -669 -277q-390 0 -668 278q-277 278 -277 668t277 669q278 277 669 277t669 -277q277 -278 277 -670z" />
    <glyph glyph-name="Japan1.10323" unicode="&#x24da;" 
d="M842 1348v-738h4l84 88l278 277h119l-332 -318l379 -450h-119l-327 395l-86 -84v-311h-94v1141h94zM1023 1667q-370 0 -629 -261t-259 -629q0 -367 260 -627t629 -260t629 260t260 628t-260 629q-260 260 -630 260zM1970 777q0 -392 -278 -668q-278 -277 -669 -277
q-390 0 -668 278q-277 278 -277 668t277 669q278 277 669 277t669 -277q277 -278 277 -670z" />
    <glyph glyph-name="Japan1.10324" unicode="&#x24db;" 
d="M977 207v1141h94v-1141h-94zM1023 1667q-370 0 -629 -261t-259 -629q0 -367 260 -627t629 -260t629 260t260 628t-260 629q-260 260 -630 260zM1970 777q0 -392 -278 -668q-278 -277 -669 -277q-390 0 -668 278q-277 278 -277 668t277 669q278 277 669 277t669 -277
q277 -278 277 -670z" />
    <glyph glyph-name="Japan1.10325" unicode="&#x24dc;" 
d="M479 393v578q0 94 -6 192h88l6 -143h2q96 162 252 162q80 0 138 -49t83 -125h5q84 174 266 174q73 0 152 -61q44 -33 72 -109t28 -185v-434h-95v428q0 135 -50 208t-139 73t-151 -71t-61 -150v-488h-94v467q0 106 -49 174t-136 68t-152 -81t-65 -161v-467h-94zM1023 1667
q-370 0 -629 -261t-259 -629q0 -367 260 -627t629 -260t629 260t260 628t-260 629q-260 260 -630 260zM1970 777q0 -392 -278 -668q-278 -277 -669 -277q-390 0 -668 278q-277 278 -277 668t277 669q278 277 669 277t669 -277q277 -278 277 -670z" />
    <glyph glyph-name="Japan1.10326" unicode="&#x24dd;" 
d="M686 393v576q0 96 -6 194h86l8 -149h4q37 72 113 120t167 48t182 -58q52 -32 86 -108t34 -182v-441h-94v438q0 117 -56 194t-166 77t-187 -75t-77 -167v-467h-94zM1023 1667q-370 0 -629 -261t-259 -629q0 -367 260 -627t629 -260t629 260t260 628t-260 629
q-260 260 -630 260zM1970 777q0 -392 -278 -668q-278 -277 -669 -277q-390 0 -668 278q-277 278 -277 668t277 669q278 277 669 277t669 -277q277 -278 277 -670z" />
    <glyph glyph-name="Japan1.10327" unicode="&#x24de;" 
d="M1017 451q128 0 220 90t92 227q0 138 -80 238t-225 100t-226 -98t-81 -240t86 -229q86 -88 214 -88zM1010 375q-168 1 -279 113t-111 290t118 291t292 113t285 -113t110 -281q1 -201 -123 -307t-292 -106zM1023 1667q-370 0 -629 -261t-259 -629q0 -367 260 -627
t629 -260t629 260t260 628t-260 629q-260 260 -630 260zM1970 777q0 -392 -278 -668q-278 -277 -669 -277q-390 0 -668 278q-277 278 -277 668t277 669q278 277 669 277t669 -277q277 -278 277 -670z" />
    <glyph glyph-name="Japan1.10328" unicode="&#x24df;" 
d="M774 967v-138q0 -102 82 -176q82 -73 208 -73t207 90t81 234t-79 234t-212 91q-78 0 -137 -32q-94 -51 -136 -164q-14 -39 -14 -66zM680 199v841q0 125 -6 248h88l6 -153h4q96 172 313 172q159 0 261 -113t102 -292t-111 -291t-272 -111q-199 0 -289 147h-2v-448h-94z
M1023 1667q-370 0 -629 -261t-259 -629q0 -367 260 -627t629 -260t629 260t260 628t-260 629q-260 260 -630 260zM1970 777q0 -392 -278 -668q-278 -277 -669 -277q-390 0 -668 278q-277 278 -277 668t277 669q278 277 669 277t669 -277q277 -278 277 -670z" />
    <glyph glyph-name="Japan1.10329" unicode="&#x24e0;" 
d="M1268 825v154q0 115 -81 183t-200 67q-119 0 -201 -91q-82 -90 -82 -232t74 -234t209 -92t208 82t73 163zM1268 199v460h-4q-35 -67 -111 -113t-182 -46q-156 0 -259 112t-104 275q0 207 119 313t268 107q106 0 176 -46t101 -110h4l4 137h90q-6 -63 -6 -192v-897h-96z
M1023 1667q-370 0 -629 -261t-259 -629q0 -367 260 -627t629 -260t629 260t260 628t-260 629q-260 260 -630 260zM1970 777q0 -392 -278 -668q-278 -277 -669 -277q-390 0 -668 278q-277 278 -277 668t277 669q278 277 669 277t669 -277q277 -278 277 -670z" />
    <glyph glyph-name="Japan1.10330" unicode="&#x24e1;" 
d="M842 393v518q0 143 -8 252h94l2 -168h6q82 186 305 187q14 0 51 -4v-86q-31 6 -63 6q-139 0 -215 -91t-76 -198v-416h-96zM1023 1667q-370 0 -629 -261t-259 -629q0 -367 260 -627t629 -260t629 260t260 628t-260 629q-260 260 -630 260zM1970 777q0 -392 -278 -668
q-278 -277 -669 -277q-390 0 -668 278q-277 278 -277 668t277 669q278 277 669 277t669 -277q277 -278 277 -670z" />
    <glyph glyph-name="Japan1.10331" unicode="&#x24e2;" 
d="M990 451q126 0 186 39q59 40 59 100t-54 96q-54 35 -181 68t-189 81q-61 48 -61 134t83 149q83 64 224 64t237 -54l-32 -71q-92 49 -203 49t-163 -38t-52 -93t50 -86t178 -66t193 -85t65 -145t-86 -157t-248 -61q-162 0 -277 59l31 76q114 -59 240 -59zM1023 1667
q-370 0 -629 -261t-259 -629q0 -367 260 -627t629 -260t629 260t260 628t-260 629q-260 260 -630 260zM1970 777q0 -392 -278 -668q-278 -277 -669 -277q-390 0 -668 278q-277 278 -277 668t277 669q278 277 669 277t669 -277q277 -278 277 -670z" />
    <glyph glyph-name="Japan1.10332" unicode="&#x24e3;" 
d="M997 1071h277v-76h-277v-469q0 -164 119 -164q53 0 98 17l9 -74q-45 -20 -123 -20q-199 0 -199 247v463h-176v76h176v146l96 28v-174zM1023 1667q-370 0 -629 -261t-259 -629q0 -367 260 -627t629 -260t629 260t260 628t-260 629q-260 260 -630 260zM1970 777
q0 -392 -278 -668q-278 -277 -669 -277q-390 0 -668 278q-277 278 -277 668t277 669q278 277 669 277t669 -277q277 -278 277 -670z" />
    <glyph glyph-name="Japan1.10333" unicode="&#x24e4;" 
d="M1360 1163v-577q0 -131 6 -193h-90l-4 150h-4q-92 -168 -293 -168q-91 0 -177 57q-50 33 -80 110t-30 187v434h96v-415q0 -293 222 -293q100 1 179 73t79 168v467h96zM1023 1667q-370 0 -629 -261t-259 -629q0 -367 260 -627t629 -260t629 260t260 628t-260 629
q-260 260 -630 260zM1970 777q0 -392 -278 -668q-278 -277 -669 -277q-390 0 -668 278q-277 278 -277 668t277 669q278 277 669 277t669 -277q277 -278 277 -670z" />
    <glyph glyph-name="Japan1.10334" unicode="&#x24e5;" 
d="M641 1163h102l193 -461q12 -32 30 -76t29 -77q12 -33 23 -62h2q2 4 88 215l195 461h100l-346 -770h-80zM1023 1667q-370 0 -629 -261t-259 -629q0 -367 260 -627t629 -260t629 260t260 628t-260 629q-260 260 -630 260zM1970 777q0 -392 -278 -668q-278 -277 -669 -277
q-390 0 -668 278q-277 278 -277 668t277 669q278 277 669 277t669 -277q277 -278 277 -670z" />
    <glyph glyph-name="Japan1.10335" unicode="&#x24e6;" 
d="M432 1163h100l132 -434q57 -197 67 -240h4q31 102 82 240l160 434h90l152 -432q41 -113 79 -242h2q8 37 72 240l144 434h98l-275 -770h-86l-145 406q-55 143 -88 270h-4q-23 -94 -90 -270l-158 -406h-84zM1023 1667q-370 0 -629 -261t-259 -629q0 -367 260 -627t629 -260
t629 260t260 628t-260 629q-260 260 -630 260zM1970 777q0 -392 -278 -668q-278 -277 -669 -277q-390 0 -668 278q-277 278 -277 668t277 669q278 277 669 277t669 -277q277 -278 277 -670z" />
    <glyph glyph-name="Japan1.10336" unicode="&#x24e7;" 
d="M682 1163h111l231 -313h6q61 86 92 131l140 182h106l-289 -375l301 -395h-110l-142 189q-14 20 -51 69t-55 76h-4q-90 -123 -107 -145l-137 -189h-110l305 395zM1023 1667q-370 0 -629 -261t-259 -629q0 -367 260 -627t629 -260t629 260t260 628t-260 629
q-260 260 -630 260zM1970 777q0 -392 -278 -668q-278 -277 -669 -277q-390 0 -668 278q-277 278 -277 668t277 669q278 277 669 277t669 -277q277 -278 277 -670z" />
    <glyph glyph-name="Japan1.10337" unicode="&#x24e8;" 
d="M979 535q0 11 -10 32l-316 715h107l213 -500q37 -90 61 -161h2q25 72 64 167l198 494h101l-260 -612q-83 -190 -141 -288t-134 -154q-76 -58 -149 -72l-23 80q82 26 131 68t103 118t53 113zM1023 1667q-370 0 -629 -261t-259 -629q0 -367 260 -627t629 -260t629 260
t260 628t-260 629q-260 260 -630 260zM1970 777q0 -392 -278 -668q-278 -277 -669 -277q-390 0 -668 278q-277 278 -277 668t277 669q278 277 669 277t669 -277q277 -278 277 -670z" />
    <glyph glyph-name="Japan1.10338" unicode="&#x24e9;" 
d="M692 393v60l436 512q33 41 105 116v2h-508v80h623v-65l-435 -512q-33 -41 -98 -113v-4h541v-76h-664zM1023 1667q-370 0 -629 -261t-259 -629q0 -367 260 -627t629 -260t629 260t260 628t-260 629q-260 260 -630 260zM1970 777q0 -392 -278 -668q-278 -277 -669 -277
q-390 0 -668 278q-277 278 -277 668t277 669q278 277 669 277t669 -277q277 -278 277 -670z" />
    <glyph glyph-name="Japan1.8224" unicode="&#x24ea;" 
d="M1028 330q131 0 200 119t68 337q0 440 -272 441q-88 0 -173 -85q-46 -46 -74 -144t-27 -234q0 -203 73 -319q74 -115 205 -115zM1399 789q1 -255 -101 -397t-279 -142t-275 151q-97 153 -97 389t114 377q113 141 279 141t262 -132q96 -133 97 -387zM1023 1667
q-370 0 -629 -261t-259 -629q0 -367 260 -627t629 -260t629 260t260 628t-260 629q-260 260 -630 260zM1970 777q0 -392 -278 -668q-278 -277 -669 -277q-390 0 -668 278q-277 278 -277 668t277 669q278 277 669 277t669 -277q277 -278 277 -670z" />
    <glyph glyph-name="Japan1.10515" unicode="&#x24eb;" 
d="M1323 1069v-780h176v979h-135l-225 -125l47 -146l129 72h8zM623 1069v-780h176v979h-135l-228 -125l47 -146l131 72h9zM1025 1724q392 0 669 -278q276 -279 276 -669q0 -389 -278 -667t-668 -278q-391 0 -669 278q-277 278 -277 668t277 669q278 277 670 277z" />
    <glyph glyph-name="Japan1.10516" unicode="&#x24ec;" 
d="M1006 301h589v150h-335v6l69 78q135 149 189 251t55 213q0 111 -72 191t-219 80t-254 -101l66 -133q23 24 73 52t103 28q125 0 125 -131q2 -97 -70 -201t-223 -270l-96 -104v-109zM602 1069v-780h176v979h-135l-227 -125l47 -146l131 72h8zM1025 1724q392 0 669 -278
q276 -279 276 -669q0 -389 -278 -667t-668 -278q-391 0 -669 278q-277 278 -277 668t277 669q278 277 670 277z" />
    <glyph glyph-name="Japan1.10517" unicode="&#x24ed;" 
d="M1599 586q0 88 -40 148q-41 60 -101 87v4q109 68 109 201q0 102 -75 173q-76 71 -222 71t-250 -86l70 -133q94 66 174 65q125 0 125 -102q1 -61 -57 -96t-128 -35h-86v-150h80q221 0 221 -149q0 -143 -172 -144q-114 1 -196 58l-72 -136q41 -24 117 -50t135 -25
q178 0 273 88t95 211zM602 1069v-780h176v979h-135l-227 -125l47 -146l131 72h8zM1025 1724q392 0 669 -278q276 -279 276 -669q0 -389 -278 -667t-668 -278q-391 0 -669 278q-277 278 -277 668t277 669q278 277 670 277z" />
    <glyph glyph-name="Japan1.10518" unicode="&#x24ee;" 
d="M1350 684h-181v4l109 174q59 98 70 121h6q-4 -49 -4 -129v-170zM1350 289h170v248h120v147h-120v584h-154l-403 -621v-110h387v-248zM602 1069v-780h176v979h-135l-227 -125l47 -146l131 72h8zM1025 1724q392 0 669 -278q276 -279 276 -669q0 -389 -278 -667t-668 -278
q-391 0 -669 278q-277 278 -277 668t277 669q278 277 670 277z" />
    <glyph glyph-name="Japan1.10519" unicode="&#x24ef;" 
d="M1583 1106v149h-446l-74 -487q66 12 137 12q209 0 209 -170q0 -80 -46 -125t-129 -45t-165 58l-61 -138q86 -74 238 -74t247 99q94 99 94 231t-90 222t-244 90l29 178h301zM602 1069v-780h176v979h-135l-227 -125l47 -146l131 72h8zM1025 1724q392 0 669 -278
q276 -279 276 -669q0 -389 -278 -667t-668 -278q-391 0 -669 278q-277 278 -277 668t277 669q278 277 670 277z" />
    <glyph glyph-name="Japan1.10520" unicode="&#x24f0;" 
d="M1452 616q0 -80 -36 -132q-36 -50 -102 -50t-98 68t-32 160q0 55 43 88q43 32 100 32t91 -43t34 -123zM602 1069v-780h176v979h-135l-227 -125l47 -146l131 72h8zM1505 1270q-225 0 -361 -167t-136 -419q0 -180 81 -289t223 -109t229 101q87 99 87 235t-78 222t-209 86
q-74 0 -122 -27h-5q76 207 283 207q46 0 62 -2v160q-14 2 -54 2zM1025 1724q392 0 669 -278q276 -279 276 -669q0 -389 -278 -667t-668 -278q-391 0 -669 278q-277 278 -277 668t277 669q278 277 670 277z" />
    <glyph glyph-name="Japan1.10521" unicode="&#x24f1;" 
d="M1604 1255h-592v-149h391v-6l-361 -811h181l381 864v102zM602 1069v-780h176v979h-135l-227 -125l47 -146l131 72h8zM1025 1724q392 0 669 -278q276 -279 276 -669q0 -389 -278 -667t-668 -278q-391 0 -669 278q-277 278 -277 668t277 669q278 277 670 277z" />
    <glyph glyph-name="Japan1.10522" unicode="&#x24f2;" 
d="M1311 432h-4q-156 0 -156 139q0 102 137 164q170 -57 170 -168q0 -63 -38 -99t-109 -36zM1307 1124q125 0 125 -116q0 -39 -30 -74t-77 -55q-143 45 -143 133q0 47 30 80q32 32 95 32zM1604 1024q0 104 -80 175t-209 71t-217 -75t-88 -191t116 -195v-4q-68 -39 -108 -106
t-41 -144q0 -111 91 -189t232 -79q141 0 237 80q95 80 95 204q0 152 -147 238v6q119 76 119 209zM602 1069v-780h176v979h-135l-227 -125l47 -146l131 72h8zM1025 1724q392 0 669 -278q276 -279 276 -669q0 -389 -278 -667t-668 -278q-391 0 -669 278q-277 278 -277 668
t277 669q278 277 670 277z" />
    <glyph glyph-name="Japan1.10523" unicode="&#x24f3;" 
d="M1328 1122q66 0 96 -68q32 -68 32 -144q0 -136 -141 -136q-57 0 -90 43t-33 124t35 131t101 50zM1147 287q213 0 350 165t137 422q0 182 -83 288t-221 108q-138 0 -226 -100t-88 -238q0 -137 78 -221t209 -84q80 0 118 26h4q-82 -203 -282 -207q-44 1 -62 3v-160
q20 -2 66 -2zM602 1069v-780h176v979h-135l-227 -125l47 -146l131 72h8zM1025 1724q392 0 669 -278q276 -279 276 -669q0 -389 -278 -667t-668 -278q-391 0 -669 278q-277 278 -277 668t277 669q278 277 670 277z" />
    <glyph glyph-name="Japan1.10524" unicode="&#x24f4;" 
d="M1366 438h-2q-55 0 -87 93t-32 247t34 247t87 93q59 0 88 -93t29 -245q0 -342 -117 -342zM1363 287q128 0 208 128q80 127 80 369t-77 364t-203 122t-209 -128t-82 -364t78 -364q77 -127 205 -127zM662 1116q113 0 112 -131q0 -97 -66 -203t-200 -268l-84 -104v-109h534
v150h-305v6l66 78q123 153 172 253t49 210t-66 191t-198 81t-234 -101l62 -133q80 80 158 80zM1025 1724q392 0 669 -278q276 -279 276 -669q0 -389 -278 -667t-668 -278q-391 0 -669 278q-277 278 -277 668t277 669q278 277 670 277z" />
    <glyph glyph-name="Japan1.10503" unicode="&#x24ff;" 
d="M1028 1184q186 0 186 -408q0 -261 -59 -333t-127 -72q-193 0 -192 383q0 430 192 430zM1024 223q203 0 305 155q103 155 103 382t-85 388q-44 83 -126 132t-195 49q-207 0 -307 -160q-101 -160 -101 -385t89 -386q45 -81 125 -128t192 -47zM1025 1724q392 0 669 -278
q276 -279 276 -669q0 -389 -278 -667t-668 -278q-391 0 -669 278q-277 278 -277 668t277 669q278 277 670 277z" />
    <glyph glyph-name="Japan1.8286" unicode="&#x2776;" 
d="M948 1124v-886h205v1077h-178l-264 -127l37 -160l196 96h4zM1025 1724q392 0 669 -278q276 -279 276 -669q0 -389 -278 -667t-668 -278q-391 0 -669 278q-277 278 -277 668t277 669q278 277 670 277z" />
    <glyph glyph-name="Japan1.8287" unicode="&#x2777;" 
d="M643 244h762v174h-457v2l96 78q174 154 255 264t81 242q0 134 -96 230t-286 95q-190 0 -339 -119l66 -149q123 96 235 96t159 -51q48 -51 48 -137q0 -87 -81 -183t-310 -299l-133 -116v-127zM1025 1724q392 0 669 -278q276 -279 276 -669q0 -389 -278 -667t-668 -278
q-391 0 -669 278q-277 278 -277 668t277 669q278 277 670 277z" />
    <glyph glyph-name="Japan1.8288" unicode="&#x2778;" 
d="M971 223q199 0 315 92t117 232q0 102 -70 174t-176 90v4q205 68 205 250q0 111 -92 187t-272 77q-180 0 -316 -86l49 -156q100 70 236 70q88 0 133 -36q45 -37 45 -99t-66 -98t-151 -35h-103v-156h103q102 0 179 -46q77 -45 77 -119t-56 -124t-186 -49q-129 0 -248 68
l-49 -160q127 -80 326 -80zM1025 1724q392 0 669 -278q276 -279 276 -669q0 -389 -278 -667t-668 -278q-391 0 -669 278q-277 278 -277 668t277 669q278 277 670 277z" />
    <glyph glyph-name="Japan1.8289" unicode="&#x2779;" 
d="M1085 971v-301h-305v4l215 301q55 96 90 174h7q-7 -92 -7 -178zM1085 238h205v266h142v166h-142v645h-256l-459 -668v-143h510v-266zM1025 1724q392 0 669 -278q276 -279 276 -669q0 -389 -278 -667t-668 -278q-391 0 -669 278q-277 278 -277 668t277 669
q278 277 670 277z" />
    <glyph glyph-name="Japan1.8290" unicode="&#x277a;" 
d="M1360 1135v174h-584l-69 -543q90 12 157 12q317 0 318 -196q0 -98 -73 -144t-191 -47q-118 0 -228 60l-43 -162q127 -66 317 -66q190 -1 313 105q122 106 122 273t-120 252t-298 85q-45 0 -86 -6l31 203h434zM1025 1724q392 0 669 -278q276 -279 276 -669
q0 -389 -278 -667t-668 -278q-391 0 -669 278q-277 278 -277 668t277 669q278 277 670 277z" />
    <glyph glyph-name="Japan1.8291" unicode="&#x277b;" 
d="M1206 595q0 -85 -49 -149t-141 -65q-92 0 -140 76t-49 186q1 66 61 106q60 39 140 39t129 -54t49 -139zM610 684q0 -205 106 -333t288 -128q184 0 301 115t117 266q0 150 -99 244q-98 94 -252 94t-240 -96h-4q31 145 144 230t297 85q18 0 51 -4v170q-63 4 -131 -4
q-262 -10 -420 -177t-158 -462zM1025 1724q392 0 669 -278q276 -279 276 -669q0 -389 -278 -667t-668 -278q-391 0 -669 278q-277 278 -277 668t277 669q278 277 670 277z" />
    <glyph glyph-name="Japan1.8292" unicode="&#x277c;" 
d="M1434 1309h-756v-174h528v-5l-475 -892h225l478 931v140zM1025 1724q392 0 669 -278q276 -279 276 -669q0 -389 -278 -667t-668 -278q-391 0 -669 278q-277 278 -277 668t277 669q278 277 670 277z" />
    <glyph glyph-name="Japan1.8293" unicode="&#x277d;" 
d="M1025 371q-85 0 -137 51t-52 121q0 139 165 178q213 -47 213 -195q0 -61 -52 -108t-137 -47zM1031 1184q81 0 120 -46t39 -104t-40 -101q-40 -42 -99 -56q-188 43 -189 163q0 60 44 102t125 42zM1035 1329q-169 0 -274 -84t-106 -213q0 -162 168 -237v-4
q-205 -80 -205 -271q0 -125 106 -211t290 -86q186 0 302 88t116 234q0 97 -60 165t-155 101v4q170 78 169 242q0 111 -91 191t-260 81zM1025 1724q392 0 669 -278q276 -279 276 -669q0 -389 -278 -667t-668 -278q-391 0 -669 278q-277 278 -277 668t277 669q278 277 670 277
z" />
    <glyph glyph-name="Japan1.8294" unicode="&#x277e;" 
d="M842 958q0 86 50 150t143 63q93 0 140 -78q46 -79 46 -184q-1 -65 -61 -105t-140 -40t-129 54t-49 140zM1438 868q0 205 -106 333t-288 128q-184 0 -301 -115t-117 -266q0 -150 99 -244q98 -94 252 -94t240 97h4q-31 -145 -144 -229t-297 -85q-35 0 -51 2v-170
q63 -4 131 4q262 9 420 177t158 462zM1025 1724q392 0 669 -278q276 -279 276 -669q0 -389 -278 -667t-668 -278q-391 0 -669 278q-277 278 -277 668t277 669q278 277 670 277z" />
    <glyph glyph-name="Japan1.10514" unicode="&#x277f;" 
d="M1321 438h-2q-61 0 -98 94t-37 246t39 246t103 94t96 -93t32 -245q0 -342 -133 -342zM1320 287q142 0 228 127q86 128 86 370t-84 364t-223 122t-230 -128t-90 -364t86 -364q85 -127 227 -127zM602 1069v-780h176v979h-135l-227 -125l47 -146l131 72h8zM1025 1724
q392 0 669 -278q276 -279 276 -669q0 -389 -278 -667t-668 -278q-391 0 -669 278q-277 278 -277 668t277 669q278 277 670 277z" />
    <glyph glyph-name="Japan1.8091" unicode="&#x3251;" 
d="M1382 287v891h-2l-155 -93l-21 72l189 113h82v-983h-93zM956 299h-499v59l86 103q245 303 281 419q19 60 20 121q0 190 -166 191q-84 0 -164 -64l-25 68q88 76 208 76q119 0 179 -77t60 -176t-46 -199t-97 -169q-51 -68 -154 -190l-68 -80v-4h385v-78zM1023 1667
q-370 0 -629 -261t-259 -629q0 -367 260 -627t629 -260t629 260t260 628t-260 629q-260 260 -630 260zM1970 777q0 -392 -278 -668q-278 -277 -669 -277q-390 0 -668 278q-277 278 -277 668t277 669q278 277 669 277t669 -277q277 -278 277 -670z" />
    <glyph glyph-name="Japan1.8102" unicode="&#x3252;" 
d="M1626 299h-498v59l84 103q111 137 159 202t94 161t46 177q0 190 -165 191q-82 0 -162 -64l-25 68q84 76 206 76t180 -77q59 -77 59 -195t-72 -239q-72 -120 -223 -300l-68 -80v-4h385v-78zM954 299h-497v59l86 103q111 137 158 202q49 65 95 161t46 177q0 190 -166 191
q-80 0 -164 -64l-25 68q88 76 209 76q122 0 180 -77t58 -195t-72 -239q-72 -120 -223 -300l-70 -80v-4h385v-78zM1023 1667q-370 0 -629 -261t-259 -629q0 -367 260 -627t629 -260t629 260t260 628t-260 629q-260 260 -630 260zM1970 777q0 -392 -278 -668
q-278 -277 -669 -277q-390 0 -668 278q-277 278 -277 668t277 669q278 277 669 277t669 -277q277 -278 277 -670z" />
    <glyph glyph-name="Japan1.8103" unicode="&#x3253;" 
d="M1318 365q106 0 159 56q53 57 53 129q0 126 -77 179q-68 45 -218 45v76h45q80 0 150 48t70 129t-44 123q-43 42 -124 42t-156 -51l-27 69q82 62 201 62t180 -64t61 -149t-44 -147t-124 -89v-4q89 -18 145 -83q56 -66 56 -176t-82 -192t-217 -83q-135 0 -217 51l29 74
q75 -45 181 -45zM954 299h-497v59l86 103q111 137 158 202q49 65 95 161t46 177q0 190 -166 191q-80 0 -164 -64l-25 68q88 76 209 76q122 0 180 -77t58 -195t-72 -239q-72 -120 -223 -300l-70 -80v-4h385v-78zM1023 1667q-370 0 -629 -261t-259 -629q0 -367 260 -627
t629 -260t629 260t260 628t-260 629q-260 260 -630 260zM1970 777q0 -392 -278 -668q-278 -277 -669 -277q-390 0 -668 278q-277 278 -277 668t277 669q278 277 669 277t669 -277q277 -278 277 -670z" />
    <glyph glyph-name="Japan1.8104" unicode="&#x3254;" 
d="M956 299h-499v59l86 103q245 303 281 419q19 60 20 121q0 190 -166 191q-84 0 -164 -64l-25 68q88 76 208 76q119 0 179 -77t60 -176t-46 -199t-97 -169q-51 -68 -154 -190l-68 -80v-4h385v-78zM1151 633h295v368q0 57 8 164h-6q-27 -63 -76 -153l-221 -377v-2zM1532 287
h-86v270h-381v64l381 649h86v-637h119v-76h-119v-270zM1023 1667q-370 0 -629 -261t-259 -629q0 -367 260 -627t629 -260t629 260t260 628t-260 629q-260 260 -630 260zM1970 777q0 -392 -278 -668q-278 -277 -669 -277q-390 0 -668 278q-277 278 -277 668t277 669
q278 277 669 277t669 -277q277 -278 277 -670z" />
    <glyph glyph-name="Japan1.8105" unicode="&#x3255;" 
d="M1599 1257v-77h-299l-43 -283q18 4 58 4q111 0 199 -79t88 -217t-86 -229t-210 -91t-192 51l27 72q71 -43 159 -43t149 61q60 61 60 177t-70 169q-71 53 -153 53t-117 -6l60 438h370zM956 299h-499v59l86 103q245 303 281 419q19 60 20 121q0 190 -166 191
q-84 0 -164 -64l-25 68q88 76 208 76q119 0 179 -77t60 -176t-46 -199t-97 -169q-51 -68 -154 -190l-68 -80v-4h385v-78zM1023 1667q-370 0 -629 -261t-259 -629q0 -367 260 -627t629 -260t629 260t260 628t-260 629q-260 260 -630 260zM1970 777q0 -392 -278 -668
q-278 -277 -669 -277q-390 0 -668 278q-277 278 -277 668t277 669q278 277 669 277t669 -277q277 -278 277 -670z" />
    <glyph glyph-name="Japan1.8106" unicode="&#x3256;" 
d="M956 299h-499v59l86 103q245 303 281 419q19 60 20 121q0 190 -166 191q-84 0 -164 -64l-25 68q88 76 208 76q119 0 179 -77t60 -176t-46 -199t-97 -169q-51 -68 -154 -190l-68 -80v-4h385v-78zM1375 358q81 0 127 66t46 179q0 112 -47 168t-119 56t-126 -46t-54 -113
q0 -150 46 -230t127 -80zM1398 901q112 0 176 -81t64 -211t-74 -227t-195 -97t-189 106q-68 107 -68 271t41 284q74 216 256 296q80 36 164 30v-84q-131 10 -237 -89t-130 -298h4q76 100 188 100zM1023 1667q-370 0 -629 -261t-259 -629q0 -367 260 -627t629 -260t629 260
t260 628t-260 629q-260 260 -630 260zM1970 777q0 -392 -278 -668q-278 -277 -669 -277q-390 0 -668 278q-277 278 -277 668t277 669q278 277 669 277t669 -277q277 -278 277 -670z" />
    <glyph glyph-name="Japan1.8107" unicode="&#x3257;" 
d="M1122 1257h498v-59l-367 -911h-86l359 889v4h-404v77zM954 299h-497v59l86 103q111 137 158 202q49 65 95 161t46 177q0 190 -166 191q-80 0 -164 -64l-25 68q88 76 209 76q122 0 180 -77t58 -195t-72 -239q-72 -120 -223 -300l-70 -80v-4h385v-78zM1023 1667
q-370 0 -629 -261t-259 -629q0 -367 260 -627t629 -260t629 260t260 628t-260 629q-260 260 -630 260zM1970 777q0 -392 -278 -668q-278 -277 -669 -277q-390 0 -668 278q-277 278 -277 668t277 669q278 277 669 277t669 -277q277 -278 277 -670z" />
    <glyph glyph-name="Japan1.8108" unicode="&#x3258;" 
d="M954 299h-497v59l86 103q111 137 158 202q49 65 95 161t46 177q0 190 -166 191q-80 0 -164 -64l-25 68q88 76 209 76q122 0 180 -77t58 -195t-72 -239q-72 -120 -223 -300l-70 -80v-4h385v-78zM1023 1667q-370 0 -629 -261t-259 -629q0 -367 260 -627t629 -260t629 260
t260 628t-260 629q-260 260 -630 260zM1970 777q0 -392 -278 -668q-278 -277 -669 -277q-390 0 -668 278q-277 278 -277 668t277 669q278 277 669 277t669 -277q277 -278 277 -670zM1365 354q91 0 142 52t52 139q0 158 -209 233q-178 -74 -179 -229q-1 -87 51 -141t143 -54z
M1371 1202q-79 0 -123 -48t-44 -118q0 -133 180 -196q145 63 146 194q0 74 -40 121t-119 47zM1118 1030q0 106 75 173t185 67t174 -67q63 -67 64 -159q0 -147 -156 -229v-4q186 -90 187 -260q0 -115 -82 -191t-204 -76t-200 74q-78 72 -78 174q1 173 187 277v2
q-152 78 -152 219z" />
    <glyph glyph-name="Japan1.8109" unicode="&#x3259;" 
d="M956 299h-499v59l86 103q245 303 281 419q19 60 20 121q0 190 -166 191q-84 0 -164 -64l-25 68q88 76 208 76q119 0 179 -77t60 -176t-46 -199t-97 -169q-51 -68 -154 -190l-68 -80v-4h385v-78zM1385 1198q-81 0 -127 -66t-46 -179q0 -112 48 -168t118 -56q72 0 126 46
t55 114q-1 149 -47 229t-127 80zM1122 947q0 129 75 227t195 98t190 -106t69 -285q1 -285 -139 -447t-324 -149v84q112 -8 218 71q54 41 94 123t54 193h-4q-76 -100 -187 -100t-176 80q-65 81 -65 211zM1023 1667q-370 0 -629 -261t-259 -629q0 -367 260 -627t629 -260
t629 260t260 628t-260 629q-260 260 -630 260zM1970 777q0 -392 -278 -668q-278 -277 -669 -277q-390 0 -668 278q-277 278 -277 668t277 669q278 277 669 277t669 -277q277 -278 277 -670z" />
    <glyph glyph-name="Japan1.8110" unicode="&#x325a;" 
d="M654 365q104 0 156 58t51 150t-70 147q-70 54 -177 54h-43v76h43q78 0 147 48t69 129t-43 123t-123 42t-152 -51l-27 69q86 62 201 62t175 -64q61 -64 61 -149t-43 -147t-123 -89v-4q86 -18 143 -84q57 -65 57 -175t-82 -192t-216 -83q-134 0 -212 51l27 74
q77 -45 181 -45zM1380 362q176 0 176 418q0 188 -43 301t-124 113t-132 -100t-51 -306t45 -316t129 -110zM1391 1272q123 0 191 -126t67 -370q0 -244 -75 -368t-201 -123q-125 0 -193 138q-68 137 -68 365t78 356t201 128zM1023 1667q-370 0 -629 -261t-259 -629
q0 -367 260 -627t629 -260t629 260t260 628t-260 629q-260 260 -630 260zM1970 777q0 -392 -278 -668q-278 -277 -669 -277q-390 0 -668 278q-277 278 -277 668t277 669q278 277 669 277t669 -277q277 -278 277 -670z" />
    <glyph glyph-name="Japan1.8111" unicode="&#x325b;" 
d="M1382 287v891h-2l-155 -93l-21 72l189 113h82v-983h-93zM660 365q103 0 157 58q53 58 52 150t-70 147q-70 54 -176 54h-43v76h43q79 0 147 48t68 129q0 165 -164 165q-78 0 -154 -51l-26 69q82 62 198 62t177 -64t61 -149t-43 -147t-123 -89v-4q86 -18 143 -84
q57 -65 57 -175t-81 -192q-82 -82 -216 -83q-134 0 -210 51l24 74q76 -45 179 -45zM1023 1667q-370 0 -629 -261t-259 -629q0 -367 260 -627t629 -260t629 260t260 628t-260 629q-260 260 -630 260zM1970 777q0 -392 -278 -668q-278 -277 -669 -277q-390 0 -668 278
q-277 278 -277 668t277 669q278 277 669 277t669 -277q277 -278 277 -670z" />
    <glyph glyph-name="Japan1.10244" unicode="&#x325c;" 
d="M1612 299h-498v59l84 103q109 133 159 201t95 162t45 177q0 190 -164 191q-84 0 -164 -64l-24 68q84 76 206 76t180 -77t58 -176t-45 -199t-95 -169q-50 -68 -153 -190l-67 -80v-4h383v-78zM654 365q104 0 156 58t51 150t-70 147q-70 54 -177 54h-43v76h43q78 0 147 48
t69 129t-43 123t-123 42t-152 -51l-27 69q86 62 201 62t175 -64q61 -64 61 -149t-43 -147t-123 -89v-4q86 -18 143 -84q57 -65 57 -175t-82 -192t-216 -83q-134 0 -212 51l27 74q77 -45 181 -45zM1023 1667q-370 0 -629 -261t-259 -629q0 -367 260 -627t629 -260t629 260
t260 628t-260 629q-260 260 -630 260zM1970 777q0 -392 -278 -668q-278 -277 -669 -277q-390 0 -668 278q-277 278 -277 668t277 669q278 277 669 277t669 -277q277 -278 277 -670z" />
    <glyph glyph-name="Japan1.10245" unicode="&#x325d;" 
d="M1304 365q106 0 160 58t54 150q0 93 -72 147t-180 54h-45v76h45q80 0 150 48t69 129q0 81 -43 123t-123 42t-158 -51l-26 69q83 62 201 62t180 -64t61 -149q0 -85 -44 -147t-124 -89v-4q88 -18 144 -83q57 -66 57 -176t-82 -192t-218 -83q-136 0 -214 51l26 74
q76 -45 182 -45zM654 365q104 0 156 58t51 150t-70 147q-70 54 -177 54h-43v76h43q78 0 147 48t69 129t-43 123t-123 42t-152 -51l-27 69q86 62 201 62t175 -64q61 -64 61 -149t-43 -147t-123 -89v-4q86 -18 143 -84q57 -65 57 -175t-82 -192t-216 -83q-134 0 -212 51l27 74
q77 -45 181 -45zM1023 1667q-370 0 -629 -261t-259 -629q0 -367 260 -627t629 -260t629 260t260 628t-260 629q-260 260 -630 260zM1970 777q0 -392 -278 -668q-278 -277 -669 -277q-390 0 -668 278q-277 278 -277 668t277 669q278 277 669 277t669 -277q277 -278 277 -670z
" />
    <glyph glyph-name="Japan1.10246" unicode="&#x325e;" 
d="M652 365q104 0 156 58t51 150q-1 93 -71 147t-176 54h-43v76h43q78 0 147 48t69 129t-43 123t-123 42t-152 -51l-27 69q86 62 201 62t175 -64q61 -64 61 -149t-43 -147t-123 -89v-4q86 -18 143 -84q57 -65 57 -175t-82 -192t-216 -83q-134 0 -212 51l27 74
q77 -45 181 -45zM1153 633h295v368q0 57 8 164h-6q-39 -86 -76 -153l-221 -377v-2zM1534 287h-86v270h-381v64l381 649h86v-637h119v-76h-119v-270zM1023 1667q-370 0 -629 -261t-259 -629q0 -367 260 -627t629 -260t629 260t260 628t-260 629q-260 260 -630 260zM1970 777
q0 -392 -278 -668q-278 -277 -669 -277q-390 0 -668 278q-277 278 -277 668t277 669q278 277 669 277t669 -277q277 -278 277 -670z" />
    <glyph glyph-name="Japan1.10247" unicode="&#x325f;" 
d="M1599 1257v-77h-299l-43 -283q18 4 58 4q111 0 199 -79t88 -217t-86 -229t-210 -91t-192 51l27 72q71 -43 159 -43t149 61q60 61 60 177t-70 169q-71 53 -153 53t-117 -6l60 438h370zM636 365q106 0 159 58t53 150q0 93 -71 147t-177 54h-43v76h43q78 0 146 48t69 129
q0 165 -164 165q-78 0 -153 -51l-27 69q82 62 199 62t177 -64t60 -149t-43 -147t-123 -89v-4q87 -18 143 -83q56 -66 56 -176t-81 -192t-215 -83q-134 0 -212 51l27 74q71 -45 177 -45zM1023 1667q-370 0 -629 -261t-259 -629q0 -367 260 -627t629 -260t629 260t260 628
t-260 629q-260 260 -630 260zM1970 777q0 -392 -278 -668q-278 -277 -669 -277q-390 0 -668 278q-277 278 -277 668t277 669q278 277 669 277t669 -277q277 -278 277 -670z" />
    <glyph glyph-name="Japan1.10248" unicode="&#x32b1;" 
d="M628 285q-134 0 -212 51l26 74q72 -45 178 -45t158 58q53 58 53 150t-70 147q-71 54 -177 54h-43v76h43q78 0 146 48t69 129q0 165 -164 165q-78 0 -154 -51l-26 69q83 62 199 62t176 -64t60 -149t-42 -147q-43 -62 -123 -89v-4q86 -18 142 -83q57 -66 57 -176t-81 -192
t-215 -83zM1377 358q79 0 127 66t48 178q0 113 -47 169t-119 56t-126 -46t-54 -113q0 -150 46 -230t125 -80zM1400 901q112 0 177 -82t65 -211t-76 -226t-195 -97q-121 0 -189 106t-68 285q0 292 142 450t319 146v-84q-127 10 -233 -87t-134 -300h4q76 100 188 100z
M1023 1667q-370 0 -629 -261t-259 -629q0 -367 260 -627t629 -260t629 260t260 628t-260 629q-260 260 -630 260zM1970 777q0 -392 -278 -668q-278 -277 -669 -277q-390 0 -668 278q-277 278 -277 668t277 669q278 277 669 277t669 -277q277 -278 277 -670z" />
    <glyph glyph-name="Japan1.10249" unicode="&#x32b2;" 
d="M1122 1257h498v-59l-367 -911h-86l359 889v4h-404v77zM636 365q106 0 159 58t53 150q0 93 -71 147t-177 54h-43v76h43q78 0 146 48t69 129q0 165 -164 165q-78 0 -153 -51l-27 69q82 62 199 62t177 -64t60 -149t-43 -147t-123 -89v-4q87 -18 143 -83q56 -66 56 -176
t-81 -192t-215 -83q-134 0 -212 51l27 74q71 -45 177 -45zM1023 1667q-370 0 -629 -261t-259 -629q0 -367 260 -627t629 -260t629 260t260 628t-260 629q-260 260 -630 260zM1970 777q0 -392 -278 -668q-278 -277 -669 -277q-390 0 -668 278q-277 278 -277 668t277 669
q278 277 669 277t669 -277q277 -278 277 -670z" />
    <glyph glyph-name="Japan1.10250" unicode="&#x32b3;" 
d="M628 285q-134 0 -212 51l26 74q72 -45 178 -45t158 58q53 58 53 150t-70 147q-71 54 -177 54h-43v76h43q78 0 146 48t69 129q0 165 -164 165q-78 0 -154 -51l-26 69q83 62 199 62t176 -64t60 -149t-42 -147q-43 -62 -123 -89v-4q86 -18 142 -83q57 -66 57 -176t-81 -192
t-215 -83zM1023 1667q-370 0 -629 -261t-259 -629q0 -367 260 -627t629 -260t629 260t260 628t-260 629q-260 260 -630 260zM1970 777q0 -392 -278 -668q-278 -277 -669 -277q-390 0 -668 278q-277 278 -277 668t277 669q278 277 669 277t669 -277q277 -278 277 -670z
M1176 553v-8q0 -84 52 -137q52 -54 142 -54t140 52t51 139q0 158 -209 233q-82 -33 -129 -93t-47 -132zM1374 1202q-80 0 -123 -48t-43 -118q0 -135 181 -196q145 66 145 194q0 74 -40 121t-120 47zM1085 532q0 172 189 277v2q-154 78 -154 219q0 106 76 173t184 67t174 -66
t66 -160q0 -145 -158 -229v-4q188 -90 189 -260q0 -115 -83 -191t-205 -76t-200 74q-78 72 -78 174z" />
    <glyph glyph-name="Japan1.10251" unicode="&#x32b4;" 
d="M636 365q106 0 159 58t53 150q0 93 -71 147t-177 54h-43v76h43q78 0 146 48t69 129q0 165 -164 165q-78 0 -153 -51l-27 69q82 62 199 62t177 -64t60 -149t-43 -147t-123 -89v-4q87 -18 143 -83q56 -66 56 -176t-81 -192t-215 -83q-134 0 -212 51l27 74q71 -45 177 -45z
M1385 1198q-81 0 -127 -66t-46 -179q0 -112 48 -168t118 -56q72 0 126 46t55 114q-1 149 -47 229t-127 80zM1122 947q0 129 75 227t195 98t190 -106t69 -285q1 -285 -139 -447t-324 -149v84q112 -8 218 71q54 41 94 123t54 193h-4q-76 -100 -187 -100t-176 80
q-65 81 -65 211zM1023 1667q-370 0 -629 -261t-259 -629q0 -367 260 -627t629 -260t629 260t260 628t-260 629q-260 260 -630 260zM1970 777q0 -392 -278 -668q-278 -277 -669 -277q-390 0 -668 278q-277 278 -277 668t277 669q278 277 669 277t669 -277q277 -278 277 -670z
" />
    <glyph glyph-name="Japan1.10252" unicode="&#x32b5;" 
d="M1382 362q88 0 131 113t43 303t-43 303t-125 113t-132 -104t-50 -301t44 -312t132 -115zM1374 285q-126 0 -194 137q-68 138 -68 366t78 356t200 128t190 -126t69 -369q0 -243 -75 -367t-200 -125zM434 633h297v368q0 84 6 164h-4q-41 -92 -78 -153l-221 -377v-2z
M815 287h-84v270h-383v64l381 649h86v-637h121v-76h-121v-270zM1023 1667q-370 0 -629 -261t-259 -629q0 -367 260 -627t629 -260t629 260t260 628t-260 629q-260 260 -630 260zM1970 777q0 -392 -278 -668q-278 -277 -669 -277q-390 0 -668 278q-277 278 -277 668t277 669
q278 277 669 277t669 -277q277 -278 277 -670z" />
    <glyph glyph-name="Japan1.10253" unicode="&#x32b6;" 
d="M1356 287v891h-2l-156 -93l-20 72l188 113h82v-983h-92zM451 633h297v368q0 84 6 164h-4q-41 -92 -78 -153l-221 -377v-2zM831 287h-83v270h-383v64l380 649h86v-637h121v-76h-121v-270zM1023 1667q-370 0 -629 -261t-259 -629q0 -367 260 -627t629 -260t629 260t260 628
t-260 629q-260 260 -630 260zM1970 777q0 -392 -278 -668q-278 -277 -669 -277q-390 0 -668 278q-277 278 -277 668t277 669q278 277 669 277t669 -277q277 -278 277 -670z" />
    <glyph glyph-name="Japan1.10254" unicode="&#x32b7;" 
d="M1626 299h-498v59l84 103q111 137 159 202t94 161t46 177q0 190 -165 191q-82 0 -162 -64l-25 68q84 76 206 76t180 -77q59 -77 59 -195t-72 -239q-72 -120 -223 -300l-68 -80v-4h385v-78zM434 633h297v368q0 84 6 164h-4q-41 -92 -78 -153l-221 -377v-2zM815 287h-84
v270h-383v64l381 649h86v-637h121v-76h-121v-270zM1023 1667q-370 0 -629 -261t-259 -629q0 -367 260 -627t629 -260t629 260t260 628t-260 629q-260 260 -630 260zM1970 777q0 -392 -278 -668q-278 -277 -669 -277q-390 0 -668 278q-277 278 -277 668t277 669
q278 277 669 277t669 -277q277 -278 277 -670z" />
    <glyph glyph-name="Japan1.10255" unicode="&#x32b8;" 
d="M1320 365q106 0 160 56q54 57 54 129q0 125 -79 179q-68 45 -218 45v76h45q80 0 150 48t70 129t-44 123q-43 42 -123 42t-157 -51l-25 69q82 62 201 62t180 -64t61 -149t-44 -147t-124 -89v-4q87 -18 143 -83q56 -66 56 -176t-82 -192t-218 -83q-136 0 -214 51l27 74
q75 -45 181 -45zM438 633h295v368q0 57 8 164h-6q-39 -86 -76 -153l-221 -377v-2zM819 287h-86v270h-381v64l381 649h86v-637h119v-76h-119v-270zM1023 1667q-370 0 -629 -261t-259 -629q0 -367 260 -627t629 -260t629 260t260 628t-260 629q-260 260 -630 260zM1970 777
q0 -392 -278 -668q-278 -277 -669 -277q-390 0 -668 278q-277 278 -277 668t277 669q278 277 669 277t669 -277q277 -278 277 -670z" />
    <glyph glyph-name="Japan1.10256" unicode="&#x32b9;" 
d="M1153 633h297v368q0 84 6 164h-6q-37 -86 -76 -153l-221 -377v-2zM1534 287h-84v270h-383v64l381 649h86v-637h121v-76h-121v-270zM434 633h297v368q0 84 6 164h-4q-41 -92 -78 -153l-221 -377v-2zM815 287h-84v270h-383v64l381 649h86v-637h121v-76h-121v-270z
M1023 1667q-370 0 -629 -261t-259 -629q0 -367 260 -627t629 -260t629 260t260 628t-260 629q-260 260 -630 260zM1970 777q0 -392 -278 -668q-278 -277 -669 -277q-390 0 -668 278q-277 278 -277 668t277 669q278 277 669 277t669 -277q277 -278 277 -670z" />
    <glyph glyph-name="Japan1.10257" unicode="&#x32ba;" 
d="M1585 1257v-77h-297l-43 -283q16 4 55 4q106 0 196 -76t91 -217q0 -141 -86 -232t-209 -91t-192 51l26 72q70 -43 160 -43t150 61q59 61 59 178t-72 169t-154 52t-114 -6l62 438h368zM451 633h297v368q0 84 6 164h-4q-41 -92 -78 -153l-221 -377v-2zM831 287h-83v270
h-383v64l380 649h86v-637h121v-76h-121v-270zM1023 1667q-370 0 -629 -261t-259 -629q0 -367 260 -627t629 -260t629 260t260 628t-260 629q-260 260 -630 260zM1970 777q0 -392 -278 -668q-278 -277 -669 -277q-390 0 -668 278q-277 278 -277 668t277 669q278 277 669 277
t669 -277q277 -278 277 -670z" />
    <glyph glyph-name="Japan1.10258" unicode="&#x32bb;" 
d="M434 633h297v368q0 84 6 164h-4q-41 -92 -78 -153l-221 -377v-2zM815 287h-84v270h-383v64l381 649h86v-637h121v-76h-121v-270zM1363 358q79 0 127 66t48 178q0 113 -47 169t-119 56t-126 -46t-54 -113q0 -150 46 -230t125 -80zM1388 901q110 0 176 -81q64 -81 64 -211
t-75 -227t-195 -97t-189 106q-70 106 -69 285q0 292 142 450t319 146v-84q-68 5 -130 -21q-61 -27 -103 -65t-81 -114q-39 -78 -53 -187h4q80 100 190 100zM1023 1667q-370 0 -629 -261t-259 -629q0 -367 260 -627t629 -260t629 260t260 628t-260 629q-260 260 -630 260z
M1970 777q0 -392 -278 -668q-278 -277 -669 -277q-390 0 -668 278q-277 278 -277 668t277 669q278 277 669 277t669 -277q277 -278 277 -670z" />
    <glyph glyph-name="Japan1.10259" unicode="&#x32bc;" 
d="M1108 1257h498v-59l-367 -911h-84l356 889v4h-403v77zM440 633h297v368q0 84 6 164h-4q-41 -92 -77 -153l-222 -377v-2zM821 287h-84v270h-383v64l381 649h86v-637h121v-76h-121v-270zM1023 1667q-370 0 -629 -261t-259 -629q0 -367 260 -627t629 -260t629 260t260 628
t-260 629q-260 260 -630 260zM1970 777q0 -392 -278 -668q-278 -277 -669 -277q-390 0 -668 278q-277 278 -277 668t277 669q278 277 669 277t669 -277q277 -278 277 -670z" />
    <glyph glyph-name="Japan1.10260" unicode="&#x32bd;" 
d="M434 633h297v368q0 84 6 164h-4q-41 -92 -78 -153l-221 -377v-2zM815 287h-84v270h-383v64l381 649h86v-637h121v-76h-121v-270zM1023 1667q-370 0 -629 -261t-259 -629q0 -367 260 -627t629 -260t629 260t260 628t-260 629q-260 260 -630 260zM1970 777
q0 -392 -278 -668q-278 -277 -669 -277q-390 0 -668 278q-277 278 -277 668t277 669q278 277 669 277t669 -277q277 -278 277 -670zM1176 553v-8q0 -84 52 -137q52 -54 142 -54t140 52t51 139q0 158 -209 233q-82 -33 -129 -93t-47 -132zM1374 1202q-80 0 -123 -48t-43 -118
q0 -135 181 -196q145 66 145 194q0 74 -40 121t-120 47zM1085 532q0 172 189 277v2q-154 78 -154 219q0 106 76 173t184 67t174 -66t66 -160q0 -145 -158 -229v-4q188 -90 189 -260q0 -115 -83 -191t-205 -76t-200 74q-78 72 -78 174z" />
    <glyph glyph-name="Japan1.10261" unicode="&#x32be;" 
d="M438 633h295v368q0 57 8 164h-6q-41 -92 -78 -153l-219 -377v-2zM817 287h-84v270h-381v64l381 649h84v-637h121v-76h-121v-270zM1546 889q0 149 -46 229t-125 80t-127 -66t-48 -178q0 -113 47 -169t118 -56t126 45t55 115zM1110 948q0 128 75 226t195 98t190 -106
q69 -106 68 -285q0 -291 -142 -450t-318 -146v84q125 -8 233 86t133 301h-4q-80 -100 -189 -100t-175 81q-66 82 -66 211zM1023 1667q-370 0 -629 -261t-259 -629q0 -367 260 -627t629 -260t629 260t260 628t-260 629q-260 260 -630 260zM1970 777q0 -392 -278 -668
q-278 -277 -669 -277q-390 0 -668 278q-277 278 -277 668t277 669q278 277 669 277t669 -277q277 -278 277 -670z" />
    <glyph glyph-name="Japan1.10262" unicode="&#x32bf;" 
d="M911 1257v-77h-299l-43 -283q18 4 56 4q109 0 199 -78t89 -217q0 -139 -86 -230t-209 -91t-192 51l25 72q75 -43 163 -43t148 62q59 62 59 171t-64 168q-65 59 -177 59q-63 0 -101 -6l62 438h370zM1382 362q176 0 176 416t-174 416q-76 0 -126 -102t-50 -305t46 -314
t128 -111zM1393 1272q123 0 191 -127t69 -370q0 -243 -76 -367t-202 -123q-125 0 -193 137q-68 138 -68 366t78 356t201 128zM1023 1667q-370 0 -629 -261t-259 -629q0 -367 260 -627t629 -260t629 260t260 628t-260 629q-260 260 -630 260zM1970 777q0 -392 -278 -668
q-278 -277 -669 -277q-390 0 -668 278q-277 278 -277 668t277 669q278 277 669 277t669 -277q277 -278 277 -670z" />
    <glyph glyph-name="Japan1.8061" unicode="&#x1f100;" 
d="M1888 -16q-82 0 -82 94q0 42 23 68t59 26q82 0 82 -94t-82 -94zM993 72q307 0 384 439q22 120 22 259q-1 312 -101 500t-301 188q-169 0 -285 -179t-116 -506t108 -514t289 -187zM992 -27q-249 0 -387 214t-138 590t156 578q156 201 387 201t374 -194q144 -194 144 -586
q0 -393 -144 -598t-392 -205z" />
    <glyph glyph-name="Japan1.10004" unicode="&#x1f110;" 
d="M1681 -168v10q211 276 211 936t-211 936v10h78q211 -284 211 -946t-211 -946h-78zM367 1724v-10q-211 -276 -211 -936t211 -936v-10h-78q-211 284 -211 946t211 946h78zM782 662h486l-176 452q-43 117 -64 184h-6l-59 -178zM1296 573h-540l-183 -467h-116l524 1340h94
l516 -1340h-116z" />
    </font>
</defs>
</svg>
